{"glyphs":{"":{"ha":1403,"x_min":0,"x_max":1288,"o":"m 364 1076 q 394 1067 379 1076 q 413 1044 408 1057 l 418 1028 q 414 997 421 1015 l 413 993 q 368 944 408 985 l 328 903 l 583 903 q 610 900 604 901 q 639 881 628 896 q 650 845 650 867 q 640 810 650 824 q 611 790 629 796 l 610 790 q 585 788 604 788 q 467 786 557 786 l 329 786 l 369 746 q 413 697 407 708 l 418 681 q 400 629 424 653 q 369 614 385 614 l 353 614 q 335 619 346 614 q 233 717 326 624 q 136 818 140 810 l 133 825 q 129 845 129 836 q 135 868 129 854 l 136 874 q 231 972 140 882 q 333 1069 322 1063 l 335 1071 q 348 1075 343 1074 q 364 1076 353 1076 m 1058 1076 q 1078 1072 1069 1076 q 1183 973 1088 1068 q 1281 874 1278 878 l 1282 868 q 1288 845 1288 854 q 1283 825 1288 836 l 1281 818 q 1183 717 1276 810 q 1082 619 1089 624 q 1064 614 1071 614 l 1047 614 q 1010 635 1025 614 q 999 681 994 657 l 1004 697 q 1047 746 1010 708 l 1088 786 l 950 786 l 814 788 q 767 844 767 803 q 778 881 767 867 q 807 900 789 896 q 833 903 813 901 l 1089 903 l 1049 944 q 1004 993 1008 985 l 1003 997 q 999 1028 996 1015 l 1004 1044 q 1039 1075 1010 1060 q 1058 1076 1042 1076 m 717 499 l 1075 497 l 1089 494 q 1153 469 1125 488 q 1199 422 1182 450 q 1221 382 1215 394 q 1228 349 1226 367 q 1229 293 1229 335 l 1229 267 q 1228 181 1229 190 q 1178 85 1217 124 q 1083 36 1140 47 q 708 35 1072 35 q 333 38 356 35 q 283 53 294 46 q 267 63 275 58 q 254 72 263 64 l 247 78 q 215 114 229 92 q 194 161 200 136 l 189 183 q 188 267 188 190 l 188 304 q 189 354 188 343 q 203 394 190 365 l 204 399 q 236 447 214 425 q 285 479 258 468 l 296 483 q 347 497 326 497 l 363 497 q 717 499 550 499 m 707 382 q 347 381 353 382 q 323 365 332 375 q 306 340 314 356 l 306 192 q 320 167 310 178 q 344 153 331 157 l 1072 153 q 1097 167 1086 157 q 1111 192 1107 178 l 1111 340 q 1093 366 1103 357 q 1067 381 1083 375 q 707 382 1061 382 z "},"":{"ha":1403,"x_min":0,"x_max":1288,"o":"m 589 1076 q 804 1076 772 1076 q 842 1074 836 1076 q 871 1054 860 1068 q 882 1018 882 1040 q 868 981 882 996 q 836 961 857 969 l 344 958 q 320 942 329 950 q 306 919 311 933 l 306 192 q 320 167 310 178 q 344 153 331 157 l 532 151 q 724 149 714 151 q 738 142 733 146 q 751 131 743 139 q 761 118 760 122 q 758 67 771 89 q 722 36 747 47 l 536 35 q 335 36 346 35 q 238 85 276 47 q 189 181 200 124 q 188 556 188 192 q 189 928 188 921 l 192 939 q 201 972 197 964 q 238 1026 217 1004 q 292 1063 260 1047 q 315 1069 299 1067 l 325 1072 q 336 1075 333 1075 l 344 1075 q 589 1076 475 1076 m 1058 1076 q 1020 1065 1033 1076 q 1000 1033 1007 1054 q 997 600 997 1019 l 997 176 l 957 217 q 908 260 918 256 q 871 264 893 269 q 842 249 853 260 q 825 219 831 238 q 831 182 819 197 q 927 80 833 174 q 1029 -17 1021 -14 l 1032 -18 q 1065 -22 1053 -25 l 1082 -17 q 1184 80 1090 -14 q 1281 182 1278 174 q 1288 208 1288 192 q 1281 235 1288 225 q 1258 258 1271 250 q 1221 265 1240 269 l 1217 264 q 1203 260 1206 263 q 1154 217 1193 256 l 1114 176 l 1114 600 q 1111 1033 1114 1019 q 1092 1064 1106 1051 q 1058 1076 1078 1076 z "},"":{"ha":1403,"x_min":0,"x_max":1289,"o":"m 1056 1135 q 1086 1126 1074 1135 q 1186 1029 1094 1121 q 1281 929 1278 938 l 1282 926 q 1286 894 1289 906 q 1280 876 1283 882 q 1269 863 1276 869 q 1240 846 1258 851 q 1203 851 1218 840 q 1165 886 1197 856 l 1114 935 l 1114 732 q 1113 674 1114 685 q 1107 649 1113 664 l 1106 643 q 1089 623 1101 632 q 1064 614 1076 614 l 1047 614 q 1017 629 1029 614 q 1000 658 1006 640 q 997 800 997 672 l 997 935 l 957 894 q 908 851 919 857 q 856 851 874 840 q 825 913 818 876 l 831 929 q 928 1032 833 938 q 1025 1126 1019 1122 q 1056 1135 1038 1135 m 533 1076 l 722 1075 q 760 1044 754 1061 l 765 1028 q 757 988 769 1006 q 725 963 744 969 q 532 960 714 960 l 344 958 q 320 942 329 950 q 306 919 311 933 l 306 192 q 320 169 311 178 q 344 153 329 161 l 532 151 q 724 149 714 151 q 738 142 733 146 q 751 131 743 139 q 761 118 760 122 q 758 67 771 89 q 722 36 747 47 l 536 35 q 335 36 346 35 q 238 85 276 47 q 189 181 200 124 q 188 556 188 192 q 189 931 188 919 q 224 1008 197 975 q 288 1060 250 1040 q 329 1072 299 1065 l 332 1074 q 533 1076 351 1076 m 1060 497 l 1047 497 q 1017 482 1029 497 q 1000 453 1006 471 q 997 311 997 439 l 997 176 l 957 217 q 908 260 919 254 q 856 260 874 271 q 825 199 818 235 l 831 182 q 927 81 833 175 q 1029 -17 1021 -14 l 1032 -18 q 1065 -22 1053 -25 l 1082 -17 q 1184 81 1090 -14 q 1281 182 1278 175 l 1282 185 q 1286 217 1289 206 q 1280 235 1283 229 q 1269 249 1276 242 q 1240 265 1258 260 q 1203 260 1218 271 q 1165 225 1197 256 l 1114 176 l 1114 311 q 1113 453 1114 446 q 1083 490 1101 485 l 1076 493 q 1060 497 1067 497 z "},"":{"ha":1403,"x_min":0,"x_max":1229,"o":"m 707 1076 q 897 1076 786 1076 q 1036 1076 1006 1078 q 1100 1071 1081 1076 q 1183 1021 1150 1058 q 1228 931 1217 983 q 1229 674 1229 919 l 1229 460 q 1226 422 1229 429 q 1207 393 1221 404 q 1171 382 1193 382 q 1133 396 1149 382 q 1114 428 1122 407 l 1111 919 q 1097 944 1107 933 q 1072 958 1086 954 l 344 958 q 320 942 329 950 q 306 919 311 933 l 304 732 q 301 539 304 550 q 279 508 294 519 q 236 499 260 494 l 219 504 q 189 542 203 510 l 188 728 q 189 926 188 918 q 224 1009 199 976 q 292 1063 249 1042 q 315 1069 299 1067 l 325 1072 q 336 1075 333 1075 l 346 1075 q 707 1076 532 1076 m 360 440 q 354 440 358 440 l 349 439 q 335 435 343 439 q 233 337 326 431 q 136 235 139 243 l 135 232 q 131 199 128 211 l 136 182 q 233 80 139 174 q 335 -17 326 -14 q 361 -24 344 -24 q 388 -17 378 -24 q 411 6 403 -7 q 418 43 422 24 l 417 47 q 413 61 415 58 q 369 110 408 71 l 329 150 l 753 150 q 1186 153 1172 150 q 1228 208 1228 167 q 1217 244 1228 232 q 1186 264 1207 257 q 753 267 1172 267 l 329 267 l 369 307 q 414 356 408 346 q 419 382 419 365 q 413 408 419 399 q 360 440 392 440 z "},"":{"ha":1403,"x_min":0,"x_max":1289,"o":"m 707 1076 q 897 1076 786 1076 q 1036 1076 1006 1078 q 1100 1071 1081 1076 q 1183 1021 1150 1058 q 1228 929 1217 983 q 1229 728 1229 918 l 1228 542 q 1197 504 1214 510 l 1181 499 q 1140 507 1158 494 q 1115 539 1122 519 q 1113 732 1113 550 l 1111 919 q 1097 944 1107 933 q 1072 958 1086 954 l 344 958 q 320 942 329 950 q 306 919 311 933 l 304 675 l 304 465 q 301 422 303 428 q 281 393 296 404 q 244 382 265 382 q 210 393 224 382 q 190 422 196 404 q 188 461 189 428 l 188 674 q 189 928 188 921 l 192 939 q 201 972 197 964 q 238 1026 217 1004 q 292 1063 260 1047 q 315 1069 299 1067 l 325 1072 q 336 1075 333 1075 l 346 1075 q 707 1076 532 1076 m 1060 439 l 1043 439 q 1016 424 1029 439 q 999 390 1003 410 q 1004 356 994 371 q 1047 307 1008 346 l 1088 267 l 664 267 q 231 264 244 267 q 189 208 189 250 q 199 172 189 185 q 231 153 210 160 q 664 150 244 150 l 1088 150 l 1047 110 q 1004 61 1008 71 q 1000 24 994 46 q 1015 -6 1004 6 q 1044 -22 1026 -17 q 1082 -17 1067 -28 q 1184 80 1090 -14 q 1281 182 1278 174 l 1282 185 q 1286 218 1289 206 l 1281 235 q 1261 257 1279 240 l 1186 333 q 1089 429 1093 426 q 1060 439 1075 439 z "},"":{"ha":1403,"x_min":0,"x_max":1288,"o":"m 1056 1135 q 1086 1126 1074 1135 q 1185 1029 1092 1122 q 1281 929 1278 936 q 1288 903 1288 919 q 1281 876 1288 886 q 1258 853 1271 861 q 1221 846 1240 842 l 1217 847 q 1203 851 1206 849 q 1154 894 1193 856 l 1114 935 l 1114 511 q 1111 78 1114 92 q 1056 36 1097 36 q 1019 47 1032 36 q 1000 78 1007 57 q 997 511 997 92 l 997 935 l 957 894 q 908 851 918 856 q 871 847 893 842 q 842 863 853 851 q 825 892 831 874 q 831 929 819 914 q 929 1032 833 938 q 1025 1126 1021 1124 q 1056 1135 1038 1135 m 533 1076 q 344 1075 447 1076 l 336 1075 q 325 1072 333 1075 l 315 1069 q 247 1035 286 1064 q 215 998 229 1021 q 194 950 200 975 l 189 928 q 188 556 188 921 q 189 181 188 192 q 238 85 200 124 q 333 36 276 47 q 590 35 344 35 l 804 35 q 842 38 836 36 q 871 57 860 43 q 882 93 882 71 q 868 131 882 115 q 836 150 857 142 l 344 153 q 320 167 331 157 q 306 192 310 178 l 306 919 q 320 942 311 933 q 344 958 329 950 l 532 960 q 725 963 714 960 q 756 985 744 969 q 765 1028 769 1004 l 760 1044 q 722 1075 754 1061 l 533 1076 z "},"":{"ha":1403,"x_min":0,"x_max":1289,"o":"m 707 1076 q 1083 1075 1072 1076 q 1178 1026 1140 1064 q 1228 929 1217 988 q 1229 728 1229 918 l 1228 542 q 1197 504 1214 510 l 1181 499 q 1140 507 1158 494 q 1115 539 1122 519 q 1113 732 1113 550 l 1111 919 q 1094 944 1103 935 q 1072 958 1086 953 l 344 958 q 320 942 329 950 q 306 919 311 933 l 304 732 q 301 539 304 550 q 279 508 294 519 q 236 499 260 494 l 219 504 q 189 542 203 510 l 188 728 q 189 929 188 918 q 288 1060 207 1019 q 329 1072 299 1065 l 332 1074 q 707 1076 351 1076 m 360 440 q 401 422 383 440 q 418 372 424 400 l 413 356 q 369 307 407 344 l 329 267 l 532 267 q 590 266 579 267 q 615 260 600 265 l 621 258 q 641 242 632 254 q 650 217 650 229 l 650 200 q 635 169 650 182 q 606 153 624 158 q 464 150 592 150 l 329 150 l 369 110 q 413 61 407 72 l 414 58 q 418 26 421 38 q 412 8 415 14 q 401 -6 408 1 q 372 -22 390 -17 q 335 -17 350 -28 q 231 81 322 -8 q 136 182 140 171 l 135 185 q 131 218 128 206 l 136 235 q 233 338 140 246 q 333 433 325 429 q 360 440 343 440 m 1054 440 q 1018 427 1032 440 q 999 392 1004 414 q 1003 358 996 379 l 1004 356 q 1047 307 1010 344 l 1088 267 l 885 267 q 827 266 838 267 q 801 260 817 265 l 796 258 q 776 242 785 254 q 767 217 767 229 l 767 200 q 782 169 767 182 q 811 153 793 158 q 953 150 825 150 l 1088 150 l 1047 110 q 1004 61 1010 72 l 1003 58 q 999 25 996 38 q 1021 -11 1004 3 q 1065 -22 1039 -28 l 1082 -17 q 1183 80 1089 -14 q 1281 182 1278 174 l 1282 185 q 1286 218 1289 206 l 1281 235 q 1184 337 1278 243 q 1082 433 1090 431 l 1078 435 q 1054 440 1063 440 z "},"":{"ha":1403,"x_min":0,"x_max":1231,"o":"m 1171 1076 q 1213 1060 1196 1076 q 1229 1019 1229 1044 q 1221 989 1229 1006 q 1092 856 1213 976 l 965 729 l 1018 729 l 1069 728 q 1096 713 1089 719 q 1112 672 1111 697 q 1097 631 1113 646 q 1064 614 1086 619 q 938 613 1058 613 q 813 614 821 613 q 768 660 778 622 q 765 785 765 676 q 767 911 765 906 q 799 956 776 949 q 850 953 828 965 q 881 917 869 942 l 882 865 l 882 813 l 1008 939 q 1140 1068 1135 1065 q 1171 1076 1157 1076 m 478 499 q 361 497 426 499 l 353 497 q 326 487 339 497 q 308 465 313 476 q 311 414 299 436 q 347 383 322 394 l 399 382 l 451 382 l 325 256 q 196 122 204 135 q 188 92 188 106 q 204 51 188 67 q 244 35 221 35 q 275 43 258 35 q 408 172 288 51 l 535 299 l 535 246 l 536 194 q 551 168 544 175 q 582 151 563 157 q 619 157 604 146 q 635 169 628 161 q 646 183 643 176 q 651 215 650 197 q 651 267 653 228 l 651 326 q 649 451 651 435 q 604 497 639 489 q 478 499 596 499 z "},"":{"ha":1403,"x_min":0,"x_max":1229,"o":"m 244 1076 q 275 1068 258 1076 q 408 939 288 1060 l 535 813 l 535 865 l 536 917 q 551 943 544 936 q 592 959 567 958 q 633 944 618 960 q 650 911 644 933 q 651 785 651 906 q 650 660 651 668 q 604 615 642 625 q 479 613 588 613 q 353 614 358 613 q 308 646 315 624 q 311 697 299 675 q 347 728 322 717 l 399 729 l 451 729 l 325 856 q 196 989 204 976 q 188 1019 188 1006 q 204 1060 188 1044 q 244 1076 221 1076 m 936 499 q 890 499 918 499 q 827 498 839 499 q 796 490 815 497 q 768 451 776 483 q 765 326 765 435 l 765 267 q 765 215 764 229 q 772 183 767 197 q 795 158 776 168 q 833 151 814 147 l 850 157 q 881 194 867 163 l 882 246 l 882 299 l 1008 172 q 1142 43 1129 51 q 1172 35 1158 35 q 1213 51 1197 35 q 1229 92 1229 68 q 1221 122 1229 106 q 1092 256 1213 135 l 965 382 l 1018 382 l 1069 383 q 1096 399 1089 392 q 1113 429 1107 410 q 1107 467 1118 451 q 1095 483 1103 475 q 1081 493 1088 490 q 1047 499 1067 497 q 996 499 1035 500 l 936 499 z "},"":{"ha":1403,"x_min":0,"x_max":1113,"o":"m 303 -81 q 262 -64 278 -81 q 246 -22 246 -47 q 344 133 246 85 q 386 147 363 143 q 413 150 396 149 l 532 150 q 585 150 572 150 q 618 157 603 151 q 640 176 629 161 q 650 204 650 190 l 650 214 q 454 336 528 244 l 446 346 q 431 364 435 358 q 322 613 354 472 q 303 800 303 700 q 308 849 303 817 l 313 871 q 386 1033 324 950 l 407 1057 q 432 1083 424 1076 l 439 1089 q 501 1135 479 1121 q 575 1169 538 1158 l 590 1174 q 671 1190 644 1190 l 676 1190 q 707 1192 694 1192 q 767 1189 744 1192 q 817 1178 792 1186 q 881 1154 858 1164 q 938 1121 915 1139 l 956 1107 q 1010 1058 993 1078 q 1051 1003 1036 1026 q 1085 936 1074 969 l 1085 936 q 1111 836 1106 872 q 1113 781 1113 822 q 1108 687 1113 728 q 1092 601 1103 646 l 1090 599 q 1074 533 1079 554 q 1050 472 1063 497 q 986 364 1018 410 q 971 346 982 358 l 963 336 q 767 214 889 244 l 767 200 q 763 175 767 192 q 628 38 735 64 q 549 35 621 36 l 406 33 q 361 -24 361 15 q 358 -44 361 -33 q 350 -58 354 -54 l 349 -60 q 331 -75 338 -71 q 303 -81 319 -81 m 715 1075 l 688 1075 q 633 1067 661 1075 q 588 1049 617 1061 l 581 1046 q 483 968 524 1021 q 438 890 451 926 q 422 836 426 863 q 419 768 419 813 q 428 685 419 732 l 432 656 q 475 513 443 579 q 553 400 507 446 q 579 375 574 379 l 586 369 q 600 358 596 361 q 650 335 629 342 q 714 325 678 325 q 772 336 744 325 q 817 360 789 342 l 826 365 q 861 396 839 374 q 892 432 881 417 q 951 539 926 475 q 988 668 969 588 q 997 769 997 711 q 996 820 997 804 q 988 858 994 836 l 985 872 q 979 890 981 886 q 913 991 956 949 q 806 1060 871 1033 q 779 1068 790 1065 l 751 1074 q 715 1075 744 1075 m 717 960 q 707 960 713 960 q 694 960 697 961 q 661 936 674 953 q 651 893 647 917 q 668 863 656 875 l 671 860 q 692 847 683 847 l 697 846 q 710 844 706 844 q 740 835 729 842 q 760 813 750 828 q 767 788 765 801 l 767 785 q 771 764 769 769 q 779 751 772 758 q 799 736 790 740 q 828 729 811 729 q 858 740 844 729 q 876 764 869 750 q 881 774 879 769 l 881 792 q 861 872 881 838 q 813 926 844 901 q 717 960 771 960 z "},"":{"ha":1403,"x_min":0,"x_max":1229,"o":"m 1056 711 q 1046 760 1056 743 q 1014 786 1039 769 l 344 786 l 336 781 q 319 769 325 774 q 308 754 311 763 q 306 738 306 750 l 304 729 q 290 690 301 703 q 254 672 278 678 q 236 672 246 671 l 219 678 q 197 697 207 682 q 188 728 188 711 q 217 826 188 785 q 288 886 243 864 q 329 899 299 892 l 332 900 q 683 903 351 903 l 974 903 q 1033 900 1028 901 q 1106 865 1074 890 q 1153 806 1139 840 l 1157 797 q 1171 742 1171 763 l 1172 729 q 1183 719 1174 724 l 1190 715 q 1222 675 1214 700 l 1228 658 q 1229 555 1229 653 q 1228 453 1229 457 q 1208 413 1219 428 q 1178 389 1197 399 q 1172 383 1174 388 l 1171 369 q 1157 314 1171 349 l 1153 306 q 1119 258 1142 279 q 1071 224 1101 242 q 1050 217 1067 221 l 1025 210 l 874 210 l 722 208 l 697 224 q 684 242 689 229 q 679 267 679 254 q 691 301 679 286 q 721 322 703 317 q 871 325 732 325 l 1014 325 q 1046 351 1039 342 q 1056 400 1056 368 q 1069 458 1056 438 q 1113 492 1083 479 l 1113 619 q 1069 653 1083 632 q 1056 711 1056 674 m 244 585 q 278 575 263 585 q 299 552 294 565 q 304 528 303 539 q 304 497 304 519 l 304 440 l 418 440 l 418 500 q 419 540 418 529 q 435 567 422 554 q 478 585 453 585 q 506 576 493 585 l 510 574 q 519 567 518 569 q 533 542 525 558 l 535 490 l 535 440 q 558 435 549 439 q 576 422 567 431 q 586 408 585 413 l 592 392 q 593 314 593 386 q 592 250 593 261 q 589 228 592 239 q 556 157 582 189 q 497 110 532 128 q 433 93 461 93 l 419 92 l 419 -10 q 419 -35 419 -31 q 414 -49 418 -39 l 411 -54 q 394 -72 407 -64 q 369 -81 381 -81 l 353 -81 q 322 -65 338 -81 l 318 -61 q 311 -54 313 -56 l 308 -49 q 303 -35 304 -40 q 303 -10 303 -31 l 303 92 l 289 93 q 214 117 250 93 q 163 165 186 135 q 132 232 142 193 q 129 314 129 249 q 131 392 129 386 q 150 425 138 414 q 188 440 163 436 l 188 490 l 189 542 q 208 572 200 564 q 244 585 222 585 m 361 324 l 246 324 l 246 288 l 247 253 l 247 251 q 258 231 254 236 q 275 217 265 219 l 283 214 q 303 209 296 210 q 346 208 311 208 l 376 208 q 419 209 411 208 q 439 214 426 210 l 447 217 q 464 231 457 219 q 474 251 468 236 l 475 253 l 476 288 l 476 324 l 361 324 z "},"":{"ha":1403,"x_min":0,"x_max":1229,"o":"m 1056 711 q 1046 760 1056 743 q 1014 786 1039 769 l 344 786 l 338 782 q 319 769 325 774 q 308 753 311 763 q 306 736 306 749 l 304 729 q 290 690 301 703 q 254 672 278 678 q 236 672 246 671 l 219 678 q 197 697 207 682 q 188 726 188 711 q 200 793 188 763 q 229 843 210 817 q 247 860 235 850 l 254 864 q 278 882 269 876 q 306 894 290 889 q 325 899 311 896 l 332 900 q 678 903 351 903 q 1026 900 1004 903 l 1050 896 q 1088 876 1063 893 l 1096 872 q 1129 843 1114 861 q 1153 806 1144 825 l 1157 797 q 1171 742 1171 763 l 1172 729 q 1183 719 1174 724 l 1190 715 q 1222 675 1214 700 l 1228 658 q 1229 556 1229 653 q 1228 453 1229 458 l 1222 436 q 1178 389 1213 406 q 1172 383 1174 388 l 1171 369 q 1157 314 1171 349 l 1153 306 q 1119 258 1142 279 q 1071 224 1101 242 q 1050 217 1067 221 l 1040 214 l 1025 208 l 664 208 l 661 210 q 642 222 647 218 q 628 240 631 231 l 626 244 q 622 275 619 263 l 626 292 q 640 310 629 300 q 661 322 651 319 q 693 325 667 324 l 1014 325 q 1046 351 1039 342 q 1056 400 1056 368 q 1069 458 1056 438 q 1113 492 1083 479 l 1113 619 q 1069 653 1083 632 q 1056 711 1056 674 m 531 672 q 594 672 583 672 q 611 669 606 671 q 650 619 640 660 q 651 572 651 613 q 647 510 651 536 q 635 456 643 488 q 608 390 624 418 l 603 379 q 589 356 593 363 q 511 274 553 306 q 404 219 465 240 q 373 212 393 215 q 301 208 353 208 l 246 208 l 246 147 q 243 78 246 92 q 188 36 229 36 q 151 47 164 36 q 131 79 138 58 q 129 219 129 88 l 129 249 q 130 338 129 322 q 133 371 131 353 l 140 404 q 186 518 150 464 q 263 601 217 565 q 408 668 325 651 q 439 671 422 671 l 531 672 m 490 556 q 447 554 475 556 l 436 554 q 346 519 397 554 q 315 492 336 513 l 308 485 q 274 435 289 465 q 251 371 258 404 q 246 329 246 343 l 246 325 l 310 325 q 350 326 340 325 q 382 335 360 328 q 433 361 410 344 q 475 397 451 374 q 492 421 482 404 l 499 432 q 518 469 514 456 q 533 547 533 515 l 535 556 l 490 556 z "},"":{"ha":1403,"x_min":0,"x_max":1293,"o":"m 661 464 q 721 567 661 465 l 803 707 l 718 756 q 542 861 579 836 q 529 879 533 869 q 525 903 525 889 q 529 928 525 918 q 540 947 532 935 l 543 951 q 618 1036 576 1001 q 699 1092 660 1071 q 799 1125 747 1118 l 817 1128 q 858 1133 847 1133 l 878 1135 q 1015 1111 960 1135 l 1031 1106 q 1061 1093 1053 1097 q 1219 954 1153 1047 q 1249 901 1231 939 l 1257 883 q 1268 850 1263 872 l 1271 839 q 1282 789 1279 807 q 1286 729 1286 763 q 1274 626 1286 674 q 1242 544 1264 589 q 1218 510 1229 518 q 1176 499 1204 499 q 1163 501 1168 499 l 944 625 l 935 631 q 918 642 924 639 l 903 649 l 888 622 q 796 464 796 467 q 828 456 796 461 l 844 451 q 879 440 854 450 l 892 436 q 917 426 911 429 l 947 411 q 1072 321 1017 376 q 1086 281 1086 307 q 1082 256 1086 265 q 1069 239 1078 247 q 1035 224 1057 226 q 999 232 1014 221 q 967 258 989 239 l 944 278 q 724 349 856 349 q 646 342 679 349 q 583 322 613 336 l 561 313 q 516 289 529 297 q 478 259 503 281 q 442 229 454 238 l 440 229 q 404 224 418 221 q 372 242 385 228 q 358 276 358 256 q 364 307 358 296 q 381 326 368 314 l 385 331 q 447 381 410 356 q 640 458 543 444 q 661 464 661 461 m 872 1018 q 782 1000 826 1018 q 679 936 717 974 l 665 921 q 761 865 714 893 l 789 906 q 842 972 821 951 l 886 1018 l 872 1018 m 1022 974 q 1007 965 1021 974 q 961 928 986 953 q 919 883 938 906 l 910 871 q 876 828 886 843 l 863 807 l 914 778 q 960 753 949 758 q 1004 858 982 792 q 1024 968 1024 917 q 1022 974 1024 974 m 1156 638 q 1171 729 1171 674 q 1163 801 1171 767 q 1139 860 1154 835 l 1135 868 q 1131 876 1132 875 q 1128 869 1129 878 l 1119 842 q 1107 800 1111 811 q 1072 718 1089 750 l 1060 693 q 1156 638 1108 665 m 253 208 q 224 207 231 208 q 200 203 211 207 l 194 201 q 147 178 158 189 q 131 147 136 167 q 136 110 125 125 q 158 86 147 94 q 193 78 172 78 q 224 86 200 78 l 239 92 q 253 92 243 93 l 258 92 q 296 79 279 92 q 321 52 306 71 q 344 26 336 33 q 404 -10 375 1 q 488 -24 442 -24 q 513 -19 494 -24 l 522 -18 q 542 -14 536 -15 q 583 7 558 -8 l 590 11 q 635 53 607 21 l 653 72 q 708 92 672 92 q 756 79 736 92 q 785 50 767 71 q 801 31 794 38 q 901 -19 839 -7 l 904 -19 q 929 -24 922 -24 q 1058 14 1003 -24 q 1099 53 1071 22 l 1117 74 q 1135 86 1124 81 q 1158 92 1147 92 q 1201 85 1181 92 q 1224 78 1219 78 q 1286 126 1274 78 q 1269 178 1292 156 q 1229 200 1256 192 q 1175 208 1203 208 q 1076 186 1119 208 q 1011 131 1042 168 q 992 110 996 113 l 988 106 q 978 100 981 101 q 940 93 957 93 q 893 107 913 93 q 863 136 881 114 l 846 154 q 786 194 819 181 q 700 208 749 208 q 654 201 681 208 l 642 197 q 549 131 592 185 q 521 104 533 111 q 476 93 503 93 q 439 100 460 93 q 429 106 436 101 l 425 110 q 404 132 417 115 q 390 149 394 144 q 286 206 349 190 q 253 208 275 208 z "},"":{"ha":1403,"x_min":0,"x_max":1346,"o":"m 714 1076 l 1083 1075 l 1097 1072 q 1176 1028 1146 1056 q 1222 950 1213 996 l 1228 928 q 1229 792 1229 921 l 1229 731 q 1230 674 1229 685 q 1236 649 1231 664 l 1238 643 q 1286 614 1246 619 q 1312 608 1303 611 q 1329 596 1321 604 q 1344 565 1342 583 q 1339 531 1346 547 q 1318 507 1332 514 q 1288 498 1310 503 q 1257 489 1267 493 q 1238 468 1242 481 l 1236 463 q 1230 437 1231 447 q 1229 382 1229 426 l 1229 319 q 1228 183 1229 190 l 1225 172 q 1215 139 1219 147 q 1167 77 1196 101 q 1097 39 1139 53 l 1081 36 l 333 36 q 222 104 256 53 l 218 110 q 210 122 211 118 q 189 181 196 150 l 188 317 q 188 415 188 365 q 187 450 188 443 q 181 468 186 457 l 179 471 q 160 489 174 482 q 129 497 150 493 q 88 515 97 506 q 73 546 75 528 q 78 581 71 564 q 99 604 85 597 q 126 612 106 607 q 154 619 147 617 q 181 644 175 633 q 185 657 182 647 l 186 661 q 188 793 188 665 q 189 928 188 921 l 192 939 q 201 972 197 964 q 238 1026 217 1004 q 292 1063 260 1047 q 315 1069 299 1067 l 325 1072 q 336 1075 333 1075 l 346 1075 q 714 1076 535 1076 m 711 960 q 397 960 446 960 q 342 957 347 958 q 306 919 317 949 l 304 701 q 303 656 304 664 q 299 633 303 647 l 293 614 q 260 556 288 593 q 300 474 292 513 q 303 444 301 464 l 306 192 q 320 167 310 178 q 344 153 331 157 l 1072 153 q 1097 167 1086 157 q 1111 192 1107 178 l 1113 410 q 1113 456 1113 447 q 1118 478 1114 464 l 1124 497 q 1157 556 1129 518 q 1117 638 1125 599 q 1114 667 1115 647 l 1111 919 q 1097 944 1107 933 q 1072 958 1086 954 l 711 960 m 881 572 q 922 514 911 536 q 940 431 940 478 q 918 353 940 389 q 869 300 900 322 q 800 269 839 278 l 799 269 q 769 267 788 267 q 664 265 743 265 q 529 267 536 265 q 496 282 507 272 q 478 313 485 292 q 476 556 476 318 q 478 799 476 793 q 494 829 483 817 q 526 844 508 844 l 535 844 q 646 846 597 846 l 701 846 q 752 845 743 846 q 774 842 761 844 l 793 836 q 804 831 796 835 l 814 826 q 876 777 851 811 q 910 697 900 743 q 911 672 911 690 q 901 617 911 643 q 881 572 896 597 m 668 729 l 593 729 l 593 614 l 736 614 q 754 617 749 615 q 783 636 772 621 q 794 674 794 651 q 785 702 794 688 q 765 721 776 717 l 757 724 q 737 728 744 728 q 694 729 729 729 l 668 729 m 686 497 l 593 497 l 593 382 l 681 382 q 776 383 772 382 q 802 396 793 389 q 818 417 811 403 l 819 421 q 824 436 824 429 q 814 472 824 457 q 788 493 804 488 l 788 493 q 768 496 782 496 q 686 497 749 497 z "},"":{"ha":1403,"x_min":0,"x_max":1288,"o":"m 908 1096 q 956 1090 933 1096 l 963 1089 q 981 1085 976 1086 q 1110 971 1081 1044 l 1114 960 q 1126 925 1124 938 q 1132 882 1132 906 q 1076 728 1132 783 l 969 621 q 443 97 460 106 l 433 94 l 172 94 q 146 111 156 100 q 131 140 136 122 q 129 266 129 144 q 131 393 129 388 l 132 397 q 136 408 135 406 q 203 479 142 418 l 757 1033 q 864 1090 801 1078 l 869 1092 q 888 1094 883 1094 l 908 1096 m 910 979 q 864 969 883 979 q 832 944 850 963 l 819 931 q 969 782 894 857 l 981 794 q 1007 831 999 813 q 1017 882 1017 851 q 1013 900 1017 888 q 910 979 986 979 m 738 849 l 357 468 q 507 319 432 394 q 886 700 697 510 l 738 849 m 750 94 q 708 154 708 111 q 714 174 708 163 q 840 306 719 185 q 971 433 961 426 q 986 439 981 439 l 992 439 q 1113 440 1057 440 l 1164 440 q 1224 440 1211 440 q 1256 433 1239 439 q 1286 393 1275 426 q 1288 266 1288 388 q 1286 140 1288 144 q 1273 115 1281 125 q 1253 97 1265 106 l 1244 94 l 750 94 m 424 238 q 274 386 349 311 q 246 357 260 372 l 246 208 l 396 208 q 424 238 410 222 m 1096 324 l 1021 324 q 907 208 964 267 l 1171 208 l 1171 324 l 1096 324 z "},"":{"ha":1403,"x_min":0,"x_max":1293,"o":"m 231 614 q 131 711 147 631 l 131 978 q 154 1029 138 1008 q 193 1064 168 1047 q 214 1072 200 1069 l 222 1074 q 364 1076 236 1076 l 497 1075 q 559 1042 536 1065 q 592 978 582 1018 l 592 711 l 589 697 q 503 617 561 628 l 492 614 l 231 614 m 708 960 q 723 1000 708 982 q 758 1018 738 1018 l 767 1018 q 997 1019 890 1019 q 1236 1018 1231 1019 q 1269 1002 1258 1013 q 1286 969 1281 992 q 1286 951 1288 961 l 1281 935 q 1253 907 1276 922 l 1244 903 l 786 903 q 749 906 756 904 q 719 925 731 911 q 708 960 708 939 m 476 960 l 246 960 l 246 729 l 476 729 l 476 960 m 910 788 q 1067 786 1063 788 q 1097 768 1086 779 q 1113 738 1107 757 q 1103 694 1118 714 q 1067 672 1089 679 q 910 671 1063 671 q 751 674 765 671 q 708 729 708 688 q 751 785 708 771 q 910 788 765 788 m 592 133 q 497 36 575 54 l 271 36 q 217 38 222 36 q 131 133 150 54 l 131 400 q 194 485 144 465 l 204 489 q 235 497 221 497 l 246 497 q 369 499 317 499 q 476 497 451 499 q 503 494 494 497 l 504 494 q 561 462 539 488 q 592 400 583 436 l 592 133 m 996 440 q 1240 439 1236 440 q 1270 421 1260 432 q 1286 390 1281 410 q 1276 347 1292 367 q 1240 325 1263 332 q 997 324 1236 324 q 751 326 765 324 q 708 382 708 340 q 751 438 708 424 q 996 440 765 440 m 476 382 l 246 382 l 246 151 l 476 151 l 476 382 m 914 208 q 776 208 797 208 q 749 206 754 207 q 719 186 731 200 q 708 151 708 172 q 719 115 708 131 q 749 94 731 100 q 778 92 754 93 l 903 92 q 1061 93 1054 92 q 1096 109 1085 99 q 1113 142 1107 119 q 1113 160 1114 151 l 1107 176 q 1093 193 1104 185 q 1074 206 1088 199 l 1069 208 l 914 208 z "},"":{"ha":1403,"x_min":0,"x_max":1171,"o":"m 419 803 q 464 844 435 835 l 725 844 q 756 821 746 832 q 765 778 769 801 l 760 761 q 722 731 754 744 l 629 729 l 535 729 l 535 614 l 567 614 q 670 595 631 614 q 736 536 710 576 q 758 490 751 513 q 767 431 767 464 q 763 407 767 424 q 713 314 746 340 q 665 282 685 292 q 617 269 646 272 q 535 267 590 267 l 461 267 l 456 271 q 431 290 438 282 q 419 325 419 304 q 422 346 419 339 q 432 360 425 353 l 433 361 q 460 379 449 376 q 476 382 465 381 l 544 382 q 593 383 583 382 q 617 388 603 383 q 640 408 631 393 q 650 440 650 422 q 640 473 650 458 q 614 493 629 488 q 599 496 608 496 l 536 497 l 499 497 q 468 498 474 497 q 454 503 463 499 l 446 507 q 419 539 436 513 l 419 803 m 1169 325 q 1154 283 1169 299 q 1113 267 1139 267 q 1092 271 1100 267 l 1088 272 q 1072 283 1081 275 q 1038 317 1064 292 l 997 357 l 921 282 q 906 270 911 272 q 896 267 900 268 l 882 267 q 859 270 867 267 q 843 282 851 274 q 825 333 819 306 l 831 350 q 842 364 832 356 l 915 439 l 875 481 q 831 529 838 519 q 824 556 824 539 q 831 582 824 572 q 850 604 840 597 q 881 614 864 614 q 904 608 889 614 l 908 607 q 944 574 913 604 l 997 522 l 1051 574 q 1088 607 1083 604 l 1104 613 q 1143 606 1126 617 q 1167 579 1154 597 q 1169 564 1169 574 l 1169 547 q 1167 531 1169 538 q 1142 503 1164 525 l 1081 440 l 1121 400 q 1155 366 1147 375 q 1165 350 1163 357 q 1169 340 1168 343 l 1169 325 m 306 382 q 278 375 289 382 q 258 360 269 371 q 249 346 251 353 q 247 324 247 339 q 259 285 247 297 q 294 267 271 272 q 313 267 304 265 l 329 272 q 351 292 342 276 q 361 324 361 307 q 344 365 361 347 q 306 382 326 382 z "},"":{"ha":1403,"x_min":0,"x_max":1296,"o":"m 131 614 q 88 630 104 614 q 72 672 72 646 q 76 694 72 685 l 78 697 q 146 771 83 708 q 215 836 207 831 q 229 843 224 842 q 247 844 235 844 q 279 833 267 844 q 299 808 288 826 l 303 803 l 303 308 l 299 303 q 279 278 288 285 q 244 267 265 267 q 224 269 231 267 q 210 279 217 272 l 208 281 q 190 307 193 296 q 188 336 189 313 l 188 646 l 175 635 q 157 619 164 624 q 131 614 146 614 m 578 267 q 547 289 557 276 q 535 328 535 304 q 549 361 535 347 q 578 381 558 371 l 714 383 q 729 386 724 385 q 753 404 742 390 q 765 432 765 418 l 765 449 q 751 479 765 465 q 724 497 742 486 l 651 497 q 589 499 604 497 q 572 501 578 499 q 536 542 547 510 q 535 672 535 547 l 535 781 q 538 804 536 799 q 575 843 543 828 q 711 844 579 844 l 839 844 q 869 822 860 835 q 882 783 882 807 q 868 750 882 764 q 839 731 858 740 l 744 729 l 650 729 l 650 614 l 694 614 q 736 613 726 614 q 764 604 746 611 q 846 547 815 583 q 882 446 882 504 q 810 299 882 353 q 738 268 781 276 q 651 267 728 267 l 578 267 m 999 267 q 957 283 972 267 q 942 325 942 299 l 942 340 q 946 350 943 343 q 957 366 949 357 q 990 400 965 375 l 1031 440 l 969 503 q 944 531 947 525 q 942 547 942 538 l 942 556 q 944 579 942 572 q 956 595 947 586 q 975 608 965 604 q 1003 613 985 613 q 1029 604 1021 613 l 1113 522 l 1153 563 q 1203 607 1189 599 q 1229 614 1213 614 q 1256 607 1246 614 q 1283 575 1274 594 q 1281 529 1294 550 q 1236 481 1275 519 l 1196 439 l 1247 386 q 1281 350 1278 354 l 1286 333 q 1279 294 1290 311 q 1253 271 1271 283 q 1244 267 1247 268 l 1229 267 l 1215 267 q 1206 270 1213 268 q 1192 282 1200 272 l 1114 357 l 1074 317 q 1040 283 1049 292 q 1024 272 1031 275 l 1019 271 q 999 267 1011 267 m 419 382 q 367 347 385 382 l 365 346 q 362 336 363 340 q 361 324 361 332 q 370 291 361 306 q 393 272 379 276 l 410 267 q 456 278 438 261 q 475 324 475 294 q 473 346 475 339 q 464 360 471 353 q 446 375 453 371 q 419 382 433 382 z "},"":{"ha":1403,"x_min":0,"x_max":1057,"o":"m 536 844 q 574 831 558 844 q 592 797 585 819 q 593 556 593 793 q 592 314 593 318 q 578 289 586 299 q 558 271 571 279 q 550 267 553 268 l 535 267 q 496 281 511 267 q 478 314 485 292 q 476 483 476 318 l 476 646 l 464 635 q 446 619 453 624 q 420 614 435 614 q 398 617 406 614 q 383 626 390 619 q 368 646 372 638 q 361 675 361 658 q 367 694 361 683 q 379 713 369 701 q 433 767 392 725 l 503 835 q 516 842 508 840 q 536 844 524 844 m 765 614 q 760 614 764 614 l 754 613 q 722 594 736 613 q 708 556 708 575 q 715 528 708 542 q 738 504 717 525 l 800 439 l 725 364 q 714 349 717 354 q 708 328 708 338 q 715 299 708 311 q 731 279 719 290 q 745 269 738 272 q 765 267 753 267 q 786 271 778 267 l 790 272 q 842 317 804 279 l 882 357 l 922 317 q 974 272 960 279 l 978 271 q 999 267 986 267 q 1019 269 1011 267 q 1033 279 1026 272 q 1049 299 1044 290 q 1056 328 1056 311 q 1050 349 1056 338 q 1039 364 1047 354 l 964 439 l 1004 479 q 1047 526 1039 514 l 1050 533 q 1056 556 1056 546 q 1042 593 1056 579 q 1007 613 1029 607 q 989 613 997 614 l 972 607 q 958 597 967 606 l 882 522 l 840 563 l 817 586 q 799 603 804 600 q 779 611 794 607 l 776 613 q 765 614 772 614 z "},"":{"ha":1403,"x_min":0,"x_max":1119,"o":"m 650 325 q 639 290 650 304 q 614 271 632 282 l 608 267 l 354 267 q 311 294 325 272 q 308 349 297 315 q 450 535 310 353 l 510 614 q 531 656 525 640 l 532 658 q 535 669 535 667 q 515 714 535 694 q 503 724 507 722 q 456 724 478 732 q 425 697 435 717 q 417 668 421 689 q 413 646 415 653 q 400 628 408 635 q 384 617 392 621 q 361 614 376 614 q 338 617 346 614 q 322 629 331 621 q 303 682 303 649 q 307 701 303 688 l 313 726 q 379 815 325 774 q 476 844 418 844 q 531 836 507 844 q 574 815 549 831 q 628 758 607 794 q 650 672 650 719 q 639 614 650 642 q 606 549 624 576 q 538 458 597 538 l 479 383 l 543 382 q 599 381 585 382 q 614 378 608 381 l 614 378 q 633 364 624 375 l 638 360 q 647 346 644 353 q 650 325 650 339 m 828 613 q 793 603 806 613 q 771 579 782 596 q 767 571 768 574 l 767 556 l 767 540 q 771 531 768 536 q 796 503 774 525 l 857 440 l 817 400 q 783 366 792 375 q 772 350 775 357 l 771 346 q 767 325 767 338 q 783 283 767 299 q 825 267 799 267 q 846 271 838 267 l 850 272 q 866 283 857 275 q 900 317 875 292 l 940 357 l 1003 296 q 1031 271 1025 274 q 1040 267 1036 268 l 1056 267 q 1078 270 1071 267 q 1094 282 1086 274 q 1113 333 1118 306 l 1107 350 q 1074 386 1104 354 l 1022 439 l 1063 481 q 1107 529 1101 519 q 1113 559 1115 542 q 1102 590 1111 576 q 1082 607 1093 603 q 1029 607 1047 618 q 979 563 1015 599 l 939 522 l 856 604 q 828 613 847 613 z "},"":{"ha":1403,"x_min":0,"x_max":1289,"o":"m 718 1019 l 1133 1018 l 1147 1015 q 1199 997 1175 1010 q 1239 965 1224 983 q 1267 926 1257 943 q 1285 878 1279 903 q 1286 854 1286 872 l 1286 556 l 1288 346 q 1287 258 1288 274 q 1281 221 1286 243 l 1278 211 q 1254 163 1272 186 q 1217 126 1238 142 q 1143 94 1185 103 q 1071 92 1133 93 l 344 92 q 272 94 282 93 q 163 165 206 108 q 132 233 139 196 q 131 257 131 239 l 131 556 l 129 765 q 130 853 129 838 q 136 890 131 868 l 139 900 q 170 958 147 932 q 222 999 193 983 q 289 1018 261 1018 l 304 1018 q 718 1019 522 1019 m 708 903 q 289 900 303 903 l 288 900 q 261 885 267 893 q 247 858 254 874 l 247 253 l 247 251 q 258 231 254 236 q 275 217 265 219 l 290 211 q 708 208 304 208 l 929 208 q 1092 208 1063 207 q 1142 217 1121 210 q 1158 231 1151 219 q 1168 251 1163 236 l 1169 253 l 1169 858 l 1169 860 q 1158 881 1163 875 q 1142 894 1151 892 l 1126 900 q 708 903 1113 903 m 542 786 q 624 763 588 786 q 678 711 653 744 q 707 640 699 683 q 708 497 708 628 l 708 367 l 703 358 q 692 342 696 347 q 676 331 685 333 l 660 325 q 608 343 632 319 q 594 369 597 354 q 592 411 592 381 l 592 439 l 478 439 l 478 411 q 468 351 478 369 q 428 325 458 332 q 410 325 419 324 l 393 331 q 365 358 381 335 l 361 367 l 361 497 q 363 640 361 628 q 500 783 385 754 q 517 786 511 786 l 542 786 m 1056 367 q 1051 360 1054 364 q 1032 335 1038 340 q 1004 325 1022 326 q 946 324 992 324 l 943 324 q 881 326 893 324 q 850 338 869 328 l 829 349 q 782 404 803 361 q 771 432 774 421 q 767 469 767 447 q 779 531 767 504 q 809 572 789 551 q 851 601 829 592 q 910 613 876 613 l 933 613 l 939 611 l 939 699 q 940 740 938 729 q 956 768 943 756 q 972 782 965 778 q 997 788 983 788 q 1031 776 1018 788 q 1051 750 1039 769 l 1056 744 l 1056 367 m 592 628 q 590 629 592 628 q 571 657 579 650 q 538 671 557 671 q 500 658 514 671 q 478 628 490 650 l 478 556 l 592 556 l 592 628 m 911 497 q 891 489 900 497 q 882 469 882 481 q 892 447 882 453 q 922 440 901 440 l 939 440 l 939 458 q 936 483 939 478 q 922 494 933 489 q 911 497 917 497 z "},"":{"ha":1403,"x_min":0,"x_max":1228,"o":"m 364 1076 q 418 1029 403 1076 q 419 929 419 1025 l 419 835 q 501 774 468 818 q 525 731 518 751 q 533 672 533 706 q 510 578 533 617 q 446 521 488 542 l 438 517 q 419 508 426 511 l 419 299 q 418 82 419 86 q 400 50 411 61 q 361 36 385 36 q 322 50 338 36 q 304 82 311 60 q 303 299 303 86 l 303 508 q 219 571 254 525 q 197 615 204 592 q 189 672 189 639 q 203 744 189 714 q 240 796 215 771 q 289 829 264 819 l 303 835 l 303 929 q 304 1029 303 1025 q 324 1063 311 1051 q 364 1076 339 1076 m 711 1076 q 765 1029 750 1076 q 767 756 767 1024 l 767 488 q 849 426 815 471 q 872 383 865 404 q 881 325 881 358 q 857 231 881 269 q 793 174 835 194 l 785 169 q 767 161 774 164 l 767 125 q 760 68 767 85 q 732 40 754 51 q 722 36 726 38 l 708 36 q 685 40 694 36 q 668 51 676 43 q 653 78 656 64 q 650 121 650 88 l 650 161 q 567 224 601 178 q 544 268 551 244 q 536 325 536 292 q 550 397 536 367 q 588 449 563 424 q 636 482 611 472 l 650 488 l 650 756 q 651 1029 650 1024 q 671 1063 658 1051 q 711 1076 686 1076 m 997 1015 q 1014 1059 997 1042 q 1058 1076 1031 1076 q 1098 1058 1082 1076 q 1114 1015 1114 1040 l 1114 1008 q 1196 947 1163 992 q 1219 904 1213 925 q 1228 844 1228 879 q 1203 750 1228 790 q 1140 694 1181 715 l 1132 690 q 1114 682 1121 685 l 1114 385 q 1113 82 1114 88 q 1094 50 1106 61 q 1056 36 1079 36 q 1017 50 1032 36 q 999 82 1006 60 q 997 385 997 88 l 997 682 q 914 744 949 699 q 891 789 899 765 q 883 847 883 813 q 897 919 883 889 q 935 969 910 944 q 983 1003 958 993 l 997 1008 l 997 1015 m 1113 846 q 1096 887 1113 871 q 1054 903 1079 903 l 1043 901 q 1013 885 1028 901 q 999 853 999 868 l 999 836 q 1016 803 999 817 q 1056 789 1033 789 q 1097 804 1082 789 q 1113 846 1113 819 m 418 672 q 401 713 418 697 q 360 729 385 729 l 349 728 q 319 711 333 728 q 304 679 304 694 l 304 663 q 322 628 304 643 q 361 614 340 614 q 402 631 386 614 q 418 672 418 647 m 707 382 q 701 382 706 382 l 696 381 q 666 364 681 381 q 651 332 651 347 l 651 315 q 669 281 651 296 q 708 267 688 267 q 750 283 735 267 q 765 324 765 299 q 749 366 765 350 q 707 382 733 382 z "},"":{"ha":1403,"x_min":0,"x_max":1221,"o":"m 419 1076 q 446 1069 433 1076 q 464 1054 453 1065 q 473 1040 471 1047 q 475 1019 475 1033 q 461 979 475 993 q 373 914 457 975 q 285 851 289 853 q 233 851 250 840 q 207 878 211 867 q 204 915 200 897 q 219 944 208 933 q 305 1008 222 947 q 392 1069 388 1068 q 419 1076 406 1076 m 942 1019 q 958 1061 942 1046 q 1000 1076 974 1076 q 1017 1072 1008 1076 l 1021 1071 q 1111 1008 1067 1040 l 1135 992 q 1182 957 1171 965 q 1208 928 1199 943 q 1210 878 1221 910 q 1185 852 1204 863 q 1147 846 1167 842 q 1118 858 1133 849 q 1081 886 1108 865 l 1043 914 q 956 979 961 974 q 942 1019 942 993 m 706 961 q 999 860 872 961 q 1038 822 1013 849 q 1074 782 1064 796 q 1143 656 1122 714 q 1171 488 1171 582 q 1151 364 1171 422 q 1107 264 1140 328 l 1103 254 q 1071 210 1094 238 l 1063 200 q 974 118 1019 149 l 944 99 q 894 74 928 88 l 885 69 q 806 44 842 51 q 708 36 767 36 q 594 49 643 36 q 503 83 553 58 l 493 88 q 472 99 478 94 l 443 118 q 356 199 393 151 l 333 226 q 306 271 322 240 l 294 292 q 257 397 267 340 l 253 418 q 246 486 246 454 q 251 572 246 535 q 269 646 257 601 q 299 714 279 679 q 338 774 313 739 q 422 863 374 824 q 529 925 471 901 q 682 960 617 960 l 706 961 m 707 844 q 606 829 653 844 q 525 792 567 817 q 379 607 419 728 q 367 557 374 590 l 364 539 q 363 497 363 532 q 372 411 363 450 q 399 342 379 386 q 519 207 431 265 q 651 156 582 165 l 657 154 q 689 151 679 151 l 728 151 q 801 164 758 151 q 899 207 850 178 q 911 217 903 210 l 925 228 q 967 267 939 236 l 978 278 q 1032 371 1006 306 q 1049 429 1043 400 q 1054 497 1054 458 q 1035 615 1054 563 q 987 705 1019 660 q 903 785 954 750 q 818 828 860 813 q 707 844 767 844 m 708 729 q 651 682 667 729 q 650 585 650 678 q 651 488 650 492 q 692 442 663 453 l 839 442 q 882 501 882 456 q 868 535 882 521 q 839 556 858 544 l 767 556 l 767 622 q 766 671 767 660 q 760 697 765 682 q 741 720 756 711 q 708 729 726 729 z "},"":{"ha":1403,"x_min":0,"x_max":1288,"o":"m 719 1133 q 814 1125 768 1133 q 894 1104 842 1119 l 903 1101 q 1011 1049 954 1088 l 1044 1028 q 1153 926 1100 989 q 1279 651 1246 818 q 1285 608 1285 626 q 1286 563 1286 596 l 1286 556 q 1224 293 1286 403 l 1215 278 q 1206 258 1208 263 l 1200 250 q 1133 163 1158 188 l 1101 131 q 1014 64 1076 106 l 1006 58 q 986 49 1001 56 l 971 40 q 875 1 929 17 q 761 -21 829 -11 q 708 -22 751 -22 q 458 32 571 -22 q 283 163 369 76 q 232 228 260 186 q 158 378 183 301 q 129 572 129 468 q 133 626 129 601 q 143 678 136 643 q 217 863 165 781 q 338 1000 264 936 q 440 1069 388 1043 q 636 1131 533 1115 q 671 1133 656 1133 l 719 1133 m 706 1018 q 682 1017 697 1018 l 667 1017 q 608 1008 640 1017 q 554 992 589 1004 l 538 986 q 425 921 492 971 q 315 800 367 878 q 281 731 292 765 l 275 718 q 268 699 269 704 q 246 556 246 621 q 269 411 246 474 q 296 344 286 367 q 332 286 313 310 l 369 240 q 425 190 388 218 q 547 121 478 150 q 569 114 553 118 l 582 111 q 642 99 599 106 l 649 97 q 694 93 674 93 q 760 96 736 93 q 817 106 790 99 l 851 115 q 871 122 857 117 l 883 128 q 978 179 935 144 q 1072 269 1044 233 q 1110 328 1090 293 q 1143 394 1129 364 q 1150 417 1146 400 l 1153 429 q 1167 485 1164 461 q 1169 556 1169 508 q 1167 626 1169 603 q 1153 682 1164 650 l 1150 694 q 1143 717 1146 711 q 1074 839 1114 786 q 953 949 1031 897 q 883 983 918 972 l 871 989 q 851 996 857 994 q 706 1018 774 1018 m 711 844 q 764 800 749 844 q 767 672 767 786 q 765 544 767 550 q 748 515 758 525 q 718 499 738 504 q 675 508 693 493 q 651 544 660 521 q 650 672 650 550 q 651 800 650 793 q 660 818 654 810 q 672 831 664 822 l 676 835 q 690 842 682 840 q 711 844 697 844 m 711 382 q 651 333 664 382 q 658 294 647 313 q 685 271 667 283 q 706 267 696 267 q 750 282 733 267 q 767 324 767 297 q 732 376 767 360 q 711 382 721 382 z "},"":{"ha":1403,"x_min":0,"x_max":1286,"o":"m 706 1136 q 860 1047 807 1136 q 1068 688 883 1008 q 1275 326 1263 351 q 1283 303 1282 314 q 1285 267 1285 292 q 1265 181 1285 217 q 1214 125 1247 150 q 1143 96 1186 104 q 706 93 1121 93 q 272 96 292 93 q 169 153 207 108 q 129 272 129 199 q 135 314 129 294 q 150 347 139 325 l 565 1061 q 585 1085 572 1072 q 610 1106 599 1099 q 651 1126 633 1119 q 706 1136 678 1136 m 715 1019 l 700 1019 q 683 1014 693 1019 q 665 1001 672 1008 q 336 435 658 994 l 250 286 q 246 278 247 281 l 246 264 q 288 211 246 225 q 707 208 301 208 q 1125 210 1121 208 q 1158 233 1149 222 q 1169 275 1175 251 q 962 642 1168 288 q 749 1002 756 996 q 733 1014 743 1008 q 715 1019 724 1019 m 707 788 q 765 740 750 788 q 767 672 767 736 l 767 664 q 766 615 767 626 q 760 588 765 603 q 741 565 756 574 q 708 556 726 556 q 671 569 685 556 q 651 603 658 581 q 650 672 650 607 q 651 740 650 736 q 707 788 667 788 m 707 440 q 664 419 682 440 q 651 372 646 399 q 709 325 664 325 q 765 372 754 325 q 756 415 771 397 q 719 439 743 431 q 707 440 715 440 z "},"":{"ha":1403,"x_min":0,"x_max":1228,"o":"m 707 961 q 1182 960 1176 961 q 1214 942 1203 953 q 1228 903 1228 926 q 1214 864 1228 879 q 1182 846 1204 853 q 708 844 1176 844 q 235 846 240 844 q 203 864 214 853 q 189 903 189 879 q 192 926 189 917 q 204 943 196 935 q 233 960 221 960 l 239 960 q 707 961 472 961 m 708 614 q 953 613 946 614 q 997 556 997 597 q 985 518 997 532 q 953 499 974 506 q 708 497 946 497 q 464 499 471 497 q 419 556 419 514 q 432 593 419 579 q 463 611 442 604 q 708 614 474 614 m 707 267 q 347 265 353 267 q 314 242 326 258 q 304 199 300 222 q 350 151 313 164 q 708 150 356 150 q 1067 151 1061 150 l 1068 151 q 1096 167 1088 158 q 1113 197 1107 178 q 1107 235 1118 219 q 1082 260 1093 256 l 1067 265 q 707 267 1061 267 z "},"":{"ha":1403,"x_min":0,"x_max":1229,"o":"m 707 961 q 1182 960 1176 961 q 1214 942 1203 953 q 1228 903 1228 926 q 1214 864 1228 879 q 1182 846 1204 853 q 708 844 1176 844 q 235 846 240 844 q 203 864 214 853 q 189 903 189 879 q 192 926 189 917 q 204 943 196 935 q 233 960 221 960 l 239 960 q 707 961 472 961 m 707 614 q 1182 613 1176 614 q 1214 594 1203 606 q 1228 556 1228 579 q 1214 517 1228 532 q 1182 499 1204 506 q 708 497 1176 497 q 235 499 240 497 q 203 517 214 506 q 189 556 189 532 q 192 578 189 569 q 204 596 196 588 q 233 613 221 613 l 239 613 q 707 614 472 614 m 593 267 q 239 265 419 267 l 233 265 q 210 254 221 265 q 193 232 199 244 q 189 222 190 226 l 189 208 q 203 169 189 185 q 235 151 213 158 q 593 150 240 150 q 953 151 946 150 q 997 208 997 167 q 985 246 997 232 q 953 265 974 258 q 593 267 946 267 z "},"":{"ha":1403,"x_min":0,"x_max":1228,"o":"m 707 961 q 1182 960 1176 961 q 1214 942 1203 953 q 1228 903 1228 926 q 1214 864 1228 879 q 1182 846 1204 853 q 708 844 1176 844 q 235 846 240 844 q 203 864 214 853 q 189 903 189 879 q 192 926 189 917 q 204 943 196 935 q 233 960 221 960 l 239 960 q 707 961 472 961 m 533 614 q 835 613 829 614 q 867 594 856 606 q 881 556 881 579 q 867 517 881 532 q 835 499 857 506 q 535 497 829 497 q 235 499 240 497 q 203 517 214 506 q 189 556 189 532 q 192 578 189 569 q 204 596 196 588 q 233 613 221 613 l 239 613 q 533 614 390 614 m 650 267 q 239 265 444 267 l 233 265 q 210 254 221 265 q 193 232 199 244 q 189 222 190 226 l 189 208 q 203 169 189 185 q 235 151 213 158 q 651 150 240 150 q 1067 151 1061 150 l 1068 151 q 1096 167 1088 158 q 1113 197 1107 178 q 1107 235 1118 219 q 1082 260 1093 256 l 1067 265 q 650 267 1061 267 z "},"":{"ha":1403,"x_min":0,"x_max":1229,"o":"m 707 961 q 1182 960 1176 961 q 1214 942 1203 953 q 1228 903 1228 926 q 1214 864 1228 879 q 1182 846 1204 853 q 708 844 1176 844 q 235 846 240 844 q 203 864 214 853 q 189 903 189 879 q 192 926 189 917 q 204 943 196 935 q 233 960 221 960 l 239 960 q 707 961 472 961 m 881 614 q 1182 613 1176 614 q 1214 594 1203 606 q 1228 556 1228 579 q 1214 517 1228 532 q 1182 499 1204 506 q 882 497 1176 497 q 582 499 588 497 q 550 517 561 506 q 536 556 536 532 q 540 578 536 569 q 551 596 543 588 q 581 613 568 613 l 586 613 q 881 614 738 614 m 765 267 q 347 265 353 267 q 314 242 326 258 q 304 199 300 222 q 350 151 313 164 q 766 150 356 150 q 1182 151 1176 150 q 1214 169 1203 158 q 1228 208 1228 185 q 1214 247 1228 232 q 1182 265 1204 258 q 765 267 1176 267 z "},"":{"ha":1403,"x_min":0,"x_max":1288,"o":"m 707 1076 q 1142 1075 1131 1076 q 1217 1043 1174 1068 q 1235 1026 1222 1040 l 1239 1022 q 1274 974 1263 999 q 1286 903 1286 943 q 1274 833 1286 863 q 1240 783 1263 806 q 1172 739 1210 753 l 1172 392 q 1169 176 1171 185 q 1026 38 1140 60 q 708 35 1004 35 q 390 38 413 35 q 246 193 268 63 q 244 474 244 204 l 244 739 q 206 760 232 743 l 200 763 q 131 886 146 794 q 140 965 126 928 q 178 1022 153 997 q 251 1068 217 1061 l 274 1074 q 707 1076 293 1076 m 246 903 q 289 847 246 861 l 1128 847 q 1171 903 1171 861 q 1128 958 1171 944 l 471 960 q 325 960 354 961 q 275 953 286 960 q 255 933 264 947 q 246 903 246 919 m 1056 729 l 361 729 l 361 467 q 363 197 361 203 q 403 153 374 164 l 1014 153 q 1035 165 1028 160 q 1050 183 1047 174 q 1056 235 1054 197 q 1056 346 1057 260 l 1056 729 m 708 614 q 578 611 589 614 q 547 592 557 604 q 536 556 536 579 q 547 519 536 532 q 579 499 558 506 q 708 497 586 497 q 838 499 831 497 q 869 519 858 506 q 881 556 881 532 q 869 592 881 579 q 838 613 858 606 q 708 614 831 614 z "},"":{"ha":1403,"x_min":0,"x_max":1229,"o":"m 914 903 q 896 903 907 903 q 871 902 876 903 q 854 896 865 901 q 831 872 840 889 q 825 837 821 854 q 837 810 829 819 q 858 792 844 801 l 867 789 l 913 788 q 1028 763 986 785 q 1094 692 1069 742 q 1113 615 1113 656 q 1099 542 1113 574 q 1063 490 1088 515 q 1022 460 1043 471 q 968 443 1000 450 q 700 440 946 440 l 444 440 l 514 510 q 570 567 557 553 q 586 588 583 582 q 586 640 597 622 q 558 667 581 653 q 543 669 553 669 l 526 669 q 511 667 518 669 q 376 538 494 657 q 250 406 257 418 q 247 390 247 399 l 247 374 q 250 358 247 365 q 379 223 260 342 q 511 97 499 104 q 526 94 518 94 l 535 94 q 558 97 551 94 q 574 108 565 100 q 592 160 597 132 l 586 176 q 570 197 583 182 q 514 254 557 213 l 444 324 l 707 324 l 969 325 l 986 328 q 1171 439 1094 343 q 1229 614 1229 513 q 1225 663 1229 639 q 1214 704 1222 676 q 1182 772 1201 747 l 1174 783 q 1122 838 1143 822 l 1099 856 q 1031 888 1075 875 q 979 900 999 897 q 914 903 956 903 z "},"":{"ha":1403,"x_min":0,"x_max":1231,"o":"m 231 961 q 200 983 210 971 q 188 1024 188 999 q 218 1069 188 1049 q 228 1074 221 1071 l 232 1075 q 711 1076 235 1076 l 1186 1075 q 1229 1022 1229 1057 q 1217 983 1229 999 q 1186 961 1207 971 l 231 961 m 708 729 q 651 682 667 729 q 650 454 650 678 l 650 233 l 579 303 q 518 363 533 349 q 500 376 507 374 q 481 382 489 382 q 446 374 458 382 q 425 349 433 365 l 424 347 q 420 338 421 342 q 419 325 419 333 l 419 311 q 424 300 421 306 q 650 71 432 283 l 676 44 q 690 38 681 40 q 708 35 700 35 q 726 38 717 35 q 740 44 736 40 l 767 71 q 993 300 985 283 q 997 311 996 306 l 997 325 q 994 346 997 339 q 985 360 992 353 q 965 375 974 371 q 936 382 953 382 q 917 376 928 382 q 899 363 910 374 q 838 303 883 349 l 767 233 l 767 454 q 765 682 767 678 q 708 729 750 729 z "},"":{"ha":1403,"x_min":0,"x_max":1229,"o":"m 1229 83 q 1172 35 1213 35 q 1135 47 1150 35 q 1115 76 1121 58 q 1114 106 1114 79 l 1114 1006 q 1115 1035 1114 1032 q 1135 1065 1121 1053 q 1172 1076 1150 1076 q 1210 1063 1194 1076 q 1229 1028 1222 1050 l 1229 83 m 481 844 l 468 844 q 454 840 464 844 q 414 806 444 835 q 326 718 393 785 l 196 586 q 190 573 192 582 q 188 556 188 564 q 190 538 188 547 q 196 525 192 529 l 199 522 q 450 274 432 282 l 457 271 q 476 267 467 267 q 519 283 503 267 q 535 325 535 299 q 526 354 535 338 q 454 428 525 357 l 386 497 l 608 497 q 839 500 825 497 q 881 556 881 514 q 870 592 881 579 q 839 611 860 604 q 608 614 825 614 l 386 614 l 454 683 l 485 714 q 517 746 510 738 q 531 769 528 758 q 535 786 535 781 q 519 827 535 810 q 481 844 504 844 z "},"":{"ha":1403,"x_min":0,"x_max":1231,"o":"m 188 1028 q 244 1076 204 1076 q 281 1065 267 1076 q 301 1035 296 1053 q 303 1006 303 1032 l 303 106 q 301 76 303 79 q 281 47 296 58 q 244 35 265 35 q 188 83 204 35 l 188 1028 m 944 844 l 932 844 q 897 826 911 844 q 882 786 882 808 q 890 757 882 774 q 963 683 892 754 l 1031 614 l 808 614 q 578 611 592 614 q 536 556 536 597 q 547 519 536 532 q 578 500 557 507 q 808 497 592 497 l 1031 497 l 963 428 l 932 397 q 900 365 907 374 q 885 342 889 353 q 882 325 882 331 q 898 283 882 299 q 940 267 914 267 q 960 271 950 267 l 967 274 q 1218 522 985 282 l 1221 525 q 1227 538 1225 529 q 1229 556 1229 547 q 1227 573 1229 564 q 1221 586 1225 582 l 1218 589 q 967 838 985 829 l 960 840 q 944 844 951 844 z "},"":{"ha":1403,"x_min":0,"x_max":1231,"o":"m 481 729 q 436 744 453 729 q 419 786 419 760 l 419 801 q 424 811 421 806 q 650 1040 432 828 l 676 1067 q 708 1076 686 1076 q 740 1067 731 1076 l 767 1040 q 993 811 985 828 q 997 801 996 806 l 997 786 q 994 765 997 772 q 985 751 992 758 q 965 736 974 740 q 936 729 953 729 q 917 735 928 729 q 899 749 910 738 q 838 808 883 763 l 767 878 l 767 657 q 765 429 767 433 q 708 382 750 382 q 671 396 685 382 q 651 429 658 407 q 650 657 650 433 l 650 878 l 579 808 q 518 749 533 763 q 500 735 507 738 q 481 729 489 729 m 711 150 q 228 149 232 150 q 200 128 208 139 q 188 89 188 113 q 231 36 188 54 l 1186 36 q 1215 56 1206 46 q 1229 89 1229 69 q 1217 128 1229 113 q 1186 150 1207 140 l 711 150 z "},"":{"ha":1403,"x_min":0,"x_max":1288,"o":"m 719 1133 q 768 1132 757 1133 q 1153 926 1001 1103 q 1279 651 1246 818 q 1285 608 1285 626 q 1286 563 1286 596 l 1286 556 q 1271 415 1286 481 q 1228 300 1257 357 q 1133 163 1185 214 l 1101 131 q 1007 60 1063 92 q 875 1 939 21 q 708 -22 797 -22 q 642 -21 663 -22 q 583 -10 611 -18 l 572 -7 q 511 13 531 6 q 453 36 481 22 q 315 131 367 79 l 283 163 q 232 228 260 186 q 160 369 183 300 q 131 556 131 456 q 140 664 131 614 q 165 756 147 703 l 167 761 q 176 786 174 779 l 194 822 q 371 1025 254 942 q 621 1128 488 1108 q 681 1133 660 1133 l 719 1133 m 706 1018 q 678 1017 696 1018 l 665 1017 q 607 1008 639 1017 q 554 992 589 1004 l 538 986 q 425 921 492 971 q 315 800 367 878 q 260 667 285 754 q 246 556 246 618 q 253 479 246 515 q 268 413 257 451 q 275 393 269 407 l 281 381 q 318 306 293 343 q 368 243 333 283 l 369 240 q 425 190 388 218 q 483 153 449 172 q 547 121 517 135 q 569 114 553 118 l 582 111 q 642 99 599 106 l 649 97 q 694 93 674 93 q 886 128 799 93 q 1124 350 1035 188 q 1139 386 1129 361 l 1143 394 q 1150 417 1146 400 l 1153 429 q 1165 489 1158 446 l 1167 496 q 1171 542 1171 521 q 1165 628 1171 592 q 1147 700 1160 665 q 1115 774 1131 744 q 1075 838 1097 810 q 953 949 1024 901 q 819 1004 907 979 q 706 1018 771 1018 m 711 844 q 671 832 685 844 q 651 797 660 821 q 650 628 650 793 l 650 465 l 581 535 q 524 591 539 578 q 503 607 508 604 q 450 607 468 618 q 424 579 438 601 q 419 571 421 574 l 419 556 l 419 540 q 424 531 421 536 q 468 485 426 526 l 675 276 q 708 267 685 267 q 742 276 732 267 l 949 485 q 993 531 990 526 q 997 540 996 536 l 997 556 q 994 578 997 571 q 982 594 990 586 q 931 613 958 618 l 914 607 q 894 591 908 604 q 836 535 879 578 l 767 465 l 767 628 q 765 797 767 793 q 752 822 760 813 q 732 840 744 832 l 731 840 q 711 844 722 844 z "},"":{"ha":1403,"x_min":0,"x_max":1288,"o":"m 704 1135 q 874 1110 793 1135 q 1008 1050 939 1090 q 1153 926 1083 1007 q 1279 651 1246 818 q 1285 608 1285 626 q 1286 563 1286 596 l 1286 556 q 1261 386 1286 465 q 1201 251 1242 322 q 1188 231 1197 246 l 1179 219 q 1082 113 1140 161 q 933 22 1007 50 l 917 17 q 851 -6 875 0 q 785 -18 813 -14 q 708 -22 750 -22 q 481 22 583 -22 q 315 131 400 58 q 238 219 272 168 l 228 235 q 194 288 204 268 q 129 572 129 418 q 133 626 129 601 q 143 678 136 643 q 217 863 165 781 q 338 1000 264 936 q 440 1069 388 1043 q 636 1131 533 1115 q 671 1133 656 1133 l 704 1135 m 706 1018 q 681 1017 697 1018 l 667 1017 q 626 1011 654 1017 l 608 1007 q 553 992 579 1003 q 503 969 533 985 q 428 924 457 944 q 365 867 392 897 l 364 865 q 333 828 343 840 q 307 786 317 806 l 294 761 q 246 556 246 664 q 269 411 246 474 q 296 344 286 367 q 332 286 313 310 l 369 240 q 425 190 388 218 q 547 121 478 150 q 569 114 553 118 l 582 111 q 642 99 599 106 l 649 97 q 694 93 674 93 q 760 96 736 93 q 817 106 790 99 l 851 115 q 896 133 868 119 l 915 142 q 942 157 929 147 q 957 165 944 160 l 967 171 q 979 181 971 174 l 986 186 q 1111 328 1053 231 q 1153 429 1129 357 q 1167 485 1164 461 q 1169 556 1169 508 q 1167 626 1169 603 q 1153 682 1164 650 l 1150 694 q 1143 717 1146 711 q 1074 839 1114 786 q 953 949 1031 897 q 883 983 918 972 l 871 989 q 851 996 857 994 q 706 1018 774 1018 m 533 788 q 478 739 494 788 q 476 550 476 733 l 478 369 q 494 341 483 351 q 522 325 504 331 l 703 324 q 892 325 886 324 l 908 331 q 928 348 919 335 q 940 378 938 361 q 933 408 942 394 q 908 433 919 429 q 880 440 893 439 q 824 440 867 440 l 676 440 l 803 567 q 933 702 925 689 q 940 733 942 715 q 928 763 938 750 q 908 781 919 776 q 856 781 874 792 q 719 650 842 772 l 593 524 l 593 628 q 592 740 593 735 q 533 788 576 788 z "},"":{"ha":1403,"x_min":0,"x_max":1056,"o":"m 997 903 q 967 894 983 903 q 719 650 961 892 l 478 408 l 478 596 q 476 782 478 681 l 476 793 q 459 830 476 815 q 420 844 442 844 q 383 833 399 844 q 364 804 368 822 q 361 761 363 797 l 361 253 l 364 246 q 378 225 371 232 q 399 211 385 218 l 406 208 l 914 208 q 957 211 951 210 q 986 230 975 215 q 997 267 997 244 q 982 306 997 290 q 947 324 971 315 q 750 325 942 325 l 561 325 l 803 567 q 1047 815 1039 803 q 1056 846 1056 832 q 1039 887 1056 871 q 997 903 1022 903 z "},"":{"ha":1403,"x_min":0,"x_max":1288,"o":"m 704 1135 q 874 1110 793 1135 q 1008 1050 939 1090 q 1153 926 1083 1007 q 1279 651 1246 818 q 1285 608 1285 626 q 1286 563 1286 596 l 1286 556 q 1261 386 1286 465 q 1201 251 1242 322 q 1188 231 1197 246 l 1179 219 q 1082 113 1140 161 q 933 22 1007 50 l 917 17 q 851 -6 875 0 q 785 -18 813 -14 q 708 -22 750 -22 q 481 22 583 -22 q 315 131 400 58 q 238 219 272 168 l 228 235 q 194 288 204 268 q 129 572 129 418 q 133 626 129 601 q 143 678 136 643 q 217 863 165 781 q 338 1000 264 936 q 440 1069 388 1043 q 636 1131 533 1115 q 671 1133 656 1133 l 704 1135 m 706 1018 q 681 1017 697 1018 l 667 1017 q 626 1011 654 1017 l 608 1007 q 553 992 579 1003 q 503 969 533 985 q 428 924 457 944 q 365 867 392 897 l 364 865 q 333 828 343 840 q 307 786 317 806 l 294 761 q 246 556 246 664 q 269 411 246 474 q 296 344 286 367 q 332 286 313 310 l 369 240 q 425 190 388 218 q 547 121 478 150 q 569 114 553 118 l 582 111 q 642 99 599 106 l 649 97 q 694 93 674 93 q 760 96 736 93 q 817 106 790 99 l 851 115 q 896 133 868 119 l 915 142 q 942 157 929 147 q 957 165 944 160 l 967 171 q 979 181 971 174 l 986 186 q 1111 328 1053 231 q 1153 429 1129 357 q 1167 485 1164 461 q 1169 556 1169 508 q 1167 626 1169 603 q 1153 682 1164 650 l 1150 694 q 1143 717 1146 711 q 1074 839 1114 786 q 953 949 1031 897 q 883 983 918 972 l 871 989 q 851 996 857 994 q 706 1018 774 1018 m 533 788 q 490 767 508 788 q 478 719 472 746 l 478 717 q 483 703 481 707 q 614 567 492 689 l 740 440 l 636 440 q 524 439 529 440 q 489 417 501 432 q 478 372 472 397 q 508 331 485 347 q 521 326 511 329 l 525 325 q 714 324 531 324 l 894 325 q 923 341 913 331 q 939 369 933 351 l 940 550 q 939 739 940 733 q 908 781 928 774 q 856 781 874 792 q 825 740 833 765 q 824 628 824 735 l 824 524 l 590 756 q 561 781 567 779 l 557 782 q 533 788 542 788 z "},"":{"ha":1403,"x_min":0,"x_max":1056,"o":"m 418 903 q 377 886 393 903 q 361 846 361 869 q 369 815 361 832 q 614 567 374 810 l 856 325 l 667 325 q 469 324 475 325 q 435 306 444 315 q 419 268 419 292 q 431 230 419 244 q 460 211 442 215 q 503 208 465 210 l 1011 208 l 1018 211 q 1039 225 1032 218 q 1053 246 1046 232 l 1056 253 l 1056 761 q 1053 804 1054 799 q 1034 833 1049 822 q 997 844 1019 844 q 946 811 963 844 q 940 793 940 800 l 940 782 q 939 596 939 681 l 939 408 l 697 650 q 449 894 461 886 q 418 903 432 903 z "},"":{"ha":1403,"x_min":0,"x_max":1117,"o":"m 711 1018 q 671 1006 685 1018 q 651 971 660 994 q 650 628 650 967 l 650 292 l 522 418 q 389 549 397 543 q 361 556 375 556 q 324 542 338 556 q 304 507 310 529 q 304 488 303 499 q 310 471 306 476 q 492 283 315 460 q 683 99 669 107 q 708 92 693 92 q 733 99 724 92 q 924 283 747 107 q 1107 471 1101 460 q 1113 507 1117 489 l 1107 524 q 1088 547 1103 538 q 1056 556 1074 556 q 1028 549 1042 556 q 894 418 1019 543 l 767 292 l 767 628 q 765 971 767 965 q 752 996 760 986 q 732 1014 744 1006 l 731 1014 q 711 1018 722 1018 z "},"":{"ha":1403,"x_min":0,"x_max":1171,"o":"m 500 903 q 381 886 431 903 q 294 838 340 871 q 243 783 274 822 l 235 772 q 200 703 213 744 q 188 614 188 661 q 303 382 188 474 q 431 328 357 339 l 447 325 l 710 324 l 972 324 l 903 254 q 847 197 861 213 q 831 176 833 182 q 831 124 819 142 q 858 97 836 111 q 874 94 864 94 l 890 94 q 906 97 899 94 q 1041 226 922 107 q 1167 358 1160 346 q 1169 374 1169 365 l 1169 390 q 1167 406 1169 399 q 1038 541 1157 422 q 906 667 918 660 q 890 669 899 669 l 882 669 q 858 667 865 669 q 843 656 851 664 q 825 604 819 632 l 831 588 q 847 567 833 582 q 903 510 861 553 l 972 440 l 717 440 q 449 442 460 440 q 322 536 361 460 q 308 571 313 557 q 304 614 304 588 q 311 663 304 635 l 314 671 q 347 729 322 701 q 400 768 369 753 q 439 783 425 781 q 496 788 453 786 l 550 789 q 592 836 582 800 q 592 854 593 846 l 586 871 q 572 889 583 881 q 550 901 561 897 q 500 903 544 903 z "},"":{"ha":1403,"x_min":0,"x_max":1288,"o":"m 360 788 q 398 774 383 788 q 418 739 413 761 q 418 719 419 729 q 413 703 417 708 q 378 665 408 697 l 329 614 l 950 614 l 956 628 q 1013 699 974 672 q 1111 728 1054 728 q 1183 715 1154 728 q 1234 680 1210 704 q 1271 629 1258 656 q 1286 556 1286 597 q 1246 440 1286 485 q 1144 385 1210 401 q 1114 383 1139 383 l 1113 383 q 1081 385 1089 383 q 1057 392 1068 386 l 1042 399 q 1021 408 1028 404 q 956 483 972 440 l 950 497 l 329 497 l 378 446 q 413 408 408 414 q 419 378 421 396 q 408 348 417 361 q 388 331 399 335 q 335 330 353 319 q 229 430 318 340 q 136 529 140 519 l 135 532 q 131 565 128 553 l 136 582 q 233 685 140 593 q 333 781 325 776 q 360 788 343 788 m 1119 613 l 1106 613 q 1073 596 1088 613 q 1056 556 1058 579 q 1069 518 1054 533 q 1088 504 1079 508 q 1114 499 1099 499 q 1147 510 1133 499 q 1167 533 1156 515 q 1169 556 1169 540 q 1164 582 1169 572 q 1151 597 1161 589 l 1146 603 q 1134 610 1142 607 q 1119 613 1126 613 z "},"":{"ha":1403,"x_min":0,"x_max":1171,"o":"m 650 961 q 644 961 649 961 l 639 960 q 622 954 632 960 q 436 772 613 949 q 251 581 260 594 q 244 556 244 571 q 251 531 244 540 q 436 340 260 517 q 624 157 613 163 q 669 154 643 143 q 701 181 693 164 q 708 208 708 194 q 701 236 708 222 q 571 369 696 244 l 444 497 l 781 497 q 1124 499 1118 497 q 1149 512 1139 504 q 1167 532 1158 519 q 1169 547 1169 538 l 1169 556 q 1157 594 1169 581 q 1124 613 1147 604 q 781 614 1118 614 l 444 614 l 571 742 q 701 875 696 867 q 708 903 708 889 q 694 940 708 926 q 661 960 683 953 q 650 961 657 961 z "},"":{"ha":1403,"x_min":0,"x_max":999,"o":"m 711 1018 q 651 974 667 1018 q 650 629 650 967 l 650 292 l 581 361 q 524 417 539 404 q 503 433 508 431 q 450 433 468 444 q 428 414 438 426 q 419 384 419 401 q 428 350 419 367 q 551 225 431 344 q 682 99 671 106 q 708 92 693 92 q 734 99 724 92 q 865 226 744 106 q 992 357 986 347 l 993 361 q 997 383 997 369 q 992 407 997 397 q 979 424 989 414 q 931 439 958 444 l 914 433 q 894 417 908 431 q 836 361 879 404 l 767 292 l 767 810 q 767 944 768 921 q 758 989 765 968 q 733 1014 756 999 l 731 1014 q 711 1018 722 1018 z "},"":{"ha":1403,"x_min":0,"x_max":1171,"o":"m 536 844 q 519 843 525 844 q 504 836 513 842 l 503 836 q 378 713 497 833 q 251 582 258 593 q 244 556 244 571 q 251 529 244 540 q 378 398 258 518 q 503 275 497 278 q 538 267 519 267 q 592 315 579 267 q 592 333 593 325 l 586 350 q 570 371 583 356 q 514 428 557 386 l 444 497 l 782 497 q 1126 499 1119 497 q 1157 517 1147 506 q 1169 556 1169 532 q 1157 594 1169 581 q 1126 613 1147 606 q 782 614 1119 614 l 444 614 l 514 683 q 570 741 557 726 q 586 761 583 756 q 586 814 597 796 q 567 836 579 828 q 536 844 554 844 z "},"":{"ha":1403,"x_min":0,"x_max":1172,"o":"m 883 844 q 857 839 867 844 q 839 825 850 836 q 826 804 831 817 q 825 778 822 792 l 831 761 q 847 741 833 756 q 903 683 861 726 l 972 614 l 454 614 q 319 614 343 615 q 275 606 296 613 q 250 581 265 603 l 250 579 q 247 564 247 574 l 247 556 q 260 518 247 532 q 290 500 269 507 q 635 497 304 497 l 972 497 l 903 428 q 847 371 861 386 q 831 350 833 356 q 831 297 819 315 q 858 271 836 285 q 867 267 864 268 l 882 267 l 896 267 q 906 272 900 268 q 1014 375 913 275 l 1161 522 q 1171 556 1171 532 q 1161 589 1171 579 l 1035 715 q 906 840 917 835 q 883 844 896 844 z "},"":{"ha":1403,"x_min":0,"x_max":997,"o":"m 713 1018 q 708 1018 711 1018 q 694 1017 699 1018 q 683 1013 689 1017 q 551 886 671 1006 q 428 761 431 767 q 419 727 419 744 q 428 697 419 710 q 450 678 436 685 q 503 678 468 667 q 524 694 508 681 q 581 750 539 708 l 650 819 l 650 301 q 650 167 649 190 q 658 122 651 143 q 683 97 661 113 l 685 97 q 700 94 690 94 l 708 94 q 747 107 733 94 q 765 140 757 117 q 767 483 767 146 l 767 819 l 836 750 q 894 694 879 708 q 914 678 908 681 q 965 676 942 668 q 980 688 972 679 q 992 704 988 696 l 993 706 q 997 715 996 711 q 997 729 997 719 l 997 743 q 992 753 996 747 q 889 861 989 760 l 742 1008 q 729 1015 738 1013 q 713 1018 721 1018 z "},"":{"ha":1403,"x_min":0,"x_max":1289,"o":"m 1054 788 q 1078 782 1063 788 l 1082 781 q 1184 684 1090 778 q 1281 582 1278 590 l 1282 579 q 1286 546 1289 558 l 1281 529 q 1184 427 1278 521 q 1082 331 1090 333 q 1029 331 1047 319 q 1001 363 1011 343 q 1004 408 990 388 q 1039 446 1008 414 l 1088 497 l 467 497 l 461 483 q 406 415 446 446 q 363 392 383 399 q 303 383 338 383 q 258 387 275 383 q 224 401 242 390 q 158 460 179 428 q 131 556 131 499 q 139 611 131 588 q 160 651 144 625 l 165 660 q 206 699 175 675 q 249 721 225 714 q 306 728 272 728 q 378 714 347 728 q 428 676 403 701 q 461 628 451 653 l 467 614 l 1088 614 l 1039 665 q 1004 703 1008 697 q 997 729 997 713 q 1004 756 997 746 q 1024 778 1014 771 q 1054 788 1038 788 m 308 613 l 294 613 q 261 595 275 613 q 247 556 247 578 q 251 533 247 542 q 263 515 254 524 q 294 499 279 499 l 311 499 q 344 515 329 499 q 360 555 358 532 q 347 593 363 578 q 308 613 328 613 z "},"":{"ha":1403,"x_min":0,"x_max":1172,"o":"m 769 960 q 725 944 742 960 q 708 903 708 929 q 715 875 708 889 q 846 742 721 867 l 972 614 l 636 614 q 293 613 299 614 q 268 599 278 607 q 250 579 258 592 q 247 564 247 574 l 247 556 q 260 517 247 531 q 293 499 269 507 q 636 497 299 497 l 972 497 l 846 369 q 715 236 721 244 q 708 208 708 222 q 717 176 708 190 q 740 157 726 161 l 757 151 q 793 157 775 147 q 981 340 804 163 q 1165 531 1157 517 q 1172 556 1172 540 q 1165 581 1172 571 q 981 770 1158 593 q 797 951 804 947 l 796 951 q 769 960 781 960 z "},"":{"ha":1403,"x_min":0,"x_max":1288,"o":"m 719 1133 q 768 1132 757 1133 q 1153 926 1001 1103 q 1279 651 1246 818 q 1285 608 1285 626 q 1286 563 1286 596 l 1286 556 q 1271 415 1286 481 q 1228 300 1257 357 q 1133 163 1185 214 l 1101 131 q 1007 60 1063 92 q 875 1 939 21 q 708 -22 797 -22 q 642 -21 663 -22 q 583 -10 611 -18 l 572 -7 q 511 13 531 6 q 453 36 481 22 q 315 131 367 79 l 283 163 q 232 228 260 186 q 160 369 183 300 q 131 556 131 456 q 140 664 131 614 q 165 756 147 703 l 167 761 q 176 786 174 779 l 194 822 q 371 1025 254 942 q 621 1128 488 1108 q 681 1133 660 1133 l 719 1133 m 706 1018 q 678 1017 696 1018 l 665 1017 q 607 1008 639 1017 q 554 992 589 1004 l 538 986 q 425 921 492 971 q 315 800 367 878 q 260 667 285 754 q 246 556 246 618 q 253 479 246 515 q 268 413 257 451 q 275 393 269 407 l 281 381 q 318 306 293 343 q 368 243 333 283 l 369 240 q 425 190 388 218 q 483 153 449 172 q 547 121 517 135 q 569 114 553 118 l 582 111 q 642 99 599 106 l 649 97 q 694 93 674 93 q 886 128 799 93 q 1124 350 1035 188 q 1139 386 1129 361 l 1143 394 q 1150 417 1146 400 l 1153 429 q 1165 489 1158 446 l 1167 496 q 1171 542 1171 521 q 1165 628 1171 592 q 1147 700 1160 665 q 1115 774 1131 744 q 1075 838 1097 810 q 953 949 1024 901 q 819 1004 907 979 q 706 1018 771 1018 m 713 844 q 708 844 711 844 q 694 844 699 844 q 683 839 689 843 q 551 713 671 832 q 428 588 431 593 q 419 553 419 571 q 468 499 419 511 q 486 499 478 497 l 503 504 q 524 521 508 507 q 581 576 539 535 l 650 646 l 650 483 q 651 314 650 318 q 665 289 657 299 q 685 271 672 279 q 693 267 690 268 l 708 267 q 747 281 732 267 q 765 314 758 292 q 767 483 767 318 l 767 646 l 836 576 q 894 521 879 535 q 914 504 908 507 q 967 504 949 493 q 993 532 979 510 q 997 540 996 538 l 997 556 l 997 571 q 993 580 996 575 q 949 626 990 585 l 742 835 q 729 842 738 839 q 713 844 721 844 z "},"":{"ha":1403,"x_min":0,"x_max":1288,"o":"m 704 1135 q 874 1110 793 1135 q 1008 1050 939 1090 q 1153 926 1083 1007 q 1279 651 1246 818 q 1285 608 1285 626 q 1286 563 1286 596 l 1286 556 q 1261 386 1286 465 q 1201 251 1242 322 q 1188 231 1197 246 l 1179 219 q 1082 113 1140 161 q 933 22 1007 50 l 917 17 q 851 -6 875 0 q 785 -18 813 -14 q 708 -22 750 -22 q 481 22 583 -22 q 315 131 400 58 q 238 219 272 168 l 228 235 q 194 288 204 268 q 129 572 129 418 q 133 626 129 601 q 143 678 136 643 q 217 863 165 781 q 338 1000 264 936 q 440 1069 388 1043 q 636 1131 533 1115 q 671 1133 656 1133 l 704 1135 m 706 1018 q 681 1017 697 1018 l 667 1017 q 626 1011 654 1017 l 608 1007 q 553 992 579 1003 q 503 969 533 985 q 428 924 457 944 q 365 867 392 897 l 364 865 q 333 828 343 840 q 307 786 317 806 l 294 761 q 246 556 246 664 q 269 411 246 474 q 296 344 286 367 q 332 286 313 310 l 369 240 q 425 190 388 218 q 547 121 478 150 q 569 114 553 118 l 582 111 q 642 99 599 106 l 649 97 q 694 93 674 93 q 760 96 736 93 q 817 106 790 99 l 851 115 q 896 133 868 119 l 915 142 q 942 157 929 147 q 957 165 944 160 l 967 171 q 979 181 971 174 l 986 186 q 1111 328 1053 231 q 1153 429 1129 357 q 1167 485 1164 461 q 1169 556 1169 508 q 1167 626 1169 603 q 1153 682 1164 650 l 1150 694 q 1143 717 1146 711 q 1074 839 1114 786 q 953 949 1031 897 q 883 983 918 972 l 871 989 q 851 996 857 994 q 706 1018 774 1018 m 707 788 q 519 785 533 788 q 494 770 503 779 q 479 744 485 761 q 476 557 476 731 q 478 371 476 376 q 500 336 485 349 q 544 325 519 319 q 574 340 564 329 q 592 371 585 351 q 593 483 593 376 l 593 588 l 719 461 q 856 330 842 339 q 891 326 869 321 q 923 341 913 331 q 939 371 933 351 q 935 408 944 393 q 803 544 925 422 l 676 671 l 824 671 q 880 672 867 671 q 908 678 893 672 q 928 695 919 682 q 940 725 938 708 q 933 756 942 742 q 908 781 919 776 l 893 786 q 707 788 888 788 z "},"":{"ha":1403,"x_min":0,"x_max":1057,"o":"m 678 903 l 408 903 q 365 867 374 893 l 361 858 l 361 350 q 364 307 363 314 q 383 278 368 289 q 419 267 399 267 q 471 300 454 267 q 476 318 476 311 l 476 329 q 478 515 478 431 l 478 703 l 719 461 q 968 217 956 225 q 999 208 985 208 q 1040 225 1024 208 q 1056 265 1056 242 q 1047 296 1056 279 q 803 544 1039 308 l 561 786 l 750 786 q 947 788 942 786 q 982 806 972 796 q 997 843 997 819 q 986 881 997 867 q 957 900 975 896 q 914 903 951 901 l 678 903 z "},"":{"ha":1403,"x_min":0,"x_max":1288,"o":"m 704 1135 q 874 1110 793 1135 q 1008 1050 939 1090 q 1153 926 1083 1007 q 1279 651 1246 818 q 1285 608 1285 626 q 1286 563 1286 596 l 1286 556 q 1261 386 1286 465 q 1201 251 1242 322 q 1188 231 1197 246 l 1179 219 q 1082 113 1140 161 q 933 22 1007 50 l 917 17 q 851 -6 875 0 q 785 -18 813 -14 q 708 -22 750 -22 q 481 22 583 -22 q 315 131 400 58 q 238 219 272 168 l 228 235 q 194 288 204 268 q 129 572 129 418 q 133 626 129 601 q 143 678 136 643 q 217 863 165 781 q 338 1000 264 936 q 440 1069 388 1043 q 636 1131 533 1115 q 671 1133 656 1133 l 704 1135 m 706 1018 q 681 1017 697 1018 l 667 1017 q 626 1011 654 1017 l 608 1007 q 553 992 579 1003 q 503 969 533 985 q 428 924 457 944 q 365 867 392 897 l 364 865 q 333 828 343 840 q 307 786 317 806 l 294 761 q 246 556 246 664 q 269 411 246 474 q 296 344 286 367 q 332 286 313 310 l 369 240 q 425 190 388 218 q 547 121 478 150 q 569 114 553 118 l 582 111 q 642 99 599 106 l 649 97 q 694 93 674 93 q 760 96 736 93 q 817 106 790 99 l 851 115 q 896 133 868 119 l 915 142 q 942 157 929 147 q 957 165 944 160 l 967 171 q 979 181 971 174 l 986 186 q 1111 328 1053 231 q 1153 429 1129 357 q 1167 485 1164 461 q 1169 556 1169 508 q 1167 626 1169 603 q 1153 682 1164 650 l 1150 694 q 1143 717 1146 711 q 1074 839 1114 786 q 953 949 1031 897 q 883 983 918 972 l 871 989 q 851 996 857 994 q 706 1018 774 1018 m 711 788 q 615 788 671 788 q 540 788 556 789 q 507 781 524 786 q 488 763 496 776 q 477 732 479 749 q 483 703 475 715 q 524 672 499 681 q 636 671 529 671 l 740 671 l 614 544 q 483 408 492 422 q 476 382 476 399 q 483 356 476 365 q 544 325 508 318 l 561 331 q 625 392 567 332 l 824 588 l 824 483 q 825 371 824 376 q 847 336 832 349 q 892 325 867 319 q 922 341 911 331 q 939 372 932 351 q 940 561 940 378 l 939 742 q 923 770 933 760 q 894 786 913 781 l 711 788 z "},"":{"ha":1403,"x_min":0,"x_max":1056,"o":"m 739 903 l 467 903 q 433 883 444 896 q 419 845 419 869 q 435 806 419 821 q 469 788 446 796 q 667 786 475 786 l 856 786 l 614 544 q 369 296 374 301 q 361 265 361 279 q 378 224 361 240 q 418 208 394 208 q 449 217 432 208 q 697 461 461 225 l 939 703 l 939 515 q 940 329 939 431 l 940 318 q 958 281 940 296 q 997 267 975 267 q 1033 278 1018 267 q 1053 307 1049 289 q 1056 350 1054 313 l 1056 858 l 1053 865 q 1039 886 1046 879 q 1018 900 1032 893 l 1011 903 l 739 903 z "},"":{"ha":1403,"x_min":0,"x_max":1119,"o":"m 713 1018 q 708 1018 711 1018 q 694 1017 699 1018 q 683 1013 689 1017 q 492 828 669 1004 q 310 640 315 651 q 304 604 300 622 l 310 588 q 328 565 314 574 q 361 556 343 556 q 389 563 375 556 q 522 693 397 568 l 650 819 l 650 483 q 651 140 650 146 q 665 115 657 125 q 685 97 672 106 q 700 94 690 94 l 708 94 q 747 107 733 94 q 765 140 757 117 q 767 483 767 146 l 767 819 l 894 693 q 1028 563 1019 568 q 1056 556 1042 556 q 1103 581 1088 556 q 1108 638 1118 607 q 1076 674 1107 643 l 742 1008 q 729 1015 738 1013 q 713 1018 721 1018 z "},"":{"ha":1403,"x_min":0,"x_max":1228,"o":"m 303 772 q 281 742 293 751 q 242 729 265 729 q 208 743 222 729 q 189 772 199 753 l 188 900 q 190 1035 188 1021 q 204 1060 196 1051 q 228 1074 213 1068 q 254 1076 233 1075 l 364 1076 l 492 1075 q 521 1056 511 1065 q 535 1022 535 1042 q 522 983 535 999 q 492 961 513 971 l 386 961 l 631 715 q 644 697 642 703 l 646 694 q 650 672 650 685 q 634 630 650 646 q 592 614 618 614 q 569 618 579 614 l 567 619 q 549 633 561 622 l 303 878 l 303 772 m 826 497 q 792 488 804 497 q 772 464 783 482 l 771 463 q 767 453 768 457 l 767 439 q 771 417 767 426 l 772 414 q 786 396 775 408 l 1031 150 l 925 150 q 894 128 904 139 q 882 89 882 113 q 896 56 882 69 q 925 36 906 46 l 1186 36 q 1228 78 1217 46 l 1228 339 q 1208 368 1218 358 q 1175 382 1194 382 q 1136 369 1151 382 q 1114 339 1124 360 l 1114 233 l 868 478 q 849 492 856 489 q 839 497 843 496 q 826 497 835 497 z "},"":{"ha":1403,"x_min":0,"x_max":1228,"o":"m 925 961 q 894 983 904 971 q 882 1024 882 999 q 913 1069 882 1049 q 942 1076 922 1075 q 996 1078 954 1078 l 1186 1075 q 1228 1033 1217 1065 l 1228 772 q 1208 743 1218 753 q 1175 729 1194 729 q 1136 742 1151 729 q 1114 772 1124 751 l 1114 878 l 868 633 q 850 619 856 622 l 847 618 q 825 614 838 614 q 783 630 799 614 q 767 672 767 646 q 771 694 767 685 l 772 697 q 786 715 775 703 l 1031 961 l 925 961 m 594 497 q 576 496 582 497 q 563 489 571 494 q 429 360 550 481 l 303 233 l 303 339 q 281 369 292 360 q 242 382 265 382 q 208 368 222 382 q 189 339 199 358 l 188 211 q 190 76 188 90 q 229 38 200 47 q 364 35 243 35 l 492 36 q 521 56 511 46 q 535 89 535 69 q 522 128 535 113 q 492 150 513 140 l 386 150 l 631 396 q 644 414 642 408 l 646 417 q 650 439 650 426 q 617 492 650 475 q 606 497 610 496 q 594 497 603 497 z "},"":{"ha":1403,"x_min":0,"x_max":1228,"o":"m 303 772 q 281 742 293 751 q 242 729 265 729 q 208 743 222 729 q 189 772 199 753 l 188 900 q 190 1035 188 1021 q 204 1060 196 1051 q 228 1074 213 1068 q 254 1076 233 1075 l 364 1076 l 492 1075 q 521 1056 511 1065 q 535 1022 535 1042 q 522 983 535 999 q 492 961 513 971 l 386 961 l 631 715 q 644 697 642 703 l 646 694 q 650 672 650 685 q 634 630 650 646 q 592 614 618 614 q 569 618 579 614 l 567 619 q 549 633 561 622 l 303 878 l 303 772 m 925 961 q 894 983 904 971 q 882 1024 882 999 q 913 1069 882 1049 q 942 1076 922 1075 q 996 1078 954 1078 l 1186 1075 q 1228 1033 1217 1065 l 1228 772 q 1208 743 1218 753 q 1175 729 1194 729 q 1136 742 1151 729 q 1114 772 1124 751 l 1114 878 l 868 633 q 850 619 856 622 l 847 618 q 825 614 838 614 q 783 630 799 614 q 767 672 767 646 q 771 694 767 685 l 772 697 q 786 715 775 703 l 1031 961 l 925 961 m 242 382 q 281 369 265 382 q 303 339 293 360 l 303 233 l 429 360 q 563 489 550 481 q 576 496 571 494 q 594 497 582 497 q 634 481 618 497 q 650 439 650 464 q 646 417 650 426 l 644 414 q 631 396 642 408 l 386 150 l 492 150 q 522 128 513 140 q 535 89 535 113 q 521 56 535 69 q 492 36 511 46 l 364 35 q 229 38 243 35 q 190 76 200 47 q 188 211 188 90 l 189 339 q 208 368 199 358 q 242 382 222 382 m 826 497 q 792 488 804 497 q 772 464 783 482 l 771 463 q 767 453 768 457 l 767 439 q 771 417 767 426 l 772 414 q 786 396 775 408 l 1031 150 l 925 150 q 894 128 904 139 q 882 89 882 113 q 896 56 882 69 q 925 36 906 46 l 1186 36 q 1228 78 1217 46 l 1228 339 q 1208 368 1218 358 q 1175 382 1194 382 q 1136 369 1151 382 q 1114 339 1124 360 l 1114 233 l 868 478 q 849 492 856 489 q 839 497 843 496 q 826 497 835 497 z "},"":{"ha":1403,"x_min":0,"x_max":1292,"o":"m 186 1135 q 210 1129 194 1135 l 214 1128 q 243 1103 219 1126 l 476 871 l 476 918 q 477 961 476 953 q 482 981 478 969 l 485 989 q 510 1014 488 999 l 511 1014 q 526 1017 517 1017 l 535 1017 q 574 1004 560 1017 q 592 972 585 994 q 593 840 593 967 q 592 732 593 757 q 589 708 592 714 l 589 708 q 556 675 581 683 l 556 675 q 532 672 550 672 q 424 671 507 671 q 292 672 297 671 q 268 685 278 676 q 250 706 258 693 q 247 721 247 711 l 247 729 q 260 767 247 753 q 290 785 269 778 q 346 788 304 788 l 393 788 l 267 914 q 136 1050 144 1036 q 129 1076 129 1060 q 136 1103 129 1093 q 156 1125 146 1118 q 186 1135 169 1135 m 1228 1135 q 1266 1122 1251 1135 q 1286 1086 1281 1108 q 1286 1066 1288 1076 q 1281 1050 1285 1056 q 1150 914 1272 1036 l 1024 788 l 1099 788 q 1123 787 1117 788 q 1140 781 1129 786 q 1169 729 1169 767 q 1157 690 1169 704 q 1124 672 1146 679 q 993 671 1119 671 q 885 672 910 671 q 861 675 867 672 l 861 675 q 828 708 836 683 l 828 708 q 825 732 825 714 q 824 840 824 757 q 825 972 824 967 q 838 996 829 986 q 858 1014 846 1006 q 874 1017 864 1017 l 882 1017 q 919 1004 906 1017 q 938 974 931 994 q 940 918 940 960 l 940 871 l 1171 1100 q 1201 1128 1196 1126 q 1228 1135 1213 1135 m 422 440 q 532 439 507 440 q 556 436 550 439 l 556 436 q 589 403 581 428 l 589 403 q 592 379 592 397 q 593 271 593 354 q 592 139 593 144 q 579 115 588 125 q 558 97 571 106 q 543 94 553 94 l 535 94 q 497 107 511 94 q 479 138 486 117 q 476 193 476 151 l 476 240 l 278 44 q 214 -17 219 -15 q 161 -16 179 -28 q 133 15 143 -4 q 136 61 122 40 q 267 197 144 75 l 393 324 l 346 324 q 303 324 311 324 q 283 329 294 325 l 275 332 q 250 357 265 335 l 250 358 q 247 374 247 364 l 247 382 q 258 418 247 406 q 289 438 268 431 q 422 440 303 440 m 997 440 q 867 438 881 440 q 841 423 850 432 q 826 397 832 414 q 824 267 824 383 l 824 208 q 824 153 824 164 q 831 128 825 143 l 832 122 q 857 97 835 113 l 858 97 q 874 94 864 94 l 882 94 q 919 107 906 94 q 938 138 931 117 q 940 193 940 151 l 940 240 l 1067 114 q 1203 -17 1189 -8 q 1238 -22 1217 -26 q 1270 -6 1260 -17 q 1286 24 1281 4 q 1282 60 1292 46 q 1150 197 1272 75 l 1024 324 l 1099 324 q 1123 324 1117 324 q 1140 331 1129 325 q 1169 382 1169 346 q 1157 421 1169 407 q 1126 439 1147 432 q 997 440 1119 440 z "},"":{"ha":1403,"x_min":0,"x_max":1293,"o":"m 476 1135 q 513 1121 499 1135 q 533 1092 524 1113 l 535 1051 q 532 1003 535 1017 q 499 965 522 974 l 494 964 q 485 961 488 961 l 468 961 q 436 978 449 961 q 419 1011 425 990 q 418 1047 418 1017 q 427 1106 418 1088 q 464 1133 436 1124 q 476 1135 468 1135 m 939 1135 q 982 1115 963 1135 q 996 1089 993 1104 q 999 1047 999 1078 q 996 1006 999 1017 q 981 978 993 990 q 949 961 964 961 l 932 961 q 901 975 915 961 q 885 1003 890 986 q 882 1051 882 1017 l 883 1092 q 899 1117 892 1110 q 925 1132 908 1126 q 939 1135 933 1135 m 215 846 q 258 843 246 846 q 286 828 274 840 q 303 796 303 811 l 303 779 q 289 749 303 761 q 261 732 279 738 q 213 729 247 729 l 172 731 q 151 743 158 738 q 136 761 139 751 l 131 778 q 149 829 125 806 q 179 844 164 844 l 215 846 m 717 846 q 874 845 847 846 q 907 843 901 844 q 926 836 918 840 l 946 826 q 964 811 951 824 q 979 793 976 799 l 989 774 q 996 753 993 767 q 997 681 997 746 l 997 431 q 996 358 997 365 q 989 338 993 344 l 979 318 q 964 300 976 313 q 946 285 951 288 l 926 275 q 906 268 919 272 q 833 267 899 267 l 583 267 q 511 268 518 267 q 453 300 476 276 q 438 318 440 313 l 428 338 q 421 358 425 344 q 419 431 419 365 l 419 681 q 421 753 419 746 q 428 774 425 767 l 438 793 q 506 842 453 824 q 524 844 514 844 l 535 844 q 717 846 636 846 m 1114 796 q 1130 828 1114 813 q 1163 844 1146 844 l 1199 846 q 1260 836 1240 846 q 1286 796 1279 826 q 1286 778 1288 788 l 1281 761 q 1244 731 1275 743 l 1204 729 q 1156 732 1169 729 q 1118 765 1126 742 l 1117 769 q 1114 779 1114 776 l 1114 796 m 882 729 l 535 729 l 535 382 l 882 382 l 882 729 m 215 382 q 250 381 243 382 q 263 379 257 381 q 291 362 279 374 q 303 332 303 350 l 303 315 q 286 283 303 296 q 253 267 274 272 q 217 265 247 265 q 156 275 175 265 q 131 315 138 285 q 131 333 129 325 l 136 350 q 150 368 139 360 q 171 381 157 372 l 172 381 q 215 382 176 382 m 1203 382 l 1244 381 q 1281 350 1275 368 l 1286 333 q 1268 282 1292 306 q 1242 268 1257 271 q 1200 265 1231 265 q 1158 268 1169 265 q 1131 283 1143 271 q 1114 315 1114 300 l 1114 332 q 1126 361 1114 349 q 1154 379 1139 374 q 1167 382 1160 381 l 1203 382 m 483 150 q 515 138 501 150 q 532 110 528 126 q 535 96 533 104 l 535 60 l 533 19 q 521 -1 526 6 q 503 -17 513 -14 l 486 -22 q 435 -4 458 -28 q 421 22 424 7 q 418 64 418 33 q 424 115 418 100 q 451 144 431 131 l 456 146 q 468 150 465 150 l 483 150 m 944 150 l 931 150 q 901 136 915 150 q 885 108 890 125 q 882 60 882 94 l 883 19 q 896 -1 890 6 q 914 -17 904 -14 l 931 -22 q 982 -4 958 -28 q 996 22 993 7 q 999 64 999 33 q 992 119 999 101 q 958 147 982 139 q 944 150 950 150 z "},"":{"ha":1403,"x_min":0,"x_max":1289,"o":"m 1085 268 q 983 293 1026 268 q 918 353 953 311 q 893 333 911 350 l 882 324 q 747 269 832 283 q 708 267 728 267 q 601 286 650 267 q 522 333 561 301 q 428 483 456 388 q 419 556 419 513 q 428 624 419 590 q 447 679 433 644 q 499 754 463 718 l 506 761 q 522 778 518 774 q 604 826 564 811 q 717 844 654 844 q 769 838 743 844 l 788 833 q 858 803 829 825 l 868 797 q 882 788 878 790 q 964 690 938 743 q 991 617 985 647 q 997 517 997 586 l 997 482 q 998 454 997 460 q 1004 438 999 449 l 1008 429 q 1036 396 1018 408 q 1081 382 1056 382 q 1169 450 1150 382 l 1171 513 q 1168 592 1171 563 q 1160 651 1167 613 l 1157 667 q 1133 739 1151 700 q 1099 804 1122 763 l 1097 807 q 1015 903 1068 858 q 908 974 974 936 q 863 993 889 985 q 814 1007 847 999 l 800 1010 q 758 1017 779 1015 q 708 1018 740 1018 q 639 1015 668 1018 q 582 1001 610 1011 l 553 992 q 492 964 529 983 l 472 954 q 438 931 460 947 l 418 917 q 382 883 406 908 q 349 847 361 863 q 290 754 307 794 q 260 665 268 699 q 246 557 246 613 q 258 449 246 492 q 503 142 319 233 q 546 124 529 128 l 568 117 q 628 101 607 106 q 694 93 664 93 q 807 106 751 93 q 903 133 843 114 q 938 128 922 138 q 963 103 954 118 q 969 76 969 93 q 963 49 969 60 q 944 29 957 38 q 918 18 936 25 l 906 13 q 818 -13 863 -6 q 710 -21 774 -21 q 595 -13 640 -21 q 503 15 550 -6 q 319 129 394 61 q 190 300 240 201 q 136 469 149 383 l 135 479 q 129 542 129 517 q 153 715 129 635 q 213 854 172 785 q 340 1003 258 935 q 371 1026 360 1019 l 400 1046 q 497 1094 436 1069 q 597 1124 547 1114 q 717 1135 651 1135 q 788 1131 758 1135 q 847 1117 807 1128 l 850 1117 q 1025 1040 947 1093 q 1208 847 1138 965 q 1240 783 1232 807 l 1250 757 q 1265 714 1261 729 q 1283 617 1278 661 q 1288 503 1288 574 q 1286 451 1288 467 q 1283 431 1286 442 q 1150 278 1261 322 q 1123 269 1133 271 q 1085 268 1113 268 m 714 728 l 692 728 q 607 699 646 728 q 554 636 578 675 q 540 601 544 619 q 536 556 536 583 q 538 524 536 535 q 544 500 539 514 q 708 383 592 383 q 749 388 731 383 q 778 399 758 390 l 786 401 q 879 526 854 429 q 881 556 881 532 q 854 651 881 613 q 788 710 832 683 q 714 728 757 728 z "},"":{"ha":1403,"x_min":0,"x_max":1264,"o":"m 385 168 q 213 157 224 157 q 158 192 176 157 l 157 194 q 153 213 153 203 q 154 226 153 222 q 158 238 156 231 l 188 290 q 251 401 219 347 l 342 557 q 304 753 297 661 l 308 794 q 319 842 311 813 l 325 858 q 386 975 343 922 q 478 1063 422 1021 q 647 1129 543 1113 l 654 1131 q 676 1133 669 1133 l 706 1135 q 933 1065 836 1135 q 1000 1011 978 1033 q 1092 861 1057 954 q 1112 767 1107 821 q 1108 663 1117 714 q 1075 557 1100 613 l 1165 401 q 1258 238 1251 251 q 1263 226 1263 231 q 1264 214 1264 222 q 1247 173 1264 189 q 1206 157 1231 157 q 1074 165 1174 157 l 1032 168 l 993 88 l 958 19 q 945 -1 951 6 q 928 -12 939 -7 q 908 -17 918 -17 q 863 3 875 -17 l 708 265 q 603 83 665 194 q 553 2 563 13 q 535 -12 544 -8 q 508 -17 525 -17 q 488 -12 499 -17 q 471 0 478 -7 q 390 157 458 13 l 385 168 m 706 1018 q 685 1017 699 1018 l 675 1017 q 615 1001 654 1017 l 599 996 q 558 976 578 989 q 522 950 544 968 q 447 853 478 915 q 419 729 419 797 q 432 647 419 688 q 460 582 440 621 q 479 551 468 565 q 504 525 488 542 q 564 479 536 493 l 594 464 q 663 444 615 453 l 676 442 q 708 440 683 440 q 847 475 786 440 q 940 557 897 504 q 997 739 997 628 q 989 797 997 768 q 972 846 985 815 l 968 856 q 929 915 958 878 l 918 928 q 867 971 903 947 q 706 1018 796 1018 m 413 449 q 393 414 413 447 l 315 279 l 425 286 q 446 279 436 286 q 461 267 451 276 q 472 251 467 261 q 492 213 478 242 l 515 165 l 569 258 q 613 334 613 332 q 596 340 613 336 l 585 343 l 579 344 q 485 392 513 372 l 483 393 q 428 438 446 419 q 413 449 415 451 m 1003 449 q 983 432 996 444 l 968 418 q 888 365 929 385 q 815 339 846 344 q 804 334 804 336 q 901 165 804 332 l 901 165 l 925 213 q 944 251 939 242 q 956 267 950 261 q 971 279 965 276 q 992 286 981 286 l 1101 279 q 1008 439 1038 390 l 1003 449 z "},"":{"ha":1403,"x_min":0,"x_max":1288,"o":"m 858 961 q 1142 961 1097 961 q 1197 958 1192 960 l 1214 953 q 1259 922 1240 944 q 1285 871 1278 900 q 1286 850 1286 867 l 1286 261 q 1285 240 1286 244 q 1251 183 1275 204 q 1189 151 1228 161 l 861 150 q 525 151 531 150 l 521 153 q 508 157 511 156 q 344 315 492 167 q 199 464 203 457 q 175 503 182 486 q 167 556 167 524 q 175 608 167 588 q 199 647 182 625 q 349 800 204 654 q 507 954 497 950 q 518 958 510 956 l 522 960 q 858 961 528 961 m 1171 844 l 558 844 l 422 707 q 283 567 285 569 q 282 556 282 564 q 283 544 282 547 q 422 404 285 542 l 558 267 l 1171 267 l 1171 844 m 711 729 q 661 704 678 729 q 656 646 644 679 q 681 618 658 640 l 742 556 l 681 493 q 656 465 658 471 q 660 408 644 433 q 708 383 675 383 l 722 383 q 732 388 725 385 q 748 399 739 390 q 783 433 757 407 l 825 474 l 901 399 q 915 388 910 390 q 936 382 926 382 q 981 398 965 382 q 997 443 997 414 q 992 464 997 453 q 947 515 985 478 l 907 556 l 947 596 q 992 647 985 633 q 997 668 997 658 q 981 713 997 697 q 936 729 965 729 q 915 724 926 729 q 901 713 910 721 l 825 638 l 747 714 q 733 724 739 721 q 711 729 722 729 z "},"":{"ha":1403,"x_min":0,"x_max":1288,"o":"m 704 1135 q 874 1110 793 1135 q 1008 1050 939 1090 q 1153 926 1083 1007 q 1279 651 1246 818 q 1285 608 1285 626 q 1286 563 1286 596 l 1286 556 q 1261 386 1286 465 q 1201 251 1242 322 q 1188 231 1197 246 l 1179 219 q 1082 113 1140 161 q 933 22 1007 50 l 917 17 q 851 -6 875 0 q 785 -18 813 -14 q 708 -22 750 -22 q 481 22 583 -22 q 315 131 400 58 q 238 219 272 168 l 228 235 q 194 288 204 268 q 129 572 129 418 q 133 626 129 601 q 143 678 136 643 q 217 863 165 781 q 338 1000 264 936 q 440 1069 388 1043 q 636 1131 533 1115 q 671 1133 656 1133 l 704 1135 m 706 1018 q 681 1017 697 1018 l 667 1017 q 626 1011 654 1017 l 608 1007 q 454 942 539 996 l 450 939 q 425 921 429 925 q 1075 272 750 597 l 1090 296 q 1126 358 1117 335 q 1168 497 1160 435 q 1169 557 1169 511 q 1167 626 1169 603 q 1153 682 1164 650 l 1150 694 q 1143 717 1146 711 q 1074 839 1114 786 q 953 949 1031 897 q 883 983 918 972 l 871 989 q 851 996 857 994 q 706 1018 774 1018 m 667 514 l 342 839 l 332 825 q 306 782 321 811 l 296 765 q 267 693 282 742 l 260 669 q 246 556 246 628 q 269 411 246 474 q 296 344 286 367 q 332 286 313 310 l 369 240 q 425 190 388 218 q 547 121 478 150 q 569 114 553 118 l 582 111 q 642 99 599 106 l 649 97 q 694 93 674 93 q 760 96 736 93 q 817 106 790 99 l 851 115 q 896 133 868 119 l 915 142 q 942 157 929 147 q 960 168 946 161 q 983 183 978 178 l 990 189 l 667 514 z "},"":{"ha":1403,"x_min":0,"x_max":1229,"o":"m 333 208 q 189 356 213 239 l 189 756 q 231 843 204 817 q 267 875 251 864 q 314 897 290 892 l 333 901 q 678 903 342 903 q 1026 900 1004 903 q 1094 874 1067 892 q 1142 825 1121 856 l 1147 817 q 1163 786 1160 800 q 1172 724 1169 758 q 1206 702 1192 719 q 1226 663 1221 685 q 1229 556 1229 646 q 1226 447 1229 465 q 1210 413 1222 429 q 1183 392 1199 397 l 1172 388 l 1172 385 q 1168 344 1169 349 q 1118 257 1150 289 q 1025 211 1082 221 q 672 208 1000 208 l 333 208 m 1056 711 q 1044 760 1056 743 q 1014 786 1038 772 l 393 786 q 342 783 347 785 q 306 744 315 775 l 306 367 q 344 325 314 339 l 1014 325 q 1044 351 1038 339 q 1056 400 1056 368 q 1071 460 1056 439 q 1113 493 1082 475 l 1113 618 l 1104 622 q 1081 639 1089 631 q 1061 668 1067 653 q 1056 711 1056 683 m 422 729 q 384 719 397 729 q 364 688 371 708 q 361 556 361 674 q 364 424 361 438 q 424 382 378 382 q 451 392 439 382 q 471 414 464 401 q 475 426 472 418 l 476 432 q 478 556 478 436 q 479 621 478 582 q 478 678 481 664 q 459 713 475 697 q 422 729 443 729 z "},"":{"ha":1403,"x_min":0,"x_max":1229,"o":"m 333 208 q 189 356 213 239 l 189 756 l 192 765 q 206 807 199 796 l 218 828 q 239 851 222 835 l 244 857 q 260 871 256 868 l 275 879 q 304 894 293 890 q 339 901 322 901 l 342 901 q 678 903 508 903 q 1026 900 1004 903 q 1079 883 1057 894 q 1121 851 1101 871 q 1136 833 1125 847 l 1142 825 q 1164 781 1157 806 q 1172 724 1169 761 q 1206 702 1192 719 q 1226 663 1221 685 q 1229 556 1229 646 q 1226 447 1229 465 q 1210 413 1222 429 q 1183 392 1199 397 l 1172 388 l 1172 385 q 1168 344 1169 349 q 1118 257 1150 289 q 1025 211 1082 221 q 672 208 1000 208 l 333 208 m 1056 711 q 1044 760 1056 743 q 1014 786 1038 772 l 393 786 q 342 783 347 785 q 306 744 315 775 l 306 367 q 344 325 314 339 l 1014 325 q 1044 351 1038 339 q 1056 400 1056 368 q 1071 460 1056 439 q 1113 493 1082 475 l 1113 618 l 1104 622 q 1081 639 1089 631 q 1061 668 1067 653 q 1056 711 1056 683 m 422 729 q 451 720 439 729 q 471 697 464 711 q 475 685 472 693 l 476 679 q 478 556 478 675 q 479 490 478 529 q 478 433 481 447 q 460 399 475 414 q 443 387 453 392 q 424 382 433 382 q 364 424 378 382 q 361 556 361 438 q 364 688 361 674 q 422 729 378 729 m 596 729 q 558 719 571 729 q 538 688 544 708 q 535 556 535 674 q 538 424 535 438 q 597 382 551 382 q 625 392 613 382 q 644 414 638 401 q 649 426 646 418 l 650 432 q 651 556 651 436 q 653 621 651 582 q 651 678 654 664 q 633 713 649 697 q 596 729 617 729 z "},"":{"ha":1403,"x_min":0,"x_max":1229,"o":"m 679 903 q 1026 900 1004 903 q 1079 883 1057 894 q 1121 851 1101 871 q 1136 833 1125 847 l 1142 825 q 1164 781 1157 806 q 1172 724 1169 761 q 1206 702 1192 719 q 1226 663 1221 685 q 1229 556 1229 646 q 1228 450 1229 458 q 1204 407 1221 424 q 1181 390 1196 399 l 1172 386 l 1172 376 q 1169 358 1172 372 l 1168 353 q 1120 258 1157 294 q 1025 211 1083 221 q 672 208 1000 208 l 333 208 l 322 213 q 274 232 289 222 q 192 342 206 272 l 189 356 l 189 756 l 192 765 q 206 807 199 796 l 218 828 q 239 851 222 835 l 244 857 q 260 871 256 868 l 275 879 q 304 894 293 890 q 339 901 322 901 l 344 901 q 679 903 515 903 m 1056 711 q 1044 760 1056 743 q 1014 786 1038 772 l 393 786 q 342 783 347 785 q 306 744 315 775 l 306 367 q 344 325 314 339 l 1014 325 q 1044 351 1038 339 q 1056 400 1056 368 q 1071 460 1056 439 q 1113 493 1082 475 l 1113 618 l 1104 622 q 1081 639 1089 631 q 1061 668 1067 653 q 1056 711 1056 683 m 422 729 q 451 720 439 729 q 470 698 464 711 q 478 665 476 685 q 478 611 479 651 l 478 556 q 479 494 478 532 q 476 425 481 442 q 443 388 471 401 l 439 386 q 424 382 431 382 q 364 424 378 382 q 361 556 361 438 q 364 688 361 674 q 422 729 378 729 m 596 729 q 625 720 613 729 q 644 698 638 711 q 651 665 650 685 q 651 611 653 651 l 651 556 q 653 494 651 532 q 650 425 654 442 q 617 388 644 401 l 613 386 q 597 382 604 382 q 538 424 551 382 q 535 556 535 438 q 538 688 535 674 q 558 719 544 708 q 596 729 571 729 m 769 729 q 731 719 744 729 q 711 688 718 708 q 708 556 708 674 q 711 424 708 438 q 771 382 725 382 q 799 392 786 382 q 817 414 811 401 q 825 446 824 426 q 825 500 826 460 l 825 556 q 826 617 825 579 q 824 686 828 669 q 790 724 818 710 l 788 725 q 769 729 779 729 z "},"":{"ha":1403,"x_min":0,"x_max":1229,"o":"m 679 903 q 1026 900 1004 903 q 1079 883 1057 894 q 1121 851 1101 871 q 1136 833 1125 847 l 1142 825 q 1164 781 1157 806 q 1172 724 1169 761 q 1206 702 1192 719 q 1226 663 1221 685 q 1229 556 1229 646 q 1228 450 1229 458 q 1204 407 1221 424 q 1181 390 1196 399 l 1172 386 l 1172 376 q 1169 358 1172 372 l 1168 353 q 1120 258 1157 294 q 1025 211 1083 221 q 672 208 1000 208 l 333 208 l 322 213 q 274 232 289 222 q 192 342 206 272 l 189 356 l 189 756 l 192 765 q 206 807 199 796 l 218 828 q 239 851 222 835 l 244 857 q 260 871 256 868 l 275 879 q 304 894 293 890 q 339 901 322 901 l 344 901 q 679 903 515 903 m 1056 711 q 1044 760 1056 743 q 1014 786 1038 772 l 393 786 q 342 783 347 785 q 306 744 315 775 l 306 367 q 344 325 314 339 l 1014 325 q 1044 351 1038 339 q 1056 400 1056 368 q 1071 460 1056 439 q 1113 493 1082 475 l 1113 618 l 1104 622 q 1081 639 1089 631 q 1061 668 1067 653 q 1056 711 1056 683 m 422 729 q 451 720 439 729 q 470 698 464 711 q 478 665 476 685 q 478 611 479 651 l 478 556 q 479 494 478 532 q 476 425 481 442 q 443 388 471 401 l 439 386 q 424 382 431 382 q 364 424 378 382 q 361 556 361 438 q 364 688 361 674 q 422 729 378 729 m 596 729 q 625 720 613 729 q 644 698 638 711 q 651 665 650 685 q 651 611 653 651 l 651 556 q 653 494 651 532 q 650 425 654 442 q 617 388 644 401 l 613 386 q 597 382 604 382 q 538 424 551 382 q 535 556 535 438 q 538 688 535 674 q 558 719 544 708 q 596 729 571 729 m 769 729 q 799 720 786 729 q 817 698 811 711 q 825 665 824 685 q 825 611 826 651 l 825 556 q 826 494 825 532 q 824 425 828 442 q 790 388 818 401 l 786 386 q 771 382 778 382 q 711 424 725 382 q 708 556 708 438 q 711 688 708 674 q 769 729 725 729 m 943 729 q 905 719 918 729 q 885 688 892 708 q 882 556 882 674 q 885 424 882 438 q 944 382 899 382 q 972 392 960 382 q 991 414 985 401 q 999 446 997 426 q 999 500 1000 460 l 999 556 q 1000 617 999 579 q 997 686 1001 669 q 964 724 992 710 l 961 725 q 943 729 953 729 z "},"":{"ha":1403,"x_min":0,"x_max":1229,"o":"m 492 903 q 499 899 494 901 q 524 879 517 888 q 535 849 535 867 q 523 811 535 826 q 492 789 511 796 l 422 788 l 386 788 q 352 787 358 788 q 333 781 346 786 l 332 779 q 319 768 328 776 q 308 754 310 760 q 303 717 304 740 q 303 646 301 700 l 303 556 l 303 467 q 303 396 301 413 q 308 357 304 371 q 322 339 311 347 q 344 327 333 331 q 392 324 356 324 l 433 322 q 463 303 454 314 q 475 267 475 289 q 473 244 475 251 q 464 231 471 238 l 463 229 q 438 211 447 214 q 392 208 429 208 l 381 208 q 272 233 313 208 q 204 308 231 257 q 189 356 194 328 q 188 556 188 367 q 189 757 188 746 q 224 834 197 801 q 288 886 250 867 q 329 899 299 892 l 332 900 q 417 903 349 903 l 492 903 m 1114 618 q 1071 651 1083 633 q 1056 714 1056 674 q 1047 760 1056 746 q 1015 785 1038 774 q 967 788 1007 788 l 925 789 q 917 792 921 789 q 892 813 901 797 q 882 849 882 828 q 913 896 882 875 q 928 902 921 901 q 953 903 935 903 l 972 903 q 1097 874 1051 903 q 1163 783 1138 846 q 1171 736 1171 763 l 1171 725 q 1206 701 1193 714 q 1226 663 1221 685 q 1229 640 1228 656 l 1229 471 q 1226 449 1228 456 q 1206 411 1221 426 q 1171 386 1193 397 l 1171 375 q 1128 264 1171 308 q 1025 211 1088 224 q 943 208 1003 208 q 867 210 872 208 q 839 228 853 214 q 829 240 831 236 q 831 292 819 269 q 867 322 842 314 l 1001 325 q 1017 328 1011 326 q 1047 351 1039 335 q 1056 399 1056 368 q 1070 460 1056 438 q 1114 493 1085 482 l 1114 618 m 711 844 q 683 839 693 844 q 665 825 676 836 q 599 699 658 818 q 536 569 540 582 q 535 556 535 565 q 549 518 535 532 q 582 499 560 506 q 631 497 586 497 l 672 497 q 594 340 633 418 l 594 325 q 602 292 594 304 q 626 272 610 281 q 638 268 633 269 q 651 267 642 267 q 692 283 675 267 q 708 308 697 289 q 761 415 719 332 l 822 539 l 822 556 q 819 579 822 572 q 808 594 817 586 q 779 611 794 608 q 732 614 769 614 l 688 614 l 726 692 q 765 778 763 767 q 758 817 769 800 q 732 840 750 828 l 731 840 q 711 844 722 844 z "},"":{"ha":1403,"x_min":0,"x_max":1229,"o":"m 678 903 q 1026 900 1004 903 q 1132 839 1097 886 q 1167 771 1161 800 q 1172 724 1169 756 q 1206 702 1192 719 q 1226 663 1221 685 q 1229 556 1229 646 q 1226 447 1229 465 q 1210 413 1222 429 q 1183 392 1199 397 l 1172 388 l 1172 385 q 1168 344 1169 349 q 1118 257 1150 289 q 1025 211 1082 221 q 672 208 1000 208 l 333 210 q 251 247 283 222 q 201 314 218 272 l 200 318 q 192 342 193 335 l 189 356 l 189 756 l 192 769 q 214 822 196 792 q 225 836 217 826 l 231 843 q 267 876 244 861 q 314 897 289 892 l 333 901 q 678 903 342 903 m 681 786 q 392 785 438 786 q 342 783 347 785 q 306 744 315 775 l 306 367 q 344 325 314 340 l 1014 325 q 1038 343 1029 335 q 1054 371 1049 354 q 1056 400 1056 375 q 1071 460 1056 439 q 1113 493 1082 475 l 1113 618 l 1104 622 q 1081 639 1089 631 q 1061 668 1067 653 q 1056 711 1056 683 q 1046 760 1056 743 q 1014 786 1038 772 l 681 786 z "},"":{"ha":1403,"x_min":0,"x_max":1231,"o":"m 231 208 q 201 229 211 219 q 188 263 188 243 q 206 308 188 290 l 225 321 q 265 356 249 336 q 292 404 281 376 l 293 407 q 300 429 299 422 q 303 451 301 436 l 303 528 q 313 685 303 632 q 353 803 322 740 q 508 979 407 911 q 522 987 514 982 q 535 996 531 992 q 542 1010 539 1000 q 644 1122 556 1078 q 676 1132 658 1129 q 714 1133 689 1133 q 813 1100 771 1133 q 875 1008 863 1061 q 882 995 878 999 q 896 987 886 992 q 911 978 906 982 q 954 944 940 957 q 993 907 976 926 l 1017 879 q 1111 651 1088 790 q 1113 582 1113 642 l 1115 433 q 1142 369 1124 396 q 1192 322 1161 343 q 1218 300 1211 310 q 1229 263 1229 285 q 1215 229 1229 243 q 1186 208 1206 219 l 940 208 l 939 190 q 917 107 932 140 q 872 44 901 74 q 822 8 854 26 l 808 0 q 767 -17 792 -10 q 718 -24 742 -24 q 615 -4 660 -24 q 542 47 575 14 q 481 167 492 97 l 479 172 q 476 196 476 190 l 476 208 l 231 208 m 711 1018 q 676 1010 689 1018 q 657 986 668 1003 q 650 958 654 982 q 644 935 646 939 q 630 917 636 922 q 608 903 624 911 l 594 894 q 547 864 560 876 l 532 849 q 496 813 504 825 l 494 810 q 451 739 464 764 q 424 653 429 696 q 419 532 419 632 q 415 411 419 432 q 383 324 411 382 l 383 324 l 1033 324 q 1001 411 1006 382 q 997 542 997 433 q 994 647 997 629 q 942 785 975 743 l 929 800 q 896 840 908 828 q 856 874 878 858 q 808 903 839 885 q 779 924 786 915 q 767 961 769 936 q 756 993 764 982 q 732 1013 749 1004 l 729 1014 q 711 1018 721 1018 m 708 208 l 593 208 l 593 201 q 603 161 593 181 q 624 131 608 150 l 625 128 q 660 103 636 113 q 708 93 683 93 q 772 113 746 93 l 778 117 q 792 128 789 124 l 793 129 q 814 161 807 149 q 824 201 824 181 l 824 208 l 708 208 z "},"":{"ha":1403,"x_min":0,"x_max":1343,"o":"m 1003 1075 q 1050 1065 1029 1075 q 1082 1039 1064 1057 q 1114 953 1114 1007 q 1086 885 1114 914 q 1025 849 1061 857 l 1021 847 q 1006 844 1010 844 q 919 876 951 844 q 893 910 900 896 q 883 961 883 931 q 907 1033 883 1004 q 964 1072 928 1060 q 979 1075 972 1075 l 1003 1075 m 826 844 q 864 829 849 844 q 921 747 871 822 l 971 671 l 1050 671 l 1128 669 q 1157 650 1149 661 q 1169 614 1169 636 q 1167 592 1169 599 q 1158 578 1165 585 l 1157 576 q 1131 558 1142 561 q 1110 556 1125 557 l 925 556 l 917 561 q 900 572 904 568 q 847 649 896 575 q 810 701 811 701 q 765 667 808 701 l 715 625 l 622 551 l 689 485 q 760 408 751 422 q 764 397 761 406 l 765 393 q 767 266 767 388 q 765 140 767 144 q 752 115 760 125 q 732 97 744 106 q 717 94 726 94 l 708 94 q 671 107 685 94 q 653 138 660 117 q 650 251 650 151 l 650 357 l 553 456 q 483 529 488 522 q 478 564 474 543 q 492 594 482 585 q 793 836 504 607 l 794 838 q 826 844 803 844 m 301 440 q 379 426 344 440 q 456 382 432 406 q 504 319 488 350 q 533 235 524 285 q 535 208 535 228 q 524 136 535 171 q 496 79 514 110 q 417 6 468 32 q 293 -24 363 -24 q 194 4 250 -24 q 85 129 119 42 q 75 162 76 149 q 74 208 74 175 q 75 255 74 242 q 84 286 76 268 q 108 333 92 304 l 110 335 q 147 378 124 358 q 193 413 163 392 q 257 435 208 424 l 269 438 q 286 439 275 439 l 301 440 m 1119 439 q 1161 435 1142 439 q 1194 425 1172 432 l 1199 424 q 1281 371 1244 408 q 1332 288 1313 336 q 1342 255 1340 268 q 1343 208 1343 242 q 1338 147 1343 169 q 1318 101 1333 131 q 1258 26 1296 57 q 1169 -17 1221 -4 q 1124 -24 1142 -24 q 1029 -7 1072 -24 q 960 35 994 7 q 910 97 929 60 q 883 182 893 131 q 882 208 882 189 q 893 281 882 247 q 921 336 901 307 q 1065 435 975 417 l 1071 436 q 1089 439 1085 439 l 1119 439 m 307 324 q 236 303 264 324 q 196 251 214 286 q 190 231 193 244 q 188 208 188 218 q 210 139 188 168 q 263 100 229 114 q 310 93 281 93 q 346 103 326 93 l 357 107 q 401 147 381 117 q 418 208 418 172 q 401 269 418 244 q 307 324 365 324 m 1117 324 q 1099 322 1110 324 l 1096 322 q 1032 290 1064 322 q 1008 257 1015 274 q 999 208 999 236 q 1032 126 999 160 q 1107 93 1065 93 q 1192 122 1163 93 q 1218 157 1210 140 q 1228 208 1228 178 q 1221 250 1228 232 q 1203 282 1215 265 q 1188 297 1196 292 l 1171 308 q 1117 324 1149 324 z "},"":{"ha":1403,"x_min":0,"x_max":1057,"o":"m 711 1076 q 732 1072 724 1076 q 888 948 736 1069 q 1044 821 1040 826 q 1056 783 1056 804 q 1051 765 1056 775 q 1042 751 1047 756 q 1004 718 1038 746 q 919 650 961 683 l 801 556 l 919 461 q 1004 393 961 428 q 1042 360 1038 365 q 1051 346 1047 356 q 1056 328 1056 336 q 1044 290 1056 307 q 888 163 1039 283 q 730 39 736 42 q 708 36 724 36 q 669 50 685 36 q 651 82 658 60 q 650 261 650 86 l 650 433 l 576 375 q 443 272 451 275 l 442 271 q 432 267 436 268 q 419 267 428 267 q 398 269 406 267 q 383 279 390 272 q 368 299 372 290 q 361 328 361 311 q 366 347 361 336 q 376 364 371 358 q 442 418 382 369 l 615 556 l 375 749 q 366 764 371 753 q 361 783 361 775 q 368 813 361 800 q 383 832 372 821 q 398 842 390 839 q 419 844 406 844 q 432 844 428 844 q 442 840 436 843 l 443 839 q 576 736 451 836 l 650 678 l 650 850 q 651 1029 650 1025 q 671 1063 658 1051 q 711 1076 686 1076 m 769 896 q 767 882 768 897 l 767 676 l 833 729 q 902 785 899 782 q 803 869 906 789 l 769 896 m 833 382 l 767 435 l 767 229 q 769 215 768 214 l 803 242 q 902 326 906 322 q 833 382 899 329 z "},"":{"ha":1403,"x_min":0,"x_max":1171,"o":"m 765 1135 q 799 1124 785 1135 q 819 1100 808 1117 l 822 1092 l 824 911 l 824 729 l 1103 729 q 1131 726 1125 728 q 1157 708 1142 724 l 1158 707 q 1167 693 1165 700 q 1169 671 1169 686 q 1167 649 1169 656 q 931 321 1165 646 l 694 -3 q 643 -22 671 -26 q 617 -10 626 -18 q 597 11 607 -3 l 594 19 l 593 200 l 593 382 l 315 382 q 286 385 292 383 q 247 439 247 397 q 250 463 247 456 q 488 792 251 465 q 728 1119 724 1118 l 736 1124 q 765 1135 754 1135 m 708 778 l 708 897 l 564 699 q 453 547 519 638 l 418 499 q 542 497 418 497 l 667 497 l 671 494 q 690 482 685 486 q 704 461 700 472 l 708 453 l 708 214 l 853 413 q 964 564 897 474 l 999 613 q 875 614 999 614 l 750 614 l 746 617 q 726 629 732 625 q 713 650 717 639 l 708 658 l 708 778 z "},"":{"ha":1403,"x_min":0,"x_max":1288,"o":"m 1286 136 q 1264 106 1275 114 q 1224 93 1250 93 q 1201 100 1214 93 l 1192 106 q 1092 146 1136 133 q 970 161 1036 161 q 851 147 904 161 q 756 110 807 135 l 747 106 q 728 97 735 99 q 703 93 717 93 q 681 100 693 93 l 671 106 q 571 146 615 133 q 447 161 514 161 q 365 154 401 161 q 296 136 335 149 q 264 124 275 129 l 236 110 q 194 94 217 100 q 154 103 172 88 q 131 136 142 113 l 129 522 q 132 917 129 903 q 146 943 138 935 q 172 961 154 951 q 354 1022 258 1010 l 371 1025 q 414 1029 401 1029 l 457 1029 q 585 1014 525 1029 q 689 978 629 1004 l 708 969 l 731 979 q 839 1015 788 1004 q 969 1029 899 1029 q 1085 1020 1036 1029 q 1183 990 1135 1011 q 1224 972 1199 983 q 1260 952 1251 957 q 1275 939 1268 947 q 1285 922 1282 931 q 1286 899 1286 919 l 1286 136 m 446 914 q 361 904 410 914 l 336 900 q 264 876 308 896 l 247 869 l 246 556 l 246 242 l 264 249 q 381 275 338 269 q 449 276 396 276 q 533 272 501 276 q 603 257 556 268 q 650 242 632 250 l 650 868 l 635 875 q 446 914 557 914 m 967 914 q 867 904 913 914 q 783 876 828 896 l 767 869 l 767 242 l 785 249 q 868 269 839 264 q 969 276 911 276 q 1054 272 1022 276 q 1124 257 1076 268 q 1171 242 1153 250 l 1171 556 l 1169 868 l 1156 875 q 967 914 1078 914 z "},"":{"ha":1403,"x_min":0,"x_max":1056,"o":"m 714 1076 q 811 1076 754 1076 q 893 1076 879 1076 q 921 1071 907 1075 l 942 1065 q 1004 1025 971 1058 q 1035 983 1024 1006 q 1054 931 1046 961 l 1056 507 q 1053 76 1056 90 q 994 35 1039 35 q 978 39 989 35 l 976 39 q 839 119 961 46 l 708 199 l 578 119 q 440 39 456 46 l 439 39 q 422 35 428 35 q 364 76 378 35 q 361 500 361 90 q 363 928 361 921 l 365 939 q 375 972 371 964 q 421 1033 390 1003 q 489 1069 449 1061 l 499 1072 q 508 1075 506 1075 l 517 1075 q 714 1076 624 1076 m 711 960 q 547 959 574 960 q 515 957 521 958 q 493 942 503 953 q 478 919 488 935 l 478 557 l 479 196 l 557 243 q 693 322 686 321 q 708 324 697 324 q 724 322 719 324 q 860 243 731 321 l 938 196 l 939 557 l 939 919 q 897 958 924 950 l 711 960 z "},"":{"ha":1403,"x_min":0,"x_max":1229,"o":"m 714 1076 l 1083 1075 l 1097 1072 q 1184 1019 1151 1054 q 1228 926 1217 985 q 1229 547 1229 918 l 1228 181 q 1193 101 1219 140 q 1148 61 1176 78 q 1083 36 1119 44 l 333 36 q 222 104 256 53 l 218 110 q 210 122 211 118 q 189 181 196 150 l 188 547 q 189 926 188 918 q 224 1009 199 976 q 292 1063 249 1042 q 315 1069 299 1067 l 325 1072 q 336 1075 333 1075 l 346 1075 q 714 1076 535 1076 m 500 960 q 369 959 390 960 q 342 957 347 958 q 306 919 317 949 l 304 767 l 304 614 l 650 614 l 650 960 l 500 960 m 919 960 l 767 960 l 767 614 l 1113 614 l 1113 767 l 1111 919 q 1097 944 1107 933 q 1072 958 1086 954 l 919 960 m 650 497 l 304 497 l 304 344 l 306 192 q 320 167 310 178 q 344 153 331 157 l 497 151 l 650 151 l 650 497 m 940 497 l 767 497 l 767 151 l 919 151 l 1072 153 q 1097 167 1086 157 q 1111 192 1107 178 l 1113 344 l 1113 497 l 940 497 z "},"":{"ha":1403,"x_min":0,"x_max":1231,"o":"m 189 1018 q 205 1060 189 1044 q 246 1076 221 1076 q 272 1069 260 1076 q 290 1054 279 1065 q 300 1040 297 1047 q 303 1018 303 1032 q 289 979 303 993 q 254 961 278 967 q 236 961 246 960 l 219 967 q 197 985 206 971 q 189 1018 189 1000 m 419 1018 q 436 1060 419 1044 q 479 1076 453 1076 q 518 1060 503 1076 q 533 1018 533 1043 q 530 995 533 1004 q 518 978 526 986 q 503 967 510 969 l 486 961 q 439 973 458 956 q 419 1018 419 990 m 708 1076 q 733 1071 722 1076 q 751 1057 742 1067 q 765 1026 761 1047 q 760 992 769 1006 l 758 989 q 749 976 751 979 q 708 961 733 961 q 668 976 683 961 q 651 1017 653 992 q 665 1057 650 1042 q 708 1076 685 1076 m 883 1018 q 899 1060 883 1044 q 940 1076 915 1076 q 967 1069 954 1076 q 985 1054 974 1065 q 994 1040 992 1047 q 997 1018 997 1032 q 983 979 997 993 q 949 961 972 967 q 931 961 940 960 l 914 967 q 892 985 900 971 q 883 1018 883 1000 m 1114 1018 q 1131 1060 1114 1044 q 1174 1076 1147 1076 q 1213 1060 1197 1076 q 1228 1018 1228 1043 q 1224 995 1228 1004 q 1213 978 1221 986 q 1197 967 1204 969 l 1181 961 q 1133 973 1153 956 q 1114 1018 1114 990 m 244 729 q 203 745 219 729 q 188 786 188 761 q 228 843 188 824 q 247 844 231 844 q 287 828 271 844 q 303 785 303 811 q 287 744 303 760 q 244 729 271 729 m 711 844 q 765 796 753 844 q 760 759 769 775 q 735 735 751 743 q 726 731 732 733 q 717 729 719 729 l 700 729 q 665 747 679 729 q 651 787 651 764 q 665 825 650 810 q 683 839 676 836 q 711 844 694 844 m 1172 844 q 1206 833 1194 844 q 1222 814 1218 821 q 1229 786 1229 801 q 1215 747 1229 764 q 1179 729 1200 729 l 1164 729 q 1128 747 1143 729 q 1114 786 1114 764 q 1119 813 1114 803 q 1132 829 1122 819 l 1138 833 q 1151 842 1144 840 q 1172 844 1158 844 m 303 558 q 287 514 303 531 q 244 497 271 497 q 213 508 225 497 q 193 532 206 514 l 193 532 q 188 550 188 543 q 196 586 188 571 q 219 607 204 601 l 225 610 q 233 613 232 613 l 244 614 q 278 603 264 614 q 299 579 288 596 q 303 558 303 569 m 478 497 q 435 514 451 497 q 419 558 419 531 q 428 588 419 575 q 450 607 438 600 q 465 613 458 613 l 476 614 q 519 596 503 614 q 535 550 535 578 q 528 528 535 538 q 513 511 524 521 l 508 507 q 495 500 504 503 q 478 497 486 497 m 707 614 q 744 600 729 614 q 765 565 760 586 q 753 517 771 538 q 708 497 736 497 q 671 510 685 497 q 651 546 657 524 q 668 596 646 574 q 685 608 676 604 q 707 614 694 614 m 997 558 q 981 514 997 531 q 939 497 965 497 q 907 508 919 497 q 888 532 900 514 l 888 532 q 882 550 882 543 q 890 586 882 571 q 914 607 899 601 l 919 610 q 928 613 926 613 l 939 614 q 972 603 958 614 q 993 579 982 596 q 997 558 997 569 m 1172 497 q 1130 514 1146 497 q 1114 558 1114 531 q 1123 588 1114 575 q 1144 607 1132 600 q 1160 613 1153 613 l 1171 614 q 1213 596 1197 614 q 1229 550 1229 578 q 1222 528 1229 538 q 1207 511 1218 521 l 1203 507 q 1190 500 1199 503 q 1172 497 1181 497 m 189 324 q 205 366 189 350 q 246 382 221 382 q 272 375 260 382 q 290 360 279 371 q 300 345 297 353 q 303 324 303 338 q 289 285 303 299 q 254 267 278 272 q 236 267 246 265 l 219 272 q 197 291 206 276 q 189 324 189 306 m 708 382 q 733 376 722 382 q 751 363 742 372 q 765 332 761 353 q 760 297 769 311 l 758 294 q 749 282 751 285 q 708 267 733 267 q 668 282 683 267 q 651 322 653 297 q 665 363 650 347 q 708 382 685 382 m 1114 324 q 1131 366 1114 350 q 1174 382 1147 382 q 1213 365 1197 382 q 1228 324 1228 349 q 1224 301 1228 310 q 1213 283 1221 292 q 1197 272 1204 275 l 1181 267 q 1133 278 1153 261 q 1114 324 1114 296 m 711 150 q 228 149 232 150 q 200 128 208 139 q 188 89 188 113 q 231 36 188 54 l 1186 36 q 1215 56 1206 46 q 1229 89 1229 69 q 1217 128 1229 113 q 1186 150 1207 140 l 711 150 z "},"":{"ha":1403,"x_min":0,"x_max":1231,"o":"m 189 1018 q 205 1060 189 1044 q 247 1076 221 1076 q 288 1059 272 1076 q 303 1015 303 1042 q 254 961 303 974 q 236 961 246 960 l 219 967 q 197 985 206 971 q 189 1018 189 1000 m 479 1076 q 518 1060 503 1076 q 533 1018 533 1043 q 530 995 533 1004 q 518 978 526 986 q 503 967 510 969 l 486 961 q 440 972 460 956 q 419 1015 419 989 q 442 1064 419 1049 q 458 1072 451 1071 q 479 1076 467 1076 m 711 1076 q 753 1056 736 1076 q 765 1008 771 1035 q 753 981 761 993 q 733 965 744 969 q 697 963 715 960 q 668 976 679 965 q 651 1007 657 988 q 656 1044 646 1029 q 678 1067 667 1060 q 711 1076 692 1076 m 883 1018 q 899 1060 883 1044 q 941 1076 915 1076 q 982 1059 967 1076 q 997 1015 997 1042 q 949 961 997 974 q 931 961 940 960 l 914 967 q 892 985 900 971 q 883 1018 883 1000 m 1174 1076 q 1213 1060 1197 1076 q 1228 1018 1228 1043 q 1224 995 1228 1004 q 1213 978 1221 986 q 1197 967 1204 969 l 1181 961 q 1134 972 1154 956 q 1114 1015 1114 989 q 1136 1064 1114 1049 q 1153 1072 1146 1071 q 1174 1076 1161 1076 m 188 786 q 203 828 188 813 q 247 844 219 844 q 287 828 271 844 q 303 786 303 811 q 298 763 303 772 q 285 744 293 753 l 279 740 q 254 729 264 729 l 238 729 q 202 747 217 729 q 188 786 188 764 m 711 844 q 740 836 728 844 q 760 814 753 828 q 763 767 774 793 q 735 735 753 743 q 699 729 719 725 q 668 744 679 733 q 652 784 654 758 q 665 825 650 810 q 683 839 676 836 q 711 844 694 844 m 1171 844 q 1213 828 1196 844 q 1229 786 1229 811 q 1215 747 1229 764 q 1179 729 1200 729 l 1163 729 q 1119 761 1139 729 q 1115 772 1115 768 q 1114 786 1114 775 q 1119 813 1114 803 q 1132 829 1122 819 l 1138 833 q 1171 844 1149 844 m 707 614 q 1182 613 1176 614 q 1214 594 1203 606 q 1228 556 1228 579 q 1214 517 1228 532 q 1182 499 1204 506 q 708 497 1176 497 q 235 499 240 497 q 203 517 214 506 q 189 556 189 532 q 192 578 189 569 q 204 596 196 588 q 233 613 221 613 l 239 613 q 707 614 472 614 m 189 324 q 205 366 189 350 q 247 382 221 382 q 288 365 272 382 q 303 321 303 347 q 254 267 303 279 q 236 267 246 265 l 219 272 q 197 291 206 276 q 189 324 189 306 m 711 382 q 753 361 736 382 q 765 314 771 340 q 753 287 761 299 q 733 271 744 275 q 697 268 715 265 q 668 282 679 271 q 651 313 657 293 q 656 350 646 335 q 678 372 667 365 q 711 382 692 382 m 1174 382 q 1213 365 1197 382 q 1228 324 1228 349 q 1224 301 1228 310 q 1213 283 1221 292 q 1197 272 1204 275 l 1181 267 q 1134 278 1154 261 q 1114 321 1114 294 q 1136 369 1114 354 q 1153 378 1146 376 q 1174 382 1161 382 m 188 92 q 203 134 188 118 q 247 150 219 150 q 287 133 271 150 q 303 92 303 117 q 298 68 303 78 q 285 50 293 58 l 279 46 q 254 35 264 35 l 238 35 q 202 52 217 35 q 188 92 188 69 m 476 150 q 518 133 501 150 q 535 92 535 117 q 520 52 535 69 q 485 35 506 35 l 468 35 q 425 67 444 35 q 420 77 421 74 q 419 92 419 81 q 425 118 419 108 q 438 135 428 125 l 443 139 q 476 150 454 150 m 711 150 q 740 142 728 150 q 760 119 753 133 q 763 72 774 99 q 735 40 753 49 q 699 35 719 31 q 668 50 679 39 q 652 90 654 64 q 665 131 650 115 q 683 144 676 142 q 711 150 694 150 m 882 92 q 898 134 882 118 q 942 150 914 150 q 981 133 965 150 q 997 92 997 117 q 992 68 997 78 q 979 50 988 58 l 974 46 q 949 35 958 35 l 932 35 q 897 52 911 35 q 882 92 882 69 m 1171 150 q 1144 144 1156 150 q 1126 128 1138 140 q 1114 92 1114 117 q 1119 68 1114 78 q 1132 50 1124 58 l 1138 46 q 1163 35 1153 35 l 1179 35 q 1215 52 1200 35 q 1229 92 1229 69 q 1213 133 1229 117 q 1171 150 1196 150 z "},"":{"ha":1403,"x_min":0,"x_max":1231,"o":"m 189 1018 q 205 1060 189 1044 q 247 1076 221 1076 q 288 1059 272 1076 q 303 1015 303 1042 q 254 961 303 974 q 236 961 246 960 l 219 967 q 197 985 206 971 q 189 1018 189 1000 m 479 1076 q 518 1060 503 1076 q 533 1018 533 1043 q 530 995 533 1004 q 518 978 526 986 q 503 967 510 969 l 486 961 q 440 972 460 956 q 419 1015 419 989 q 442 1064 419 1049 q 458 1072 451 1071 q 479 1076 467 1076 m 711 1076 q 765 1029 750 1076 q 767 818 767 1025 l 767 614 l 971 614 q 1182 613 1178 614 q 1214 594 1203 606 q 1228 556 1228 579 q 1214 517 1228 532 q 1182 499 1204 506 q 971 497 1178 497 l 767 497 l 767 293 q 765 82 767 86 q 747 50 758 61 q 708 36 732 36 q 669 50 685 36 q 651 82 658 60 q 650 293 650 86 l 650 497 l 446 497 q 235 499 239 497 q 203 517 214 506 q 189 556 189 532 q 203 594 189 579 q 235 613 213 606 q 446 614 239 614 l 650 614 l 650 818 q 651 1029 650 1025 q 671 1063 658 1051 q 711 1076 686 1076 m 883 1018 q 899 1060 883 1044 q 941 1076 915 1076 q 982 1059 967 1076 q 997 1015 997 1042 q 949 961 997 974 q 931 961 940 960 l 914 967 q 892 985 900 971 q 883 1018 883 1000 m 1174 1076 q 1213 1060 1197 1076 q 1228 1018 1228 1043 q 1224 995 1228 1004 q 1213 978 1221 986 q 1197 967 1204 969 l 1181 961 q 1134 972 1154 956 q 1114 1015 1114 989 q 1136 1064 1114 1049 q 1153 1072 1146 1071 q 1174 1076 1161 1076 m 188 786 q 203 828 188 813 q 247 844 219 844 q 287 828 271 844 q 303 786 303 811 q 298 763 303 772 q 285 744 293 753 l 279 740 q 254 729 264 729 l 238 729 q 202 747 217 729 q 188 786 188 764 m 1171 844 q 1213 828 1196 844 q 1229 786 1229 811 q 1215 747 1229 764 q 1179 729 1200 729 l 1163 729 q 1119 761 1139 729 q 1115 772 1115 768 q 1114 786 1114 775 q 1119 813 1114 803 q 1132 829 1122 819 l 1138 833 q 1171 844 1149 844 m 189 324 q 205 366 189 350 q 247 382 221 382 q 288 365 272 382 q 303 321 303 347 q 254 267 303 279 q 236 267 246 265 l 219 272 q 197 291 206 276 q 189 324 189 306 m 1174 382 q 1213 365 1197 382 q 1228 324 1228 349 q 1224 301 1228 310 q 1213 283 1221 292 q 1197 272 1204 275 l 1181 267 q 1134 278 1154 261 q 1114 321 1114 294 q 1136 369 1114 354 q 1153 378 1146 376 q 1174 382 1161 382 m 188 92 q 203 134 188 118 q 247 150 219 150 q 287 133 271 150 q 303 92 303 117 q 298 68 303 78 q 285 50 293 58 l 279 46 q 254 35 264 35 l 238 35 q 202 52 217 35 q 188 92 188 69 m 476 150 q 518 133 501 150 q 535 92 535 117 q 520 52 535 69 q 485 35 506 35 l 468 35 q 425 67 444 35 q 420 77 421 74 q 419 92 419 81 q 425 118 419 108 q 438 135 428 125 l 443 139 q 476 150 454 150 m 882 92 q 898 134 882 118 q 942 150 914 150 q 981 133 965 150 q 997 92 997 117 q 992 68 997 78 q 979 50 988 58 l 974 46 q 949 35 958 35 l 932 35 q 897 52 911 35 q 882 92 882 69 m 1171 150 q 1144 144 1156 150 q 1126 128 1138 140 q 1114 92 1114 117 q 1119 68 1114 78 q 1132 50 1124 58 l 1138 46 q 1163 35 1153 35 l 1179 35 q 1215 52 1200 35 q 1229 92 1229 69 q 1213 133 1229 117 q 1171 150 1196 150 z "},"":{"ha":1403,"x_min":0,"x_max":1231,"o":"m 303 78 q 281 47 293 57 q 242 35 265 35 q 189 78 207 35 l 189 1033 l 192 1040 q 203 1058 199 1054 q 246 1076 221 1076 q 282 1063 267 1076 q 303 1033 293 1053 l 303 78 m 419 1018 q 436 1060 419 1044 q 479 1076 453 1076 q 518 1060 503 1076 q 533 1018 533 1043 q 530 995 533 1004 q 518 978 526 986 q 503 967 510 969 l 486 961 q 439 973 458 956 q 419 1018 419 990 m 708 1076 q 750 1058 735 1076 q 765 1017 765 1040 q 749 977 765 993 q 708 961 733 961 q 668 976 683 961 q 651 1007 657 988 q 656 1044 646 1029 q 676 1067 667 1060 q 708 1076 690 1076 m 883 1018 q 899 1060 883 1044 q 940 1076 915 1076 q 967 1069 954 1076 q 985 1054 974 1065 q 994 1040 992 1047 q 997 1018 997 1032 q 983 979 997 993 q 949 961 972 967 q 931 961 940 960 l 914 967 q 892 985 900 971 q 883 1018 883 1000 m 1114 1018 q 1131 1060 1114 1044 q 1174 1076 1147 1076 q 1213 1060 1197 1076 q 1228 1018 1228 1043 q 1224 995 1228 1004 q 1213 978 1221 986 q 1197 967 1204 969 l 1181 961 q 1133 973 1153 956 q 1114 1018 1114 990 m 711 844 q 765 796 753 844 q 760 759 769 775 q 735 735 751 743 q 726 731 732 733 q 717 729 719 729 l 700 729 q 665 747 679 729 q 651 787 651 764 q 665 825 650 810 q 683 839 676 836 q 711 844 694 844 m 1172 844 q 1206 833 1194 844 q 1222 814 1218 821 q 1229 786 1229 801 q 1215 747 1229 764 q 1179 729 1200 729 l 1164 729 q 1128 747 1143 729 q 1114 786 1114 764 q 1119 813 1114 803 q 1132 829 1122 819 l 1138 833 q 1151 842 1144 840 q 1172 844 1158 844 m 478 497 q 435 514 451 497 q 419 558 419 531 q 428 588 419 575 q 450 607 438 600 q 465 613 458 613 l 476 614 q 519 596 503 614 q 535 550 535 578 q 528 528 535 538 q 513 511 524 521 l 508 507 q 495 500 504 503 q 478 497 486 497 m 707 614 q 744 600 729 614 q 765 565 760 586 q 753 517 771 538 q 708 497 736 497 q 671 510 685 497 q 651 546 657 524 q 668 596 646 574 q 685 608 676 604 q 707 614 694 614 m 997 558 q 981 514 997 531 q 939 497 965 497 q 888 532 906 497 l 886 535 q 882 551 882 546 q 891 587 882 571 q 914 607 900 603 l 919 610 q 928 613 926 613 l 939 614 q 972 603 958 614 q 993 579 982 596 q 997 558 997 569 m 1172 497 q 1130 514 1146 497 q 1114 558 1114 531 q 1123 588 1114 575 q 1144 607 1132 600 q 1160 613 1153 613 l 1171 614 q 1213 596 1197 614 q 1229 550 1229 578 q 1222 528 1229 538 q 1207 511 1218 521 l 1203 507 q 1190 500 1199 503 q 1172 497 1181 497 m 708 382 q 750 364 735 382 q 765 322 765 346 q 749 283 765 299 q 708 267 733 267 q 668 282 683 267 q 651 313 657 293 q 656 350 646 335 q 676 372 667 365 q 708 382 690 382 m 1114 324 q 1131 366 1114 350 q 1174 382 1147 382 q 1213 365 1197 382 q 1228 324 1228 349 q 1224 301 1228 310 q 1213 283 1221 292 q 1197 272 1204 275 l 1181 267 q 1133 278 1153 261 q 1114 324 1114 296 m 478 150 q 512 138 500 150 q 528 119 524 126 q 535 92 535 107 q 520 52 535 69 q 485 35 506 35 l 469 35 q 434 52 449 35 q 419 92 419 69 q 425 118 419 108 q 438 135 428 125 l 443 139 q 457 148 450 146 q 478 150 464 150 m 711 150 q 765 101 753 150 q 760 65 769 81 q 735 40 751 49 q 726 37 732 39 q 717 35 719 35 l 700 35 q 665 52 679 35 q 651 92 651 69 q 665 131 650 115 q 683 144 676 142 q 711 150 694 150 m 940 35 q 898 51 914 35 q 882 92 882 67 q 922 149 882 129 q 942 150 925 150 q 981 133 965 150 q 997 92 997 117 q 992 65 997 76 q 976 49 988 58 l 972 44 q 940 35 963 35 m 1172 150 q 1139 140 1151 150 q 1119 118 1131 135 l 1118 115 q 1114 106 1115 110 l 1114 92 q 1121 64 1114 76 q 1136 46 1125 57 l 1138 44 q 1150 38 1142 40 q 1164 35 1158 35 l 1179 35 q 1215 52 1200 35 q 1229 92 1229 69 q 1222 118 1229 107 q 1206 139 1217 128 q 1172 150 1194 150 z "},"":{"ha":1403,"x_min":0,"x_max":1231,"o":"m 189 1018 q 205 1060 189 1044 q 246 1076 221 1076 q 272 1069 260 1076 q 290 1054 279 1065 q 300 1040 297 1047 q 303 1018 303 1032 q 289 979 303 993 q 254 961 278 967 q 236 961 246 960 l 219 967 q 197 985 206 971 q 189 1018 189 1000 m 419 1018 q 436 1060 419 1044 q 479 1076 453 1076 q 518 1060 503 1076 q 533 1018 533 1043 q 530 995 533 1004 q 518 978 526 986 q 503 967 510 969 l 486 961 q 439 973 458 956 q 419 1018 419 990 m 708 1076 q 750 1058 735 1076 q 765 1017 765 1040 q 749 977 765 993 q 708 961 733 961 q 668 976 683 961 q 651 1007 657 988 q 656 1044 646 1029 q 676 1067 667 1060 q 708 1076 690 1076 m 883 1018 q 899 1060 883 1044 q 940 1076 915 1076 q 967 1069 954 1076 q 985 1054 974 1065 q 994 1040 992 1047 q 997 1018 997 1032 q 983 979 997 993 q 949 961 972 967 q 931 961 940 960 l 914 967 q 892 985 900 971 q 883 1018 883 1000 m 1114 1018 q 1131 1060 1114 1044 q 1174 1076 1147 1076 q 1213 1060 1197 1076 q 1228 1018 1228 1043 q 1224 995 1228 1004 q 1213 978 1221 986 q 1197 967 1204 969 l 1181 961 q 1133 973 1153 956 q 1114 1018 1114 990 m 246 729 q 203 745 219 729 q 188 786 188 761 q 228 843 188 824 q 247 844 231 844 q 287 828 271 844 q 303 786 303 811 q 297 760 303 771 q 282 743 293 753 l 278 739 q 246 729 268 729 m 711 844 q 765 796 753 844 q 760 759 769 775 q 735 735 751 743 q 726 731 732 733 q 717 729 719 729 l 700 729 q 665 747 679 729 q 651 787 651 764 q 665 825 650 810 q 683 839 676 836 q 711 844 694 844 m 1172 844 q 1206 833 1194 844 q 1222 814 1218 821 q 1229 786 1229 801 q 1215 747 1229 764 q 1179 729 1200 729 l 1164 729 q 1128 747 1143 729 q 1114 786 1114 764 q 1119 813 1114 803 q 1132 829 1122 819 l 1138 833 q 1151 842 1144 840 q 1172 844 1158 844 m 303 558 q 287 514 303 531 q 244 497 271 497 q 193 532 211 497 l 192 535 q 188 551 188 546 q 197 587 188 571 q 219 607 206 603 l 225 610 q 233 613 232 613 l 244 614 q 278 603 264 614 q 299 579 288 596 q 303 558 303 569 m 478 497 q 435 514 451 497 q 419 558 419 531 q 428 588 419 575 q 450 607 438 600 q 465 613 458 613 l 476 614 q 519 596 503 614 q 535 550 535 578 q 528 528 535 538 q 513 511 524 521 l 508 507 q 495 500 504 503 q 478 497 486 497 m 707 614 q 744 600 729 614 q 765 565 760 586 q 753 517 771 538 q 708 497 736 497 q 671 510 685 497 q 651 546 657 524 q 668 596 646 574 q 685 608 676 604 q 707 614 694 614 m 997 558 q 981 514 997 531 q 939 497 965 497 q 888 532 906 497 l 886 535 q 882 551 882 546 q 891 587 882 571 q 914 607 900 603 l 919 610 q 928 613 926 613 l 939 614 q 972 603 958 614 q 993 579 982 596 q 997 558 997 569 m 1172 497 q 1130 514 1146 497 q 1114 558 1114 531 q 1123 588 1114 575 q 1144 607 1132 600 q 1160 613 1153 613 l 1171 614 q 1213 596 1197 614 q 1229 550 1229 578 q 1222 528 1229 538 q 1207 511 1218 521 l 1203 507 q 1190 500 1199 503 q 1172 497 1181 497 m 189 324 q 205 366 189 350 q 246 382 221 382 q 272 375 260 382 q 290 360 279 371 q 300 345 297 353 q 303 324 303 338 q 289 285 303 299 q 254 267 278 272 q 236 267 246 265 l 219 272 q 197 291 206 276 q 189 324 189 306 m 708 382 q 750 364 735 382 q 765 322 765 346 q 749 283 765 299 q 708 267 733 267 q 668 282 683 267 q 651 313 657 293 q 656 350 646 335 q 676 372 667 365 q 708 382 690 382 m 1114 324 q 1131 366 1114 350 q 1174 382 1147 382 q 1213 365 1197 382 q 1228 324 1228 349 q 1224 301 1228 310 q 1213 283 1221 292 q 1197 272 1204 275 l 1181 267 q 1133 278 1153 261 q 1114 324 1114 296 m 246 35 q 203 51 219 35 q 188 92 188 67 q 228 149 188 128 q 247 150 231 150 q 287 133 271 150 q 303 92 303 117 q 297 65 303 76 q 282 49 293 58 l 278 44 q 246 35 268 35 m 478 150 q 512 138 500 150 q 528 119 524 126 q 535 92 535 107 q 520 52 535 69 q 485 35 506 35 l 469 35 q 434 52 449 35 q 419 92 419 69 q 425 118 419 108 q 438 135 428 125 l 443 139 q 457 148 450 146 q 478 150 464 150 m 711 150 q 765 101 753 150 q 760 65 769 81 q 735 40 751 49 q 726 37 732 39 q 717 35 719 35 l 700 35 q 665 52 679 35 q 651 92 651 69 q 665 131 650 115 q 683 144 676 142 q 711 150 694 150 m 940 35 q 898 51 914 35 q 882 92 882 67 q 922 149 882 129 q 942 150 925 150 q 981 133 965 150 q 997 92 997 117 q 992 65 997 76 q 976 49 988 58 l 972 44 q 940 35 963 35 m 1172 150 q 1139 140 1151 150 q 1119 118 1131 135 l 1118 115 q 1114 106 1115 110 l 1114 92 q 1121 64 1114 76 q 1136 46 1125 57 l 1138 44 q 1150 38 1142 40 q 1164 35 1158 35 l 1179 35 q 1215 52 1200 35 q 1229 92 1229 69 q 1222 118 1229 107 q 1206 139 1217 128 q 1172 150 1194 150 z "},"":{"ha":1403,"x_min":0,"x_max":1229,"o":"m 713 1076 l 1083 1075 l 1097 1072 q 1147 1052 1122 1068 q 1186 1017 1171 1036 l 1192 1010 q 1203 996 1200 1000 q 1228 928 1217 974 q 1229 556 1229 921 q 1228 183 1229 190 l 1225 172 q 1215 139 1219 147 q 1169 78 1194 96 l 1163 72 q 1149 61 1153 64 q 1097 39 1129 50 l 1081 36 l 333 36 q 218 110 251 54 l 215 114 q 201 139 206 131 q 192 169 194 153 l 189 183 l 189 928 l 192 942 q 239 1025 200 986 l 244 1031 q 260 1044 256 1042 l 275 1053 q 304 1068 293 1064 q 339 1075 322 1075 l 342 1075 q 713 1076 524 1076 m 1072 153 q 1111 192 1101 163 l 1111 919 q 1097 944 1107 933 q 1072 958 1086 954 l 711 960 l 397 960 q 342 957 347 958 q 306 919 317 949 l 306 192 q 344 153 315 163 l 1072 153 m 650 786 q 667 828 650 811 q 708 846 683 846 q 750 828 733 846 q 767 788 767 811 q 747 744 767 764 q 733 733 738 735 q 675 739 700 722 q 650 786 650 756 m 533 556 q 519 513 533 528 q 476 499 504 499 q 428 523 444 499 q 424 581 413 547 q 444 603 428 593 q 478 614 460 614 q 510 604 496 614 q 529 581 519 597 q 533 572 532 575 q 533 563 533 569 l 533 556 m 708 614 q 741 603 725 614 q 761 581 757 593 q 756 522 772 547 q 708 497 740 497 q 675 506 689 497 q 656 529 661 515 q 651 558 651 543 q 657 582 650 572 l 660 585 q 679 606 671 603 l 686 608 q 708 614 700 614 m 882 560 q 899 598 882 582 q 940 614 917 614 q 982 594 963 614 q 997 548 1004 572 q 979 513 989 524 q 940 499 965 499 q 920 501 926 499 q 904 510 914 503 l 901 513 q 886 533 890 524 q 882 560 882 542 m 711 382 q 686 378 694 382 q 667 364 678 375 q 651 319 647 344 q 674 278 654 294 q 718 267 694 263 q 735 273 729 269 q 749 283 742 276 q 765 323 763 297 q 751 364 767 349 q 734 376 746 371 q 711 382 722 382 z "},"":{"ha":1403,"x_min":0,"x_max":1229,"o":"m 189 1018 q 205 1060 189 1044 q 246 1076 221 1076 q 272 1069 260 1076 q 290 1054 279 1065 q 300 1040 297 1047 q 303 1018 303 1032 q 289 979 303 993 q 254 961 278 967 q 236 961 246 960 l 219 967 q 197 985 206 971 q 189 1018 189 1000 m 419 1018 q 436 1060 419 1044 q 479 1076 453 1076 q 518 1060 503 1076 q 533 1018 533 1043 q 530 995 533 1004 q 518 978 526 986 q 503 967 510 969 l 486 961 q 439 973 458 956 q 419 1018 419 990 m 708 1076 q 750 1058 735 1076 q 765 1017 765 1040 q 749 977 765 993 q 708 961 733 961 q 668 976 683 961 q 651 1007 657 988 q 656 1044 646 1029 q 676 1067 667 1060 q 708 1076 690 1076 m 883 1018 q 899 1060 883 1044 q 940 1076 915 1076 q 967 1069 954 1076 q 985 1054 974 1065 q 994 1040 992 1047 q 997 1018 997 1032 q 983 979 997 993 q 949 961 972 967 q 931 961 940 960 l 914 967 q 892 985 900 971 q 883 1018 883 1000 m 1114 1035 q 1118 1042 1115 1038 q 1139 1067 1131 1060 q 1173 1076 1151 1076 q 1208 1063 1194 1076 q 1228 1033 1218 1054 l 1228 78 q 1175 35 1210 35 q 1139 44 1153 35 q 1118 71 1131 51 l 1114 76 l 1114 1035 m 246 729 q 203 745 219 729 q 188 786 188 761 q 228 843 188 824 q 247 844 231 844 q 287 828 271 844 q 303 786 303 811 q 297 760 303 771 q 282 743 293 753 l 278 739 q 246 729 268 729 m 711 844 q 765 796 753 844 q 760 759 769 775 q 735 735 751 743 q 726 731 732 733 q 717 729 719 729 l 700 729 q 665 747 679 729 q 651 787 651 764 q 665 825 650 810 q 683 839 676 836 q 711 844 694 844 m 303 558 q 287 514 303 531 q 244 497 271 497 q 193 532 211 497 l 192 535 q 188 551 188 546 q 197 587 188 571 q 219 607 206 603 l 225 610 q 233 613 232 613 l 244 614 q 278 603 264 614 q 299 579 288 596 q 303 558 303 569 m 478 497 q 435 514 451 497 q 419 558 419 531 q 428 588 419 575 q 450 607 438 600 q 465 613 458 613 l 476 614 q 519 596 503 614 q 535 550 535 578 q 528 528 535 538 q 513 511 524 521 l 508 507 q 495 500 504 503 q 478 497 486 497 m 707 614 q 744 600 729 614 q 765 565 760 586 q 753 517 771 538 q 708 497 736 497 q 671 510 685 497 q 651 546 657 524 q 668 596 646 574 q 685 608 676 604 q 707 614 694 614 m 997 558 q 981 514 997 531 q 939 497 965 497 q 888 532 906 497 l 886 535 q 882 551 882 546 q 891 587 882 571 q 914 607 900 603 l 919 610 q 928 613 926 613 l 939 614 q 972 603 958 614 q 993 579 982 596 q 997 558 997 569 m 189 324 q 205 366 189 350 q 246 382 221 382 q 272 375 260 382 q 290 360 279 371 q 300 345 297 353 q 303 324 303 338 q 289 285 303 299 q 254 267 278 272 q 236 267 246 265 l 219 272 q 197 291 206 276 q 189 324 189 306 m 708 382 q 750 364 735 382 q 765 322 765 346 q 749 283 765 299 q 708 267 733 267 q 668 282 683 267 q 651 313 657 293 q 656 350 646 335 q 676 372 667 365 q 708 382 690 382 m 246 35 q 203 51 219 35 q 188 92 188 67 q 228 149 188 128 q 247 150 231 150 q 287 133 271 150 q 303 92 303 117 q 297 65 303 76 q 282 49 293 58 l 278 44 q 246 35 268 35 m 478 150 q 512 138 500 150 q 528 119 524 126 q 535 92 535 107 q 520 52 535 69 q 485 35 506 35 l 469 35 q 434 52 449 35 q 419 92 419 69 q 425 118 419 108 q 438 135 428 125 l 443 139 q 457 148 450 146 q 478 150 464 150 m 711 150 q 765 101 753 150 q 760 65 769 81 q 735 40 751 49 q 726 37 732 39 q 717 35 719 35 l 700 35 q 665 52 679 35 q 651 92 651 69 q 665 131 650 115 q 683 144 676 142 q 711 150 694 150 m 942 150 q 919 147 926 150 q 904 138 911 144 q 889 119 893 126 q 882 92 882 107 q 898 51 882 67 q 940 35 914 35 q 981 51 965 35 q 997 92 997 67 q 964 144 997 128 q 953 149 957 149 q 942 150 950 150 z "},"":{"ha":1403,"x_min":0,"x_max":1231,"o":"m 231 961 q 200 983 210 971 q 188 1024 188 999 q 218 1069 188 1049 q 228 1074 221 1071 l 232 1075 q 711 1076 235 1076 l 1186 1075 q 1229 1022 1229 1057 q 1217 983 1229 999 q 1186 961 1207 971 l 231 961 m 246 729 q 203 745 219 729 q 188 786 188 761 q 228 843 188 824 q 247 844 231 844 q 287 828 271 844 q 303 786 303 811 q 297 760 303 771 q 282 743 293 753 l 278 739 q 246 729 268 729 m 711 844 q 765 796 753 844 q 760 759 769 775 q 735 735 751 743 q 726 731 732 733 q 717 729 719 729 l 700 729 q 665 747 679 729 q 651 787 651 764 q 665 825 650 810 q 683 839 676 836 q 711 844 694 844 m 1172 844 q 1206 833 1194 844 q 1222 814 1218 821 q 1229 786 1229 801 q 1215 747 1229 764 q 1179 729 1200 729 l 1164 729 q 1128 747 1143 729 q 1114 786 1114 764 q 1119 813 1114 803 q 1132 829 1122 819 l 1138 833 q 1151 842 1144 840 q 1172 844 1158 844 m 303 558 q 287 514 303 531 q 244 497 271 497 q 193 532 211 497 l 192 535 q 188 551 188 546 q 197 587 188 571 q 219 607 206 603 l 225 610 q 233 613 232 613 l 244 614 q 278 603 264 614 q 299 579 288 596 q 303 558 303 569 m 478 497 q 435 514 451 497 q 419 558 419 531 q 428 588 419 575 q 450 607 438 600 q 465 613 458 613 l 476 614 q 519 596 503 614 q 535 550 535 578 q 528 528 535 538 q 513 511 524 521 l 508 507 q 495 500 504 503 q 478 497 486 497 m 707 614 q 744 600 729 614 q 765 565 760 586 q 753 517 771 538 q 708 497 736 497 q 671 510 685 497 q 651 546 657 524 q 668 596 646 574 q 685 608 676 604 q 707 614 694 614 m 997 558 q 981 514 997 531 q 939 497 965 497 q 888 532 906 497 l 886 535 q 882 551 882 546 q 891 587 882 571 q 914 607 900 603 l 919 610 q 928 613 926 613 l 939 614 q 972 603 958 614 q 993 579 982 596 q 997 558 997 569 m 1172 497 q 1130 514 1146 497 q 1114 558 1114 531 q 1123 588 1114 575 q 1144 607 1132 600 q 1160 613 1153 613 l 1171 614 q 1213 596 1197 614 q 1229 550 1229 578 q 1222 528 1229 538 q 1207 511 1218 521 l 1203 507 q 1190 500 1199 503 q 1172 497 1181 497 m 189 324 q 205 366 189 350 q 246 382 221 382 q 272 375 260 382 q 290 360 279 371 q 300 345 297 353 q 303 324 303 338 q 289 285 303 299 q 254 267 278 272 q 236 267 246 265 l 219 272 q 197 291 206 276 q 189 324 189 306 m 708 382 q 750 364 735 382 q 765 322 765 346 q 749 283 765 299 q 708 267 733 267 q 668 282 683 267 q 651 313 657 293 q 656 350 646 335 q 676 372 667 365 q 708 382 690 382 m 1114 324 q 1131 366 1114 350 q 1174 382 1147 382 q 1213 365 1197 382 q 1228 324 1228 349 q 1224 301 1228 310 q 1213 283 1221 292 q 1197 272 1204 275 l 1181 267 q 1133 278 1153 261 q 1114 324 1114 296 m 246 35 q 203 51 219 35 q 188 92 188 67 q 228 149 188 128 q 247 150 231 150 q 287 133 271 150 q 303 92 303 117 q 297 65 303 76 q 282 49 293 58 l 278 44 q 246 35 268 35 m 478 150 q 512 138 500 150 q 528 119 524 126 q 535 92 535 107 q 520 52 535 69 q 485 35 506 35 l 469 35 q 434 52 449 35 q 419 92 419 69 q 425 118 419 108 q 438 135 428 125 l 443 139 q 457 148 450 146 q 478 150 464 150 m 711 150 q 765 101 753 150 q 760 65 769 81 q 735 40 751 49 q 726 37 732 39 q 717 35 719 35 l 700 35 q 665 52 679 35 q 651 92 651 69 q 665 131 650 115 q 683 144 676 142 q 711 150 694 150 m 940 35 q 898 51 914 35 q 882 92 882 67 q 922 149 882 129 q 942 150 925 150 q 981 133 965 150 q 997 92 997 117 q 992 65 997 76 q 976 49 988 58 l 972 44 q 940 35 963 35 m 1172 150 q 1139 140 1151 150 q 1119 118 1131 135 l 1118 115 q 1114 106 1115 110 l 1114 92 q 1121 64 1114 76 q 1136 46 1125 57 l 1138 44 q 1150 38 1142 40 q 1164 35 1158 35 l 1179 35 q 1215 52 1200 35 q 1229 92 1229 69 q 1222 118 1229 107 q 1206 139 1217 128 q 1172 150 1194 150 z "},"":{"ha":1403,"x_min":0,"x_max":1231,"o":"m 189 1018 q 205 1060 189 1044 q 247 1076 221 1076 q 288 1059 272 1076 q 303 1015 303 1042 q 254 961 303 974 q 236 961 246 960 l 219 967 q 197 985 206 971 q 189 1018 189 1000 m 479 1076 q 518 1060 503 1076 q 533 1018 533 1043 q 530 995 533 1004 q 518 978 526 986 q 503 967 510 969 l 486 961 q 440 972 460 956 q 419 1015 419 989 q 442 1064 419 1049 q 458 1072 451 1071 q 479 1076 467 1076 m 711 1076 q 765 1029 750 1076 q 767 556 767 1024 q 765 82 767 88 q 747 50 758 61 q 708 36 732 36 q 669 50 685 36 q 651 82 658 60 q 650 556 650 88 q 651 1029 650 1024 q 671 1063 658 1051 q 711 1076 686 1076 m 883 1018 q 899 1060 883 1044 q 941 1076 915 1076 q 982 1059 967 1076 q 997 1015 997 1042 q 949 961 997 974 q 931 961 940 960 l 914 967 q 892 985 900 971 q 883 1018 883 1000 m 1174 1076 q 1213 1060 1197 1076 q 1228 1018 1228 1043 q 1224 995 1228 1004 q 1213 978 1221 986 q 1197 967 1204 969 l 1181 961 q 1134 972 1154 956 q 1114 1015 1114 989 q 1136 1064 1114 1049 q 1153 1072 1146 1071 q 1174 1076 1161 1076 m 188 786 q 203 828 188 813 q 247 844 219 844 q 287 828 271 844 q 303 786 303 811 q 298 763 303 772 q 285 744 293 753 l 279 740 q 254 729 264 729 l 238 729 q 202 747 217 729 q 188 786 188 764 m 1171 844 q 1213 828 1196 844 q 1229 786 1229 811 q 1215 747 1229 764 q 1179 729 1200 729 l 1163 729 q 1119 761 1139 729 q 1115 772 1115 768 q 1114 786 1114 775 q 1119 813 1114 803 q 1132 829 1122 819 l 1138 833 q 1171 844 1149 844 m 303 558 q 288 514 303 531 q 246 497 272 497 q 219 504 231 497 q 201 519 213 508 l 197 524 q 188 558 188 533 q 197 588 188 574 q 219 607 207 603 l 225 610 q 233 613 232 613 l 246 614 q 286 598 269 614 q 303 558 303 582 m 476 497 q 435 514 450 497 q 419 558 419 531 q 435 594 419 579 q 475 614 454 614 q 517 598 499 614 q 535 558 535 582 q 530 532 535 542 q 515 513 525 522 q 476 497 500 497 m 997 558 q 982 514 997 531 q 940 497 967 497 q 914 504 925 497 q 896 519 907 508 l 892 524 q 882 558 882 533 q 892 588 882 574 q 914 607 901 603 l 919 610 q 928 613 926 613 l 940 614 q 981 598 964 614 q 997 558 997 582 m 1171 497 q 1129 514 1144 497 q 1114 558 1114 531 q 1129 594 1114 579 q 1169 614 1149 614 q 1211 598 1193 614 q 1229 558 1229 582 q 1224 532 1229 542 q 1210 513 1219 522 q 1171 497 1194 497 m 189 324 q 205 366 189 350 q 247 382 221 382 q 288 365 272 382 q 303 321 303 347 q 254 267 303 279 q 236 267 246 265 l 219 272 q 197 291 206 276 q 189 324 189 306 m 1174 382 q 1213 365 1197 382 q 1228 324 1228 349 q 1224 301 1228 310 q 1213 283 1221 292 q 1197 272 1204 275 l 1181 267 q 1134 278 1154 261 q 1114 321 1114 294 q 1136 369 1114 354 q 1153 378 1146 376 q 1174 382 1161 382 m 188 92 q 203 134 188 118 q 247 150 219 150 q 287 133 271 150 q 303 92 303 117 q 298 68 303 78 q 285 50 293 58 l 279 46 q 254 35 264 35 l 238 35 q 202 52 217 35 q 188 92 188 69 m 476 150 q 518 133 501 150 q 535 92 535 117 q 520 52 535 69 q 485 35 506 35 l 468 35 q 425 67 444 35 q 420 77 421 74 q 419 92 419 81 q 425 118 419 108 q 438 135 428 125 l 443 139 q 476 150 454 150 m 882 92 q 898 134 882 118 q 942 150 914 150 q 981 133 965 150 q 997 92 997 117 q 992 68 997 78 q 979 50 988 58 l 974 46 q 949 35 958 35 l 932 35 q 897 52 911 35 q 882 92 882 69 m 1171 150 q 1144 144 1156 150 q 1126 128 1138 140 q 1114 92 1114 117 q 1119 68 1114 78 q 1132 50 1124 58 l 1138 46 q 1163 35 1153 35 l 1179 35 q 1215 52 1200 35 q 1229 92 1229 69 q 1213 133 1229 117 q 1171 150 1196 150 z "},"":{"ha":1403,"x_min":0,"x_max":1229,"o":"m 707 1135 q 731 1129 719 1135 q 969 996 746 1121 q 1213 857 1206 864 q 1228 831 1219 850 l 1229 558 l 1229 286 q 1210 253 1222 265 q 970 115 1204 247 q 733 -18 736 -17 q 683 -18 708 -26 q 447 115 681 -17 q 207 253 213 247 q 188 286 194 265 l 188 558 l 189 831 q 204 857 197 850 q 454 1001 217 869 q 694 1133 686 1131 q 707 1135 699 1135 m 1053 815 q 881 913 1053 815 l 710 1010 q 493 889 707 1010 q 365 817 367 817 l 708 622 q 1053 815 881 719 m 304 717 q 303 524 304 621 l 303 329 l 650 135 l 650 522 l 304 717 m 1114 524 l 1114 717 l 767 522 l 767 135 l 1113 329 l 1114 524 z "},"":{"ha":1403,"x_min":0,"x_max":1288,"o":"m 714 1135 q 769 1135 736 1135 q 836 1134 825 1135 q 863 1129 847 1133 l 879 1125 q 928 1101 904 1119 q 964 1064 947 1085 q 991 1012 983 1038 q 999 940 999 986 l 999 903 l 1064 903 q 1142 900 1122 903 q 1233 854 1199 889 q 1285 761 1275 813 q 1286 739 1286 756 l 1286 199 q 1285 176 1286 182 q 1272 140 1282 163 l 1267 128 q 1219 69 1253 93 q 1142 38 1185 46 q 708 35 1117 35 q 275 38 300 35 q 181 85 218 49 q 132 176 143 121 q 131 199 131 182 l 131 739 q 132 761 131 756 q 144 797 135 775 l 150 810 q 198 868 164 844 q 275 900 232 892 q 353 903 297 903 l 418 903 l 418 942 q 419 981 418 967 q 425 1003 421 989 l 429 1018 q 449 1057 433 1038 q 507 1113 481 1099 l 508 1114 q 571 1133 549 1133 l 582 1133 q 714 1135 656 1135 m 711 1018 q 600 1017 619 1018 q 575 1015 581 1017 q 536 974 547 1006 q 535 935 535 968 l 535 903 l 882 903 l 882 935 q 881 964 882 957 q 876 981 881 971 l 874 989 q 861 1004 871 997 q 844 1014 857 1008 l 839 1017 l 711 1018 m 1128 786 l 292 786 q 265 771 275 781 q 247 744 254 761 l 246 639 l 246 533 l 299 513 q 360 489 336 496 l 371 485 q 461 460 431 468 q 558 443 513 447 l 656 433 q 708 432 669 432 q 832 440 753 432 l 858 443 q 1008 472 933 450 q 1140 521 1065 489 l 1171 533 l 1171 639 l 1169 744 q 1153 768 1161 760 q 1128 786 1144 776 m 707 614 q 749 597 733 614 q 765 556 764 579 q 752 515 767 532 q 708 497 738 497 q 675 506 689 497 q 656 531 661 515 q 656 575 647 556 q 682 607 664 594 q 696 613 690 613 l 707 614 m 247 407 q 246 300 246 407 l 247 194 q 263 169 254 178 q 289 153 272 160 l 1128 153 q 1153 169 1144 160 q 1169 194 1163 178 l 1171 300 q 1169 407 1171 407 l 1153 400 l 1110 385 q 1008 353 1044 360 q 747 317 864 324 q 558 325 668 313 q 511 332 531 328 l 463 342 q 275 396 358 363 l 247 407 z "},"":{"ha":1403,"x_min":0,"x_max":1172,"o":"m 714 1076 q 867 1038 799 1076 l 881 1031 q 900 1019 894 1022 q 997 921 957 982 q 1036 844 1028 876 l 1040 832 q 1050 790 1050 800 l 1050 788 l 1101 788 q 1124 787 1118 788 q 1141 781 1129 786 q 1162 762 1153 775 q 1171 733 1171 749 q 1111 450 1171 717 q 1051 183 1058 210 q 910 38 1021 60 q 708 35 888 35 q 507 38 529 35 q 417 86 446 50 l 410 94 q 383 135 390 119 l 376 150 q 365 181 368 168 q 319 390 358 214 q 246 733 246 717 q 260 767 246 753 q 287 785 275 782 q 332 788 299 788 l 367 788 l 367 790 q 381 846 367 804 q 406 902 389 872 q 438 947 422 932 l 453 963 q 486 996 475 988 q 658 1072 565 1058 l 686 1075 q 714 1076 703 1076 m 729 960 l 692 960 q 610 940 650 960 q 550 897 576 924 q 490 807 511 858 q 486 792 486 797 l 485 788 l 932 788 l 931 792 q 915 832 931 807 l 910 842 q 901 857 904 854 q 756 956 840 939 l 753 956 q 729 960 735 960 m 708 671 q 376 669 376 671 q 428 435 376 667 q 483 194 481 204 q 525 150 493 167 l 708 150 q 896 153 888 150 l 910 160 q 924 176 917 165 q 933 195 931 186 q 988 435 936 204 q 1040 669 1040 667 q 708 671 1040 671 z "},"":{"ha":1403,"x_min":0,"x_max":1292,"o":"m 451 782 q 461 785 454 782 q 471 788 468 788 l 476 788 l 478 806 q 488 860 483 842 q 508 904 496 886 l 518 918 q 540 946 532 938 q 592 988 567 972 q 658 1013 622 1007 l 679 1017 l 707 1018 q 779 1007 746 1018 q 835 981 804 999 q 878 943 858 967 q 913 897 892 928 q 935 833 924 882 l 938 821 q 940 799 940 810 l 940 788 l 946 788 q 957 785 949 788 l 965 782 l 1140 894 q 1157 901 1151 900 q 1176 903 1163 903 q 1213 885 1196 903 q 1229 849 1229 868 q 1208 800 1229 821 q 1115 740 1206 797 l 1028 685 q 1054 574 1044 639 l 1056 556 l 1244 556 l 1253 550 q 1269 539 1264 543 q 1281 524 1278 532 l 1286 507 q 1279 468 1290 485 q 1253 444 1271 457 l 1244 442 l 1150 440 l 1056 440 l 1056 393 q 1054 340 1056 357 q 1047 304 1053 328 l 1044 293 q 1117 251 1067 282 l 1146 233 q 1211 192 1206 199 q 1229 154 1229 174 q 1222 125 1229 138 q 1206 105 1218 117 q 1174 93 1194 93 q 1154 95 1160 93 q 1074 142 1149 97 l 996 188 l 978 164 q 954 136 963 144 q 835 58 904 86 q 776 41 803 46 q 708 36 750 36 q 660 38 672 36 q 552 72 603 47 q 467 132 501 97 q 443 159 458 140 q 419 186 428 178 q 264 96 265 96 q 243 93 257 93 q 210 105 222 93 q 194 125 199 117 q 188 154 188 138 q 193 176 188 165 q 206 193 199 188 l 288 243 q 371 294 368 293 q 367 322 374 296 l 364 332 q 361 393 361 354 l 361 440 l 267 440 l 172 442 q 136 471 146 450 q 131 508 125 486 q 147 539 136 528 q 164 550 151 543 l 172 556 l 361 556 l 363 574 q 388 683 371 635 l 208 801 q 193 819 199 806 q 188 849 188 833 q 204 886 188 869 q 242 903 221 903 q 263 900 256 903 q 332 858 269 897 l 363 839 l 451 782 m 713 903 q 668 896 688 903 q 635 876 653 890 q 619 861 625 869 l 608 844 q 598 823 603 836 q 593 799 593 810 l 593 788 l 824 788 l 824 793 q 808 843 824 819 q 779 879 800 858 q 750 896 769 889 q 713 903 731 903 m 708 671 l 510 671 q 479 579 488 618 q 476 481 476 557 l 476 432 q 478 350 475 372 q 501 279 483 317 q 631 164 542 200 q 646 160 642 160 l 650 158 l 650 372 q 651 435 650 424 q 657 464 651 447 l 658 468 q 683 493 661 478 l 685 493 q 693 497 690 496 l 708 497 q 746 485 732 497 q 764 453 757 474 q 767 301 767 439 q 768 158 767 158 q 811 175 778 158 q 843 194 824 181 l 854 203 q 886 233 871 214 q 910 271 894 246 l 915 281 q 932 321 926 299 q 939 371 935 338 q 940 481 940 385 q 938 579 940 557 q 907 671 929 618 l 708 671 z "},"":{"ha":1403,"x_min":0,"x_max":1292,"o":"m 714 1076 l 1083 1075 l 1097 1072 q 1188 1017 1163 1050 q 1208 986 1201 999 q 1222 950 1218 968 l 1228 928 q 1229 506 1229 921 l 1229 93 q 1259 83 1247 90 q 1281 60 1271 75 q 1286 24 1292 46 q 1269 -6 1281 6 q 1249 -19 1263 -12 l 1242 -22 q 708 -24 1238 -24 q 175 -22 179 -24 q 153 -10 161 -15 q 136 8 143 -3 q 131 46 125 24 q 149 76 136 64 q 188 93 161 89 l 188 506 q 189 928 188 921 l 192 939 q 201 972 197 964 q 238 1026 217 1004 q 292 1063 260 1047 q 315 1069 299 1067 l 325 1072 q 336 1075 333 1075 l 346 1075 q 714 1076 535 1076 m 711 960 q 397 960 446 960 q 342 957 347 958 q 306 919 317 949 l 304 506 l 304 93 l 476 93 l 476 308 q 479 536 476 517 l 485 558 q 535 651 496 603 q 708 728 596 728 q 796 713 760 728 q 860 674 825 701 q 889 642 875 661 q 914 604 899 631 l 915 601 q 929 568 924 589 q 936 532 932 557 l 939 521 q 940 300 940 513 l 940 93 l 1113 93 l 1113 506 l 1111 919 q 1097 944 1107 933 q 1072 958 1086 954 l 711 960 m 711 613 q 664 605 682 613 q 629 581 646 597 q 596 528 606 557 q 593 489 594 522 l 593 93 l 824 93 l 824 489 q 821 528 822 522 q 767 597 804 579 l 767 597 q 742 608 751 606 q 711 613 728 613 z "},"":{"ha":1403,"x_min":0,"x_max":1229,"o":"m 714 903 l 1083 901 l 1115 892 q 1178 851 1144 885 q 1208 810 1197 832 q 1228 756 1219 788 l 1229 478 q 1228 190 1229 197 q 1182 115 1214 138 q 1131 94 1157 99 q 1056 92 1113 92 l 1053 92 q 979 94 997 92 q 929 115 954 99 q 885 181 900 135 q 881 267 882 189 q 879 357 881 344 q 844 431 868 401 q 782 481 821 461 q 749 492 764 489 q 708 496 735 496 q 639 483 668 496 q 589 449 613 472 q 538 357 551 411 q 535 279 536 349 q 532 181 535 189 q 488 115 517 135 q 436 94 463 99 q 361 92 418 92 l 358 92 q 285 94 303 92 q 235 115 260 99 q 189 186 201 138 q 188 476 188 196 l 189 756 q 208 810 196 788 q 239 851 219 832 l 244 857 q 260 871 256 868 l 275 879 q 304 894 293 890 q 339 901 322 901 l 344 901 q 714 903 532 903 m 711 786 q 397 786 446 786 q 342 783 347 785 q 306 744 315 775 l 304 476 l 304 208 l 418 208 l 418 265 q 419 347 418 325 q 433 413 422 381 q 492 517 457 482 l 513 538 q 526 549 515 540 l 536 556 q 719 614 608 614 q 751 611 738 614 l 779 606 q 843 581 811 599 q 897 543 863 569 l 903 539 q 940 497 917 528 q 996 364 983 440 q 999 279 999 342 l 999 208 l 1113 208 l 1113 476 l 1111 744 q 1072 786 1103 771 l 711 786 z "},"":{"ha":1403,"x_min":0,"x_max":1346,"o":"m 1056 1017 q 1101 999 1088 1017 q 1114 946 1114 981 l 1114 925 l 1126 914 q 1240 844 1189 864 q 1265 832 1260 836 q 1281 814 1275 826 q 1286 776 1292 799 q 1269 746 1281 757 q 1252 734 1261 738 q 1229 731 1243 731 q 1186 740 1210 731 q 1147 760 1172 746 l 1114 779 l 1114 440 l 1203 440 q 1300 439 1293 440 q 1344 382 1344 424 q 1332 344 1344 358 q 1300 325 1321 332 q 1203 324 1293 324 l 1114 324 l 1114 235 q 1113 138 1114 144 q 1094 107 1106 117 q 1055 94 1079 94 q 1017 107 1031 94 q 999 138 1006 117 q 997 235 997 144 l 997 324 l 419 324 l 419 235 q 418 138 419 144 q 400 107 411 117 q 360 94 385 94 q 322 107 336 94 q 304 138 311 117 q 303 235 303 144 l 303 324 l 176 324 q 131 324 139 324 q 108 329 122 325 l 101 332 q 88 342 96 333 q 76 358 79 351 q 74 382 74 365 q 86 419 74 406 q 117 438 96 431 q 214 440 131 440 l 303 440 l 303 779 l 269 760 q 231 740 244 746 q 188 731 207 731 q 131 778 142 731 q 144 825 125 807 q 188 850 156 836 q 214 863 206 858 q 290 914 257 886 l 303 925 l 303 946 q 306 979 303 969 q 319 999 308 989 q 338 1014 329 1010 q 364 1018 347 1018 q 418 974 403 1018 q 419 940 419 968 l 419 914 l 426 901 q 488 819 440 867 q 536 781 507 800 q 611 744 574 756 q 708 731 654 731 q 821 750 771 731 q 905 798 861 765 q 990 900 949 831 l 997 914 l 997 940 q 1003 988 997 974 q 1031 1013 1010 1001 q 1040 1017 1036 1015 l 1056 1017 m 421 722 q 419 581 421 651 l 419 440 l 650 440 l 650 618 l 646 618 q 576 635 624 618 l 567 638 q 421 722 490 663 m 997 722 q 971 701 990 717 l 965 697 q 938 679 956 689 q 915 667 924 672 q 782 619 865 633 l 767 617 l 767 440 l 997 440 l 997 722 z "},"":{"ha":1403,"x_min":0,"x_max":1290,"o":"m 578 903 q 549 924 558 914 q 535 956 535 938 q 542 986 535 974 q 557 1006 546 994 q 569 1015 564 1013 q 581 1017 575 1017 q 614 1018 586 1018 l 650 1018 l 650 1053 q 653 1094 650 1083 q 668 1117 656 1104 q 685 1129 676 1125 q 707 1135 694 1135 q 765 1088 750 1135 q 767 1050 767 1083 l 767 1018 l 803 1018 q 836 1017 831 1018 q 847 1014 842 1017 q 872 993 863 1008 q 882 958 882 978 q 868 924 882 938 q 839 903 858 914 l 767 903 l 767 811 l 993 583 q 1188 388 1146 431 q 1224 347 1221 354 q 1229 328 1229 336 q 1222 299 1229 311 q 1207 279 1218 290 q 1193 269 1200 272 q 1172 267 1186 267 q 1146 272 1156 267 q 1126 288 1138 276 l 1114 299 l 1114 93 l 1188 93 q 1231 92 1222 93 q 1256 86 1240 92 q 1276 69 1267 82 q 1287 39 1285 56 q 1281 8 1289 22 q 1256 -17 1267 -12 l 1240 -22 q 708 -24 1235 -24 q 176 -22 182 -24 q 142 0 154 -15 q 131 44 125 19 q 176 92 139 79 q 243 93 181 93 l 303 93 l 303 299 l 290 288 q 271 272 279 276 q 244 267 261 267 q 224 269 231 267 q 210 279 217 272 q 194 299 199 290 q 188 328 188 311 q 193 347 188 336 q 229 388 196 354 q 424 583 271 431 l 650 811 l 650 903 l 578 903 m 708 704 l 419 415 l 419 93 l 535 93 l 535 214 q 535 281 535 269 q 540 306 536 292 l 544 322 q 602 406 557 374 q 708 439 647 439 q 796 417 760 439 q 851 364 824 400 q 879 301 869 339 q 882 193 882 285 l 882 93 l 997 93 l 997 417 q 708 704 853 560 m 711 324 q 671 310 685 324 q 651 274 657 297 q 650 179 650 268 l 650 93 l 767 93 l 767 208 q 767 260 767 247 q 760 292 765 276 q 741 314 756 304 q 711 324 726 324 z "},"":{"ha":1403,"x_min":0,"x_max":1292,"o":"m 714 1135 q 978 1135 936 1135 q 1032 1132 1025 1133 q 1122 1082 1086 1118 q 1169 992 1158 1046 q 1172 915 1171 983 l 1172 93 l 1203 93 q 1245 90 1233 93 q 1269 75 1257 88 q 1286 25 1292 53 q 1240 -22 1278 -10 q 708 -24 1235 -24 q 176 -22 182 -24 q 146 -6 156 -15 q 131 35 131 10 q 146 75 131 60 q 171 90 158 88 q 214 93 183 93 l 244 93 l 244 915 q 247 992 246 983 q 278 1064 256 1032 q 335 1113 301 1096 l 354 1122 q 376 1130 363 1126 q 397 1133 389 1133 l 408 1133 q 714 1135 571 1135 m 711 1018 q 453 1018 494 1018 q 401 1015 407 1017 q 363 974 374 1006 q 361 529 361 967 l 361 93 l 476 93 l 476 228 q 476 274 476 263 q 482 308 478 290 q 530 393 494 360 q 618 438 565 426 q 658 439 625 439 l 758 439 q 799 438 792 439 q 939 286 914 414 q 940 183 940 279 l 940 93 l 1056 93 l 1056 764 q 1056 936 1057 906 q 1047 989 1054 968 q 1033 1006 1044 999 q 1013 1015 1028 1010 l 1011 1017 l 711 1018 m 711 903 q 746 890 732 903 q 764 860 757 879 q 767 819 767 846 l 767 788 l 799 788 q 839 785 825 788 q 881 729 881 771 q 860 682 881 696 q 799 671 840 671 l 767 671 l 767 639 q 764 599 767 613 q 708 556 750 556 q 653 599 667 556 q 650 639 650 613 l 650 671 l 618 671 q 578 674 592 671 q 536 729 536 688 q 557 776 536 763 q 618 788 576 788 l 650 788 l 650 819 q 653 863 650 850 q 669 888 657 875 q 711 903 685 903 m 708 324 q 649 323 660 324 q 632 321 638 322 q 609 306 619 317 q 596 283 599 296 q 593 263 594 278 l 593 93 l 824 93 l 824 263 q 821 283 822 278 q 808 308 818 297 q 783 321 797 318 q 767 324 778 322 l 708 324 z "},"":{"ha":1403,"x_min":0,"x_max":1292,"o":"m 708 1135 q 931 1135 803 1135 q 1092 1135 1064 1136 q 1142 1126 1121 1133 q 1155 1115 1146 1125 q 1225 981 1164 1106 q 1286 858 1285 863 q 1288 814 1288 853 q 1283 742 1288 765 q 1263 685 1278 711 q 1229 635 1242 651 q 1185 596 1210 611 l 1172 586 l 1172 93 l 1203 93 q 1245 90 1233 93 q 1269 75 1257 88 q 1286 25 1292 53 q 1240 -22 1278 -10 q 708 -24 1235 -24 q 176 -22 182 -24 q 147 -5 157 -15 q 131 25 136 6 q 140 68 125 50 q 176 92 153 83 q 214 93 181 93 l 244 93 l 244 586 l 232 596 q 185 636 203 613 q 143 711 157 672 q 129 814 129 754 q 131 858 129 853 q 192 981 132 863 q 263 1116 253 1106 q 289 1132 272 1126 q 708 1135 303 1135 m 1078 1018 l 339 1018 l 311 961 q 290 921 301 942 l 282 904 l 708 903 l 1135 904 l 1126 921 q 1106 961 1115 942 l 1078 1018 m 476 786 l 246 786 l 246 776 q 272 714 246 742 q 325 678 293 690 q 339 674 335 675 l 361 674 q 474 764 451 674 q 476 781 476 775 l 476 786 m 824 786 l 593 786 l 593 776 q 619 714 593 742 q 672 678 640 690 q 686 674 682 675 l 708 674 q 821 764 799 674 q 824 781 824 775 l 824 786 m 1171 786 l 940 786 l 940 776 q 967 714 940 742 q 1019 678 988 690 q 1033 674 1029 675 l 1056 674 q 1168 764 1146 674 q 1171 781 1171 775 l 1171 786 m 535 633 l 522 621 q 490 596 513 611 l 474 585 q 393 558 451 568 q 369 556 376 556 l 361 556 l 361 93 l 476 93 l 476 228 q 476 274 476 263 q 482 308 478 290 q 622 438 507 408 q 708 439 629 439 l 721 439 q 778 438 767 439 q 807 433 789 438 l 817 432 q 861 411 836 428 q 926 333 901 385 q 938 293 932 322 l 939 286 q 940 183 940 279 l 940 93 l 1056 93 l 1056 556 l 1042 556 q 957 576 1000 556 q 894 621 922 593 l 882 633 l 869 621 q 838 596 860 611 l 821 585 q 794 572 813 578 l 765 563 q 700 556 744 556 q 642 565 671 556 q 594 586 625 571 l 592 588 q 547 621 569 599 l 535 633 m 708 324 q 649 323 660 324 q 632 321 638 322 q 609 306 619 317 q 596 283 599 296 q 593 263 594 278 l 593 93 l 824 93 l 824 263 q 821 283 822 278 q 808 308 818 297 q 783 321 797 318 q 767 324 778 322 l 708 324 z "},"":{"ha":1403,"x_min":0,"x_max":1293,"o":"m 714 1135 q 978 1135 936 1135 q 1032 1132 1025 1133 q 1122 1082 1086 1118 q 1169 992 1158 1046 q 1172 915 1171 983 l 1172 93 l 1203 93 q 1261 83 1243 93 q 1286 43 1279 74 q 1276 0 1292 19 q 1240 -22 1263 -15 q 708 -24 1236 -24 q 176 -22 181 -24 q 131 26 140 -10 q 140 68 125 50 q 176 92 154 85 q 214 93 181 93 l 244 93 l 244 538 l 246 981 l 249 994 q 315 1100 261 1060 l 318 1103 q 333 1113 329 1110 l 353 1122 q 374 1130 361 1126 q 397 1133 388 1133 q 714 1135 403 1135 m 711 1018 q 453 1018 494 1018 q 401 1015 407 1017 q 363 974 374 1006 q 361 529 361 967 l 361 93 l 1056 93 l 1056 764 q 1056 936 1057 906 q 1047 989 1054 968 q 1033 1006 1044 999 q 1013 1015 1028 1010 l 1011 1017 l 711 1018 m 569 846 q 572 846 571 846 q 606 844 599 846 q 624 836 613 843 l 625 835 q 650 788 650 818 q 639 751 650 767 q 610 732 628 736 q 596 729 604 731 l 560 729 l 519 731 l 517 732 q 494 746 500 740 q 478 787 479 761 q 493 828 478 813 q 521 843 506 840 q 567 846 532 846 l 569 846 m 851 846 q 904 840 889 846 q 933 814 924 835 q 939 776 944 799 q 922 746 933 757 q 900 732 917 740 l 897 731 l 835 729 q 810 731 815 729 q 790 740 804 732 l 790 740 q 767 786 767 756 q 776 818 767 801 l 782 826 q 797 838 785 832 q 818 844 810 844 l 824 844 q 851 846 840 846 m 564 614 q 595 613 588 614 q 613 608 603 613 l 621 606 q 641 589 632 601 q 650 564 650 576 l 650 547 q 635 517 650 532 q 609 500 621 503 q 564 497 597 497 q 512 503 526 497 q 483 530 497 508 q 482 575 469 551 q 508 607 490 596 q 522 613 517 613 l 528 613 q 564 614 550 614 m 851 614 q 913 605 896 614 q 939 564 931 596 q 929 521 944 540 q 893 499 915 506 q 853 497 889 497 q 822 499 829 497 q 803 503 814 500 l 796 506 q 776 522 785 510 q 767 547 767 535 l 767 564 q 781 594 767 579 q 807 611 796 608 q 851 614 818 614 m 564 382 q 579 382 569 382 q 608 381 601 382 q 626 371 614 379 q 650 324 650 356 q 639 289 650 303 q 611 269 628 275 l 610 269 q 572 265 594 265 q 507 274 525 265 q 478 315 486 283 q 478 333 476 325 l 483 350 q 494 365 486 357 q 508 375 501 372 l 514 378 q 521 381 519 381 l 526 381 q 564 382 549 382 m 856 382 q 819 381 826 382 q 807 379 813 381 q 778 360 789 374 q 767 324 767 346 q 777 289 767 303 q 806 269 788 275 l 807 269 q 844 265 822 265 q 910 274 892 265 q 939 315 931 283 q 939 333 940 325 l 933 350 q 897 381 928 365 l 856 382 z "},"":{"ha":1403,"x_min":0,"x_max":1056,"o":"m 714 901 q 758 900 750 901 q 997 747 913 874 q 1039 664 1025 706 q 1054 556 1054 615 q 1053 507 1054 519 q 1010 383 1042 438 q 932 290 979 328 q 904 258 915 278 q 885 218 894 243 l 885 217 q 881 203 882 208 l 881 167 q 879 115 881 124 q 806 7 863 50 q 763 -15 786 -8 q 708 -22 740 -22 q 676 -21 686 -22 q 653 -14 667 -19 q 538 115 561 24 q 536 161 536 124 q 530 224 536 204 q 506 269 524 244 q 478 297 497 281 q 457 315 464 308 q 394 407 417 356 q 371 472 378 447 q 363 554 363 508 q 364 604 363 592 q 463 801 383 722 q 522 850 493 832 q 594 883 556 872 l 606 886 q 681 901 656 901 l 714 901 m 717 786 l 690 786 q 569 740 631 786 q 482 601 499 688 q 478 572 478 581 l 478 539 q 494 465 478 501 q 531 408 507 440 q 567 372 546 388 q 606 329 582 361 l 610 324 l 807 324 l 811 329 q 850 372 835 361 q 901 428 872 389 q 932 500 924 457 l 938 519 l 939 540 l 939 572 q 921 650 939 613 q 882 708 910 672 l 881 710 q 860 729 874 718 q 836 747 847 740 q 783 774 807 765 q 717 786 750 786 m 708 208 l 653 208 l 653 133 q 673 105 658 115 q 708 94 688 94 q 742 104 728 94 q 761 126 750 110 l 764 133 l 764 208 l 708 208 z "},"":{"ha":1403,"x_min":0,"x_max":1290,"o":"m 707 1135 q 765 1088 750 1135 q 767 1049 767 1083 q 760 995 767 1010 q 732 965 754 981 q 724 961 726 963 l 708 961 q 685 965 693 961 q 669 976 678 968 q 653 1002 657 989 q 650 1049 650 1015 l 650 1053 q 653 1093 650 1082 q 668 1117 656 1104 q 685 1129 676 1125 q 707 1135 694 1135 m 436 886 q 420 844 436 860 q 378 828 404 828 q 356 832 365 828 l 353 833 q 317 864 342 839 q 286 900 292 889 l 285 904 q 281 925 281 913 q 286 951 281 942 q 299 968 289 958 l 304 972 q 319 981 311 979 q 340 983 326 983 q 353 983 349 983 q 364 978 357 982 q 400 947 375 972 q 431 911 425 922 l 432 908 q 436 886 436 899 m 1039 828 q 997 844 1013 828 q 981 886 981 860 q 985 908 981 899 l 986 911 q 994 924 989 917 l 1018 947 q 1042 970 1035 964 q 1061 982 1050 976 q 1081 983 1065 983 q 1120 967 1104 983 q 1136 925 1136 950 q 1132 904 1136 913 l 1131 900 q 1100 864 1125 889 q 1064 833 1075 839 l 1061 832 q 1039 828 1051 828 m 714 901 q 758 900 750 901 q 864 865 825 889 l 882 856 q 917 833 904 843 q 975 778 953 804 q 1019 708 1003 744 q 1044 640 1039 667 q 1054 556 1054 604 q 1053 507 1054 519 q 1028 418 1044 460 q 986 347 1011 376 l 978 338 q 959 315 965 321 q 939 297 953 308 q 911 269 919 281 q 885 218 899 253 l 885 217 q 881 203 882 208 l 881 167 q 879 115 881 124 q 738 -21 853 8 q 707 -22 732 -22 q 676 -21 686 -22 q 653 -14 667 -19 q 538 115 561 24 q 536 161 536 124 q 530 224 536 204 q 506 269 524 244 q 478 297 497 281 q 457 315 464 308 q 394 407 417 356 q 371 472 378 447 q 363 554 363 508 q 364 604 363 592 q 463 801 383 722 q 522 850 493 832 q 594 883 556 872 l 607 888 q 681 901 656 901 l 714 901 m 713 786 l 690 786 q 569 740 631 786 q 482 601 499 688 q 478 572 478 581 l 478 539 q 501 453 478 500 q 549 389 518 419 l 564 376 q 586 354 581 363 l 610 324 l 807 324 l 811 329 q 850 372 835 361 q 901 428 872 389 q 914 451 908 436 l 919 465 q 933 500 929 488 q 939 540 939 521 l 939 572 q 921 650 939 613 q 882 708 910 672 l 881 710 q 860 729 875 717 q 804 767 828 754 q 731 785 768 785 l 713 786 m 215 614 q 269 608 254 614 q 299 579 283 601 q 303 571 301 574 l 303 556 q 299 533 303 540 q 288 517 296 525 q 262 501 275 504 q 215 497 249 497 q 164 503 178 497 q 136 529 150 508 q 129 556 129 539 q 136 582 129 572 q 164 608 150 603 q 215 614 178 614 m 1200 614 q 1253 608 1239 614 q 1281 582 1267 603 q 1287 552 1289 569 q 1276 522 1285 535 q 1256 504 1267 508 q 1233 499 1242 500 q 1201 497 1225 497 q 1148 503 1163 497 q 1118 532 1133 510 q 1114 540 1115 538 l 1114 556 q 1117 578 1114 571 q 1129 594 1121 586 q 1160 613 1147 613 l 1165 613 q 1200 614 1188 614 m 708 208 l 653 208 l 653 133 q 673 105 658 115 q 708 94 688 94 q 742 103 728 94 q 761 125 751 110 l 764 133 l 764 208 l 708 208 z "},"":{"ha":1403,"x_min":0,"x_max":1229,"o":"m 476 1135 q 514 1122 499 1135 q 533 1092 525 1113 l 535 1056 l 535 1019 l 882 1019 l 882 1056 l 883 1092 l 885 1094 q 897 1115 892 1110 q 914 1129 904 1126 q 942 1134 928 1133 q 967 1128 957 1135 q 993 1101 989 1113 q 998 1080 997 1090 q 999 1047 999 1069 l 999 1019 l 1026 1019 q 1226 874 1197 1019 q 1229 499 1229 851 q 1228 122 1229 133 q 1133 -4 1210 35 l 1132 -6 q 1092 -19 1108 -17 l 1078 -22 l 354 -22 q 328 -21 333 -22 q 236 28 272 -10 q 189 122 200 65 q 188 499 188 133 q 190 874 188 851 q 208 926 196 904 q 239 968 219 949 q 278 996 256 985 q 324 1015 294 1006 q 335 1017 326 1017 l 347 1018 q 390 1019 356 1019 l 418 1019 l 418 1047 q 427 1106 418 1088 q 464 1133 436 1124 q 476 1135 468 1135 m 386 903 q 331 894 347 903 q 306 861 315 886 l 304 767 l 304 672 l 1113 672 l 1113 767 l 1111 861 q 1067 901 1100 890 q 1029 903 1063 903 l 999 903 l 999 874 q 996 832 999 843 q 981 804 992 815 q 951 788 969 793 q 914 793 929 782 q 883 831 893 807 l 882 867 l 882 903 l 535 903 l 535 867 l 533 831 q 515 803 525 813 q 485 788 506 794 q 442 799 461 782 q 419 836 425 813 q 418 874 418 842 l 418 903 l 386 903 m 1113 556 l 304 556 l 304 346 l 306 136 q 321 109 313 118 q 346 94 329 100 q 708 93 353 93 l 1017 93 q 1072 96 1067 94 q 1097 110 1088 101 q 1111 136 1106 119 l 1113 346 l 1113 556 m 533 440 q 464 439 469 440 q 435 421 447 433 q 419 393 422 408 q 418 353 417 383 l 418 324 q 419 258 418 263 q 432 231 425 240 q 453 214 439 221 l 461 208 l 608 208 l 615 213 q 632 225 628 221 q 645 242 640 232 q 651 264 650 251 q 651 296 653 272 l 651 346 q 647 401 651 389 q 619 433 643 418 q 608 438 617 435 l 604 439 q 533 440 600 440 z "},"":{"ha":1403,"x_min":0,"x_max":1229,"o":"m 476 1135 q 513 1122 499 1135 q 533 1092 525 1113 l 535 1056 l 535 1019 l 882 1019 l 882 1056 l 883 1092 q 896 1113 890 1106 q 914 1128 904 1125 l 931 1133 q 982 1115 958 1139 q 996 1089 993 1104 q 999 1047 999 1078 l 999 1019 l 1025 1019 q 1097 1014 1072 1019 q 1151 989 1129 1007 l 1160 983 q 1178 968 1174 972 q 1226 874 1215 931 q 1229 498 1229 851 q 1226 122 1229 144 q 1180 28 1215 65 q 1089 -21 1144 -10 q 1064 -22 1083 -22 l 353 -22 q 328 -21 333 -22 q 283 -4 310 -17 q 189 122 207 35 q 188 499 188 133 q 190 874 188 851 l 194 897 q 214 935 197 910 l 218 943 q 262 988 233 969 q 324 1015 290 1007 q 382 1019 340 1019 l 418 1019 l 418 1047 q 427 1106 418 1088 q 464 1133 436 1124 q 476 1135 468 1135 m 386 903 q 331 894 347 903 q 306 861 315 886 l 304 767 l 304 672 l 1113 672 l 1113 767 l 1111 861 q 1085 894 1101 886 q 1029 903 1068 903 l 999 903 l 999 874 q 996 832 999 843 q 981 804 992 815 q 949 788 964 788 l 932 788 q 903 800 915 788 q 885 828 890 813 q 882 840 883 833 l 882 903 l 535 903 l 535 840 q 532 828 533 833 q 515 799 526 811 q 485 788 503 788 l 468 788 q 436 804 450 788 q 419 836 424 817 q 418 874 418 842 l 418 903 l 386 903 m 1113 556 l 304 556 l 304 346 l 306 136 q 321 109 313 118 q 346 94 329 100 q 708 93 353 93 q 1071 94 1064 93 q 1095 109 1086 100 q 1111 136 1104 118 l 1113 346 l 1113 556 m 683 440 q 668 440 678 440 q 631 438 640 440 q 608 421 622 435 q 597 407 599 411 q 597 357 589 382 q 617 335 601 343 q 650 324 632 326 l 650 263 q 651 196 650 200 q 664 174 658 182 q 682 157 671 164 q 728 154 703 143 q 760 182 747 164 q 764 193 761 185 l 765 197 q 767 300 767 201 l 767 396 q 750 422 756 415 q 728 436 742 432 q 683 440 714 440 z "},"":{"ha":1403,"x_min":0,"x_max":1288,"o":"m 713 1076 l 903 1075 l 922 1068 l 940 1061 q 964 1042 953 1054 q 982 1017 971 1035 l 986 1011 q 997 970 993 1001 q 1008 929 1001 939 q 1038 907 1021 911 q 1090 903 1050 903 q 1162 897 1138 903 q 1211 872 1186 890 q 1285 761 1272 826 q 1286 739 1286 756 l 1286 199 q 1285 176 1286 182 q 1267 126 1279 147 q 1236 86 1256 106 q 1194 55 1217 67 q 1142 38 1172 43 q 708 35 1117 35 q 275 38 300 35 q 181 85 218 49 q 132 176 143 121 q 131 199 131 182 l 131 739 q 132 761 131 756 q 144 797 135 775 l 150 810 q 197 868 164 844 q 275 900 231 892 q 326 903 294 903 l 342 903 q 378 905 368 903 q 400 919 388 907 q 411 940 407 926 q 417 967 414 949 q 431 1011 422 999 q 457 1046 447 1036 q 497 1069 475 1064 l 504 1072 q 514 1075 511 1075 l 522 1075 q 713 1076 625 1076 m 1169 744 q 1128 786 1160 772 l 1083 786 q 1026 789 1043 786 q 989 801 1014 792 l 979 806 q 935 836 956 815 q 888 917 899 872 q 882 947 882 933 l 882 960 l 535 960 l 535 947 q 525 901 535 925 q 506 864 519 888 l 501 858 q 456 814 486 832 q 390 789 426 796 q 333 786 371 786 l 288 786 q 247 744 260 774 l 247 194 q 289 153 257 163 l 1128 153 q 1169 194 1160 163 l 1169 744 m 707 729 q 825 697 774 729 q 903 625 867 672 q 910 611 906 622 l 915 600 q 931 561 925 583 q 939 515 935 546 q 926 417 944 464 q 882 344 913 382 q 826 298 860 317 q 754 271 793 279 l 751 271 q 725 267 733 267 l 692 267 q 542 338 613 267 q 482 449 494 385 q 479 531 474 489 q 501 600 485 574 l 507 611 q 514 625 511 622 q 576 689 544 665 q 664 725 615 717 l 683 728 l 707 729 m 707 613 q 607 551 638 613 q 593 504 593 528 q 653 397 593 426 l 658 394 q 672 388 668 389 q 717 382 694 382 q 763 395 739 382 q 799 426 788 408 q 817 458 811 443 q 824 504 824 479 q 772 594 824 556 q 707 613 749 613 z "},"":{"ha":1403,"x_min":0,"x_max":1288,"o":"m 603 1019 l 903 1018 q 1025 943 992 999 l 1040 918 q 1047 897 1043 914 l 1051 882 q 1055 864 1054 872 q 1056 829 1056 856 l 1056 788 l 1096 788 q 1162 782 1142 788 q 1210 758 1182 776 q 1274 681 1247 733 q 1285 642 1279 669 l 1286 632 q 1288 431 1288 622 l 1286 242 l 1283 228 q 1168 101 1269 142 q 1143 94 1158 97 q 1088 92 1133 93 l 628 90 q 533 91 550 90 q 493 99 515 92 l 481 101 q 406 149 436 113 q 364 231 376 182 q 361 282 361 244 l 361 324 l 321 324 q 271 326 286 324 q 240 336 260 328 l 228 342 q 186 371 206 350 q 153 410 172 383 q 140 438 144 421 q 132 471 136 447 l 131 479 q 129 681 129 489 l 129 842 q 132 879 131 872 q 167 951 142 919 q 227 1000 192 982 q 289 1018 263 1018 l 304 1018 q 603 1019 465 1019 m 592 903 q 289 900 303 903 l 288 900 q 261 885 267 893 q 247 858 254 874 l 246 675 l 246 514 q 249 481 247 488 q 262 456 251 467 q 286 443 272 446 q 299 440 292 442 l 361 440 l 361 535 q 364 642 361 619 q 408 732 375 699 q 500 783 450 774 l 501 783 q 540 786 511 786 q 725 788 583 788 l 939 788 l 939 861 q 921 885 928 878 q 893 901 910 896 q 592 903 888 903 m 824 671 q 526 669 675 671 l 521 669 q 496 656 508 669 q 479 631 489 649 l 478 628 l 478 250 q 496 226 489 233 q 524 210 507 215 q 825 208 529 208 l 982 208 q 1100 208 1079 207 q 1142 217 1121 210 q 1158 231 1151 219 q 1168 251 1163 236 l 1169 253 l 1171 436 l 1171 599 q 1168 631 1169 624 q 1155 655 1165 644 q 1131 668 1144 665 q 1085 671 1125 669 l 824 671 m 829 613 q 944 564 896 613 q 982 513 969 539 q 997 438 997 479 q 982 365 997 397 q 943 314 969 340 q 825 267 896 267 q 683 339 738 267 q 660 382 667 361 q 651 438 651 406 q 658 494 651 471 q 679 536 664 514 q 829 613 731 613 m 826 497 q 783 481 799 497 q 767 436 767 464 q 776 408 767 422 q 797 389 786 394 q 833 383 813 379 q 865 399 854 388 q 881 431 876 410 q 875 467 885 451 q 856 488 869 479 q 826 497 842 497 z "},"":{"ha":1403,"x_min":0,"x_max":1286,"o":"m 707 1018 q 1088 1017 1081 1018 l 1103 1014 q 1136 1004 1128 1008 l 1150 997 q 1204 964 1189 979 l 1211 958 q 1256 904 1243 926 q 1285 819 1274 874 q 1286 556 1286 810 q 1285 292 1286 301 q 1249 196 1272 226 q 1213 153 1228 168 q 1104 97 1178 118 l 1089 94 l 867 94 q 831 124 840 103 q 825 161 819 139 q 842 192 831 181 q 858 203 846 196 l 867 208 l 971 208 q 1050 208 1011 208 q 1076 209 1071 208 q 1094 215 1082 210 l 1106 219 q 1169 303 1153 239 q 1171 556 1171 311 q 1169 808 1171 800 q 1083 900 1151 883 q 1026 903 1078 901 l 717 903 q 347 901 354 903 q 293 878 314 893 q 258 835 269 861 q 239 803 250 813 q 200 789 225 789 q 167 797 179 789 q 147 821 156 804 q 142 843 142 832 q 144 863 142 854 q 151 879 146 868 l 157 892 q 175 922 164 908 l 181 929 q 197 950 192 944 q 324 1015 250 1003 q 388 1018 333 1017 l 707 1018 m 708 158 q 693 110 708 128 q 647 93 678 93 q 610 110 624 93 q 593 153 596 126 q 504 403 593 292 q 401 494 467 450 q 239 551 335 538 l 236 551 q 197 556 210 556 l 175 557 q 164 561 169 558 q 138 583 147 569 q 131 622 125 601 l 132 628 q 144 651 138 644 l 146 653 q 167 668 158 665 q 207 671 175 671 q 306 660 258 671 q 390 631 346 650 q 458 596 435 611 q 513 558 493 572 q 561 513 542 535 l 578 493 q 619 442 608 461 l 638 414 q 693 274 672 356 q 708 158 708 213 m 422 93 q 376 110 392 93 q 361 158 361 128 q 357 190 361 174 q 346 217 354 199 l 342 228 q 306 276 331 256 l 297 283 q 281 297 285 294 q 192 324 236 324 q 149 341 165 324 q 131 382 132 358 q 147 422 131 406 q 167 436 158 433 q 199 439 176 439 q 293 419 254 439 l 307 414 q 322 407 318 410 q 371 375 353 389 q 385 361 375 372 l 392 354 q 451 271 431 315 q 476 153 476 218 q 468 119 476 132 q 443 99 460 107 q 422 93 432 93 m 188 208 q 178 207 185 208 l 174 207 q 147 192 160 207 q 130 158 133 178 q 136 124 126 139 q 156 102 143 111 q 185 93 168 93 q 229 108 213 93 q 246 150 246 124 q 239 176 246 165 q 224 194 235 183 l 219 199 q 206 206 215 203 q 188 208 196 208 z "},"":{"ha":1403,"x_min":0,"x_max":1229,"o":"m 1229 783 q 1213 746 1229 763 q 1175 729 1196 729 q 1158 731 1164 729 q 1142 738 1151 733 l 1142 738 q 1039 836 1129 746 l 943 932 l 818 782 q 689 628 696 635 q 650 614 675 614 l 635 614 q 436 714 536 664 l 363 615 q 283 513 294 524 q 244 498 267 496 q 204 516 221 500 q 188 556 188 532 q 193 582 188 571 l 381 831 q 419 844 394 844 l 435 844 l 635 744 l 764 899 q 903 1063 893 1053 q 926 1075 915 1075 l 940 1076 q 960 1074 950 1076 q 975 1066 969 1071 q 1099 942 981 1061 q 1221 817 1217 822 l 1221 817 q 1227 801 1225 807 q 1229 783 1229 794 m 231 94 q 188 154 188 108 q 192 172 188 164 q 313 356 193 178 q 438 539 433 535 q 455 551 446 547 q 481 556 464 556 l 492 554 l 592 506 q 691 456 689 456 q 796 585 693 456 q 903 715 894 707 q 926 728 915 728 l 940 729 q 969 721 953 729 q 1094 599 975 717 q 1219 475 1214 481 q 1226 457 1224 469 q 1229 429 1228 451 l 1229 161 q 1226 133 1228 139 q 1212 110 1222 119 q 1186 94 1201 100 l 231 94 m 944 583 q 838 450 900 529 q 748 340 756 347 q 726 327 740 332 q 699 325 713 322 q 658 343 693 326 l 497 422 l 354 208 l 1114 208 l 1114 415 q 944 583 1029 499 z "},"":{"ha":1403,"x_min":0,"x_max":1229,"o":"m 940 961 q 961 956 947 961 l 968 953 q 1099 826 976 947 q 1225 694 1221 704 l 1228 686 l 1228 367 q 1215 346 1221 353 q 1197 331 1207 333 l 1182 325 q 708 324 1176 324 q 235 325 240 324 q 203 343 214 332 q 189 382 189 358 q 191 403 189 397 q 313 589 193 410 q 438 772 433 768 l 438 772 q 458 785 451 782 q 485 787 472 789 q 594 736 499 785 l 693 686 l 796 815 q 904 949 893 938 q 916 956 908 953 q 928 960 924 960 l 940 961 m 944 815 q 818 658 886 743 q 744 568 751 575 q 730 559 738 561 q 708 557 722 557 l 693 556 l 497 654 l 425 547 l 354 440 l 1114 440 l 1114 647 q 944 815 1029 731 m 711 208 q 232 207 235 208 l 231 207 q 201 188 210 196 q 188 154 188 175 q 228 96 188 110 q 708 93 239 93 q 1189 96 1178 93 q 1229 154 1229 110 q 1215 188 1229 174 q 1186 208 1206 197 l 711 208 z "},"":{"ha":1403,"x_min":0,"x_max":1288,"o":"m 1060 1076 q 1174 1076 1154 1076 q 1200 1074 1194 1075 q 1256 1039 1235 1063 q 1286 976 1276 1015 q 1288 556 1288 969 q 1286 135 1288 142 q 1263 81 1278 101 q 1219 46 1247 60 q 1201 38 1206 39 q 1171 36 1196 36 l 708 36 q 219 38 226 36 q 136 114 150 61 q 129 160 131 136 q 129 242 128 178 l 129 332 q 131 493 129 456 q 133 526 131 518 l 133 526 q 164 581 142 558 q 219 611 186 603 q 247 614 225 613 l 476 614 l 476 681 q 478 738 476 722 q 481 757 478 749 l 481 758 q 569 842 497 824 q 701 844 586 844 l 824 844 l 824 922 q 825 978 824 964 q 840 1019 828 996 q 867 1051 849 1036 q 904 1071 885 1067 l 910 1072 q 919 1075 917 1075 l 928 1075 q 1060 1076 1000 1076 m 1171 961 l 940 961 l 940 151 l 1089 150 l 1171 150 l 1171 961 m 824 729 l 593 729 l 593 151 l 824 151 l 824 729 m 361 497 l 246 497 l 246 151 l 476 151 l 476 497 l 361 497 z "},"":{"ha":1403,"x_min":0,"x_max":1228,"o":"m 364 1076 q 399 1064 385 1076 q 417 1033 410 1053 q 419 993 419 1019 l 419 961 l 429 961 q 501 925 465 961 q 532 874 525 901 q 533 828 533 868 l 533 665 q 531 642 533 650 q 501 589 522 610 q 468 567 488 575 q 425 556 446 556 l 419 556 l 419 321 q 417 78 419 92 q 361 36 403 36 q 325 47 338 36 q 306 78 313 57 q 303 321 303 92 l 303 556 l 293 556 q 253 568 278 556 q 221 590 233 578 q 206 608 208 603 l 196 628 q 192 643 194 632 l 190 650 q 188 764 188 669 l 188 851 q 190 875 189 869 q 206 909 196 893 q 229 933 217 925 l 238 939 q 267 956 256 953 q 303 961 278 958 l 303 993 q 306 1036 303 1024 q 322 1061 310 1049 q 364 1076 338 1076 m 708 36 q 650 93 658 36 l 639 93 q 596 106 617 93 q 565 131 582 114 q 536 189 546 150 q 535 295 535 194 q 536 401 535 396 q 582 475 549 453 q 639 497 615 497 l 650 497 l 650 761 q 653 1033 650 1019 q 669 1061 658 1050 q 711 1076 685 1076 q 746 1064 732 1076 q 764 1033 757 1053 q 767 761 767 1019 l 767 497 l 778 497 q 808 490 793 497 q 833 476 818 486 l 835 475 q 860 450 850 465 q 876 417 868 438 l 881 403 l 881 186 q 866 149 872 161 q 847 126 860 138 q 822 108 840 119 l 817 104 q 799 97 810 100 q 778 93 788 93 l 767 93 q 708 36 758 36 m 997 1018 q 1058 1076 1006 1076 q 1096 1060 1082 1076 q 1114 1018 1110 1043 l 1125 1018 q 1157 1011 1140 1018 q 1182 996 1165 1007 l 1182 996 q 1210 965 1199 985 q 1228 925 1219 951 l 1228 653 q 1196 589 1217 610 q 1163 567 1182 575 q 1119 556 1140 556 l 1114 556 l 1114 321 q 1111 78 1114 92 q 1056 36 1097 36 q 1019 47 1032 36 q 1000 78 1007 57 q 997 321 997 92 l 997 556 l 988 556 q 947 568 972 556 q 915 590 928 578 q 900 608 903 603 l 890 628 q 886 643 889 632 l 885 649 q 882 786 882 668 q 883 922 882 917 q 929 996 896 974 q 986 1018 963 1018 l 997 1018 m 1113 903 l 999 903 l 999 672 l 1113 672 l 1113 903 m 418 844 l 304 844 l 304 672 l 418 672 l 418 844 m 708 382 l 651 382 l 651 208 l 765 208 l 765 382 l 708 382 z "},"":{"ha":1403,"x_min":0,"x_max":1276,"o":"m 597 1124 q 669 1097 640 1124 q 707 1035 697 1074 q 708 899 708 1025 l 708 772 l 693 747 q 668 732 688 739 l 658 729 q 604 701 625 715 q 563 658 578 683 q 540 615 547 632 q 532 558 532 590 q 540 501 532 525 q 563 457 547 478 q 621 401 590 419 q 710 379 658 379 q 800 401 761 379 q 857 456 831 419 q 881 504 871 474 q 888 519 882 510 l 890 526 q 900 540 893 533 q 915 550 904 544 l 925 556 l 1181 556 l 1185 554 q 1218 540 1208 546 q 1244 518 1236 531 l 1256 506 q 1275 443 1275 476 q 1269 403 1275 425 q 1256 367 1265 390 l 1249 346 q 1192 238 1233 300 q 1067 101 1143 165 q 994 54 1044 83 l 976 43 q 932 24 964 36 l 908 14 q 821 -12 864 -6 q 711 -19 778 -19 q 524 10 607 -19 q 379 83 456 32 q 304 147 343 107 q 239 222 269 182 q 163 367 188 290 q 133 558 133 453 q 139 644 133 610 q 153 710 142 667 l 158 731 q 188 808 168 769 q 229 878 203 838 q 497 1096 325 1022 q 564 1118 540 1114 l 575 1121 q 586 1122 583 1122 l 597 1124 m 882 1106 q 914 1097 894 1106 l 925 1093 q 1246 771 1138 1013 q 1251 708 1261 735 q 1211 672 1242 682 q 1064 671 1206 671 l 947 671 q 921 674 925 672 q 903 685 910 679 q 886 703 897 690 q 863 726 879 711 q 826 768 833 753 q 824 794 825 772 l 824 972 q 824 1039 824 1025 q 831 1074 825 1057 q 850 1096 835 1086 q 882 1106 865 1106 m 590 1004 q 572 999 589 1004 q 447 938 503 975 q 350 849 396 901 q 333 825 344 843 l 325 813 q 269 703 288 761 q 249 558 249 638 q 253 488 249 517 q 267 428 257 463 q 293 358 281 382 l 307 333 q 349 268 331 290 q 419 197 393 215 l 432 188 q 453 172 447 175 q 565 118 519 133 q 711 96 632 96 q 799 103 760 96 q 872 124 829 110 q 903 136 889 129 l 933 151 q 965 172 943 156 l 978 181 q 1001 197 996 192 q 1090 296 1056 243 q 1153 421 1129 351 q 1157 439 1157 433 q 1069 440 1157 440 l 982 439 l 974 424 q 932 363 961 400 l 924 353 q 890 324 911 338 q 851 299 878 314 l 840 293 q 708 263 788 263 q 532 322 611 263 q 450 417 479 363 q 415 557 415 479 q 419 607 415 583 q 431 650 422 621 l 431 650 q 488 753 447 707 q 578 821 525 794 l 592 829 l 593 917 l 593 992 q 590 1004 592 1004 m 946 954 l 940 957 l 940 813 l 953 800 l 967 788 l 1038 788 l 1110 789 l 1093 813 q 1082 831 1086 826 q 983 929 1038 885 q 946 954 963 946 z "},"":{"ha":1403,"x_min":0,"x_max":1231,"o":"m 939 961 q 967 955 957 961 q 1097 826 976 949 q 1224 694 1218 704 q 1229 675 1229 683 q 1222 646 1229 658 q 1207 626 1218 638 q 1193 617 1200 619 q 1172 614 1186 614 l 1158 614 q 1147 618 1153 615 q 1129 633 1142 621 l 944 815 l 943 813 q 742 567 753 575 q 708 556 725 556 q 693 558 701 556 q 574 617 678 564 l 497 654 q 296 354 357 449 q 285 339 286 340 l 281 335 q 271 329 274 331 q 212 334 236 318 q 188 382 188 350 q 193 408 188 397 l 313 588 q 438 772 433 768 l 439 774 q 460 785 451 782 q 486 786 472 789 q 513 776 493 785 q 594 736 532 767 l 693 686 l 796 815 q 904 949 893 938 q 916 956 908 953 q 928 960 924 960 l 939 961 m 711 208 q 232 207 235 208 l 231 207 q 201 188 210 196 q 188 153 188 175 q 199 117 188 132 q 231 94 211 101 l 1186 94 q 1229 154 1229 108 q 1215 188 1229 174 q 1186 208 1206 197 l 711 208 z "},"":{"ha":1403,"x_min":0,"x_max":1276,"o":"m 708 600 q 753 556 722 569 l 1147 556 q 1188 553 1182 554 q 1249 515 1226 540 q 1275 443 1275 486 q 1269 403 1275 425 q 1256 367 1265 390 l 1249 346 q 1192 238 1233 300 q 1165 200 1175 213 q 1136 167 1153 183 l 1101 132 q 1046 86 1076 107 q 983 47 1022 69 q 929 22 967 38 l 908 14 q 821 -12 864 -6 q 711 -19 778 -19 q 586 -8 639 -19 q 483 25 550 0 q 403 68 451 38 l 389 76 q 356 100 369 89 l 343 111 q 294 156 311 136 q 181 324 215 246 q 133 558 133 426 q 139 644 133 610 q 153 710 142 667 l 158 731 q 188 808 168 769 q 229 878 203 838 q 497 1096 325 1022 q 564 1118 540 1114 l 575 1121 q 586 1122 583 1122 l 604 1122 q 628 1119 615 1122 q 649 1111 642 1115 l 656 1107 q 679 1088 674 1096 l 686 1078 q 700 1057 697 1064 l 700 1056 q 708 1021 707 1036 q 708 932 708 1006 l 708 600 m 882 1106 q 914 1097 894 1106 l 925 1093 q 1069 1010 1001 1065 q 1204 856 1156 942 q 1257 738 1246 783 q 1246 694 1261 714 q 1211 672 1233 679 q 1061 671 1206 671 q 939 672 968 671 q 911 675 919 672 l 911 675 q 858 705 879 683 q 828 758 836 726 l 828 758 q 825 786 825 767 q 824 908 824 815 l 824 972 q 824 1039 824 1025 q 831 1074 825 1057 q 850 1096 835 1086 q 882 1106 865 1106 m 590 1004 q 572 999 589 1004 q 447 938 503 975 q 350 849 396 901 q 333 825 344 843 l 325 813 q 269 703 288 761 q 249 558 249 638 q 253 488 249 517 q 267 428 257 463 q 293 358 281 382 l 307 333 q 349 268 331 290 q 419 197 393 215 l 432 188 q 453 172 447 175 l 460 168 q 535 129 508 140 q 621 103 579 108 l 622 103 q 711 96 669 96 q 799 103 760 96 q 872 124 829 110 q 903 136 889 129 l 933 151 q 965 172 943 156 l 978 181 q 1001 197 996 192 q 1090 296 1054 243 q 1153 421 1129 351 q 1157 439 1157 433 q 953 440 1157 440 q 736 443 756 440 q 661 476 692 451 q 611 535 633 497 q 596 582 603 549 l 596 583 q 593 800 593 603 l 593 975 q 590 1004 592 1004 m 946 954 l 940 957 l 940 788 l 1110 788 q 1068 847 1100 808 l 1061 856 q 983 929 1036 888 q 946 954 963 946 z "},"":{"ha":1403,"x_min":0,"x_max":1231,"o":"m 1174 903 q 1153 899 1161 903 q 1136 890 1146 897 q 861 617 1132 888 l 593 349 l 465 476 q 358 582 386 556 q 329 607 335 604 q 276 607 294 618 q 250 579 264 601 q 247 564 247 574 l 247 547 q 250 531 247 538 q 407 369 257 519 q 568 214 557 219 q 590 208 579 208 q 606 210 600 208 q 622 217 613 213 l 622 217 q 920 512 626 219 q 1218 810 1214 804 q 1229 848 1229 825 q 1213 887 1229 871 q 1174 903 1196 903 z "},"":{"ha":1403,"x_min":0,"x_max":1117,"o":"m 360 788 q 317 767 335 788 q 304 719 299 746 l 304 717 q 310 703 307 707 q 494 513 319 688 q 682 331 669 339 q 735 331 700 319 q 922 513 744 335 q 1107 703 1100 692 q 1113 733 1115 715 q 1102 763 1111 750 q 1082 781 1093 776 q 1029 781 1047 792 q 864 621 1015 772 l 708 465 l 422 750 q 388 781 393 779 l 383 782 q 360 788 368 788 z "},"":{"ha":1403,"x_min":0,"x_max":944,"o":"m 881 961 q 854 954 865 961 q 668 773 844 950 q 483 582 492 596 q 476 556 476 572 q 483 529 476 539 q 668 340 493 514 q 856 156 843 165 q 891 152 869 147 q 923 167 913 157 q 939 197 933 178 q 935 234 944 219 q 774 400 925 249 l 618 556 l 774 711 q 933 876 925 863 q 940 906 942 889 q 928 937 938 924 q 908 954 919 950 l 904 956 q 881 961 889 961 z "},"":{"ha":1403,"x_min":0,"x_max":940,"o":"m 533 961 q 490 940 508 961 q 478 893 472 919 l 478 890 q 483 876 481 881 q 643 711 492 863 l 799 556 l 643 400 q 483 235 492 249 q 476 208 476 225 q 483 182 476 192 q 544 151 508 144 l 561 157 q 749 340 571 161 q 933 528 926 518 q 940 556 940 539 q 933 583 940 572 q 749 772 926 593 q 561 954 571 950 l 557 956 q 533 961 542 961 z "},"":{"ha":1403,"x_min":0,"x_max":1118,"o":"m 707 788 q 681 781 692 788 q 494 599 671 776 q 310 408 318 422 q 303 382 303 399 q 310 356 303 365 q 371 325 335 318 l 388 331 q 422 361 393 332 l 708 646 l 864 490 q 1029 330 1015 339 q 1065 326 1043 321 q 1097 341 1086 331 q 1113 371 1107 351 q 1107 408 1118 393 q 922 598 1100 419 q 735 781 744 776 l 731 782 q 707 788 715 788 z "},"":{"ha":1403,"x_min":0,"x_max":1057,"o":"m 1001 903 q 1039 886 1022 903 q 1056 849 1056 869 q 1044 810 1056 825 q 894 658 1040 804 q 735 504 744 508 q 682 504 700 493 q 521 661 671 511 q 372 810 374 807 q 361 850 361 825 q 392 896 361 875 q 419 903 401 903 q 449 894 432 903 q 582 765 461 886 l 708 639 l 835 765 q 968 894 956 886 l 968 894 q 984 901 978 899 q 1001 903 990 903 m 419 556 q 367 521 385 556 l 365 517 q 361 501 361 508 q 372 463 361 478 q 521 314 374 460 q 682 157 671 164 q 735 157 700 146 q 894 311 744 161 q 1044 463 1040 457 q 1056 501 1056 478 q 1039 539 1056 522 q 1001 556 1022 556 q 984 553 990 556 q 968 547 978 551 l 968 547 q 835 418 956 539 l 708 292 l 582 418 q 449 547 461 539 q 419 556 432 556 z "},"":{"ha":1403,"x_min":0,"x_max":1057,"o":"m 708 263 q 692 225 708 242 q 654 208 675 208 q 615 219 631 208 q 467 368 613 221 q 310 528 317 518 q 303 556 303 539 q 310 583 303 572 q 467 743 317 593 q 615 890 613 888 q 632 899 625 897 q 653 903 640 903 q 703 868 685 903 l 704 864 q 708 849 708 856 q 706 831 708 838 q 700 815 704 825 l 700 815 q 571 682 692 803 l 444 556 l 571 429 q 700 296 692 308 l 700 296 q 706 280 704 286 q 708 263 708 274 m 1000 903 q 979 899 988 903 q 963 890 972 897 q 814 743 960 888 q 657 583 664 593 q 650 556 650 572 q 657 528 650 539 q 814 368 664 518 q 963 219 960 221 q 1001 208 978 208 q 1039 225 1022 208 q 1056 263 1056 242 q 1053 280 1056 274 q 1047 296 1051 286 l 1047 296 q 918 429 1039 308 l 792 556 l 918 682 q 1047 815 1039 803 l 1047 815 q 1053 831 1051 825 q 1056 849 1056 838 q 1039 887 1056 871 q 1000 903 1022 903 z "},"":{"ha":1403,"x_min":0,"x_max":1114,"o":"m 415 208 q 378 225 394 208 q 361 263 361 242 q 363 280 361 274 q 369 296 365 286 l 369 296 q 499 429 378 308 l 625 556 l 499 682 q 369 815 378 803 q 361 849 361 832 q 392 896 361 875 q 420 903 401 903 q 454 892 439 903 q 603 743 457 890 q 760 583 753 593 q 767 556 767 572 q 760 528 767 539 q 603 368 753 518 q 454 219 457 221 q 415 208 439 208 m 767 903 q 714 868 732 903 l 713 864 q 708 849 708 856 q 717 815 708 832 q 846 682 725 803 l 972 556 l 846 429 q 717 296 725 308 l 717 296 q 710 280 713 286 q 708 263 708 274 q 725 225 708 242 q 763 208 742 208 q 801 219 786 208 q 950 368 804 221 q 1107 528 1100 518 q 1114 556 1114 539 q 1107 583 1114 572 q 950 743 1100 593 q 801 892 804 890 q 767 903 786 903 z "},"":{"ha":1403,"x_min":0,"x_max":1057,"o":"m 415 556 q 378 572 394 556 q 361 610 361 589 q 372 649 361 633 q 524 800 374 651 q 681 954 675 951 q 707 961 692 961 q 731 956 715 961 l 735 954 q 894 800 744 950 q 1044 649 1040 654 q 1056 610 1056 633 q 1039 572 1056 589 q 1001 556 1022 556 q 984 558 990 556 q 968 564 978 560 l 968 564 q 835 693 956 572 l 708 819 l 582 693 q 449 564 461 572 l 449 564 q 433 558 439 560 q 415 556 426 556 m 707 614 q 681 607 692 614 q 524 453 675 604 q 372 301 374 303 q 361 263 361 286 q 378 225 361 242 q 415 208 394 208 q 433 210 426 208 q 449 217 439 213 l 449 217 q 582 346 461 225 l 708 472 l 835 346 q 968 217 956 225 l 968 217 q 984 210 978 213 q 1001 208 990 208 q 1039 225 1022 208 q 1056 263 1056 242 q 1044 301 1056 286 q 894 453 1040 307 q 735 607 744 603 l 731 608 q 707 614 715 614 z "},"":{"ha":1403,"x_min":0,"x_max":1288,"o":"m 719 1133 q 768 1132 757 1133 q 1153 926 1001 1103 q 1279 651 1246 818 q 1285 608 1285 626 q 1286 563 1286 596 l 1286 556 q 1271 415 1286 481 q 1228 300 1257 357 q 1133 163 1185 214 l 1101 131 q 1007 60 1063 92 q 875 1 939 21 q 708 -22 797 -22 q 642 -21 663 -22 q 583 -10 611 -18 l 572 -7 q 511 13 531 6 q 453 36 481 22 q 315 131 367 79 l 283 163 q 232 228 260 186 q 160 369 183 300 q 131 556 131 456 q 140 664 131 614 q 165 756 147 703 l 167 761 q 176 786 174 779 l 194 822 q 371 1025 254 942 q 621 1128 488 1108 q 681 1133 660 1133 l 719 1133 m 706 1018 q 678 1017 696 1018 l 665 1017 q 607 1008 639 1017 q 554 992 589 1004 l 538 986 q 425 921 492 971 q 315 800 367 878 q 260 667 285 754 q 246 556 246 618 q 253 479 246 515 q 268 413 257 451 q 275 393 269 407 l 281 381 q 318 306 293 343 q 368 243 333 283 l 369 240 q 425 190 388 218 q 483 153 449 172 q 547 121 517 135 q 569 114 553 118 l 582 111 q 642 99 599 106 l 649 97 q 694 93 674 93 q 886 128 799 93 q 1124 350 1035 188 q 1139 386 1129 361 l 1143 394 q 1150 417 1146 400 l 1153 429 q 1165 489 1158 446 l 1167 496 q 1171 542 1171 521 q 1165 628 1171 592 q 1147 700 1160 665 q 1115 774 1131 744 q 1075 838 1097 810 q 953 949 1024 901 q 819 1004 907 979 q 706 1018 771 1018 m 881 729 q 854 722 868 729 q 750 621 846 717 l 650 522 l 611 563 q 561 607 575 599 q 535 614 551 614 q 508 607 518 614 q 481 575 490 594 q 483 529 469 550 q 551 458 490 519 q 621 390 613 396 l 621 390 q 637 384 631 386 q 653 382 643 382 q 674 388 663 382 q 806 513 685 393 q 933 644 926 633 q 940 683 946 663 q 917 716 935 703 q 881 729 900 729 z "},"":{"ha":1403,"x_min":0,"x_max":1288,"o":"m 719 1133 q 814 1125 768 1133 q 894 1104 842 1119 l 903 1101 q 1011 1049 954 1088 l 1044 1028 q 1153 926 1100 989 q 1279 651 1246 818 q 1285 608 1285 626 q 1286 563 1286 596 l 1286 556 q 1224 293 1286 403 l 1215 278 q 1206 258 1208 263 l 1200 250 q 1133 163 1158 188 l 1101 131 q 1014 64 1076 106 l 1006 58 q 986 49 1001 56 l 971 40 q 875 1 929 17 q 761 -21 829 -11 q 708 -22 751 -22 q 458 32 571 -22 q 283 163 369 76 q 232 228 260 186 q 158 378 183 301 q 129 572 129 468 q 133 626 129 601 q 143 678 136 643 q 217 863 165 781 q 338 1000 264 936 q 440 1069 388 1043 q 636 1131 533 1115 q 671 1133 656 1133 l 719 1133 m 706 1018 q 682 1017 697 1018 l 667 1017 q 608 1008 640 1017 q 554 992 589 1004 l 538 986 q 425 921 492 971 q 315 800 367 878 q 281 731 292 765 l 275 718 q 268 699 269 704 q 246 556 246 621 q 269 411 246 474 q 296 344 286 367 q 332 286 313 310 l 369 240 q 425 190 388 218 q 547 121 478 150 q 569 114 553 118 l 582 111 q 642 99 599 106 l 649 97 q 694 93 674 93 q 760 96 736 93 q 817 106 790 99 l 851 115 q 871 122 857 117 l 883 128 q 978 179 935 144 q 1072 269 1044 233 q 1110 328 1090 293 q 1143 394 1129 364 q 1150 417 1146 400 l 1153 429 q 1167 485 1164 461 q 1169 556 1169 508 q 1167 626 1169 603 q 1153 682 1164 650 l 1150 694 q 1143 717 1146 711 q 1074 839 1114 786 q 953 949 1031 897 q 883 983 918 972 l 871 989 q 851 996 857 994 q 706 1018 774 1018 m 707 614 q 615 614 668 614 q 542 614 557 615 q 507 607 524 613 q 488 589 496 603 q 477 558 479 575 q 483 529 475 542 q 524 499 499 507 q 708 497 529 497 q 893 499 888 497 l 894 499 q 922 514 914 506 q 939 544 933 525 q 933 582 944 567 q 908 607 919 603 l 893 613 q 707 614 888 614 z "},"":{"ha":1403,"x_min":0,"x_max":1288,"o":"m 704 1135 q 874 1110 793 1135 q 1008 1050 939 1090 q 1153 926 1083 1007 q 1279 651 1246 818 q 1285 608 1285 626 q 1286 563 1286 596 l 1286 556 q 1261 386 1286 465 q 1201 251 1242 322 q 1188 231 1197 246 l 1179 219 q 1082 113 1140 161 q 933 22 1007 50 l 917 17 q 851 -6 875 0 q 785 -18 813 -14 q 708 -22 750 -22 q 481 22 583 -22 q 315 131 400 58 q 238 219 272 168 l 228 235 q 194 288 204 268 q 129 572 129 418 q 133 626 129 601 q 143 678 136 643 q 217 863 165 781 q 338 1000 264 936 q 440 1069 388 1043 q 636 1131 533 1115 q 671 1133 656 1133 l 704 1135 m 706 1018 q 681 1017 697 1018 l 667 1017 q 626 1011 654 1017 l 608 1007 q 553 992 579 1003 q 503 969 533 985 q 428 924 457 944 q 365 867 392 897 l 364 865 q 333 828 343 840 q 307 786 317 806 l 294 761 q 246 556 246 664 q 269 411 246 474 q 296 344 286 367 q 332 286 313 310 l 369 240 q 425 190 388 218 q 547 121 478 150 q 569 114 553 118 l 582 111 q 642 99 599 106 l 649 97 q 694 93 674 93 q 760 96 736 93 q 817 106 790 99 l 851 115 q 896 133 868 119 l 915 142 q 942 157 929 147 q 957 165 944 160 l 967 171 q 979 181 971 174 l 986 186 q 1111 328 1053 231 q 1153 429 1129 357 q 1167 485 1164 461 q 1169 556 1169 508 q 1167 626 1169 603 q 1153 682 1164 650 l 1150 694 q 1143 717 1146 711 q 1074 839 1114 786 q 953 949 1031 897 q 883 983 918 972 l 871 989 q 851 996 857 994 q 706 1018 774 1018 m 707 788 q 651 740 667 788 q 650 674 650 736 l 650 614 l 590 614 q 524 613 528 614 q 489 590 501 606 q 478 546 472 571 q 524 499 486 511 q 590 497 528 497 l 650 497 l 650 438 q 651 371 650 375 q 674 336 658 349 q 718 325 693 319 q 748 340 738 329 q 765 371 758 351 q 767 438 767 375 l 767 497 l 840 497 q 884 498 875 497 q 908 504 893 499 q 928 522 919 508 q 940 551 938 535 q 933 582 942 568 q 903 610 918 606 q 844 614 890 614 l 767 614 l 767 674 q 765 740 767 736 q 707 788 750 788 z "},"":{"ha":1403,"x_min":0,"x_max":1288,"o":"m 719 1133 q 814 1125 768 1133 q 894 1104 842 1119 l 903 1101 q 1011 1049 954 1088 l 1044 1028 q 1153 926 1100 989 q 1279 651 1246 818 q 1285 608 1285 626 q 1286 563 1286 596 l 1286 556 q 1257 369 1286 456 q 1183 225 1232 299 q 1133 163 1158 188 l 1101 131 q 1007 60 1063 92 q 875 1 938 21 q 708 -22 797 -22 q 611 -14 657 -22 q 529 6 578 -8 q 431 47 481 19 q 347 103 399 67 q 296 150 329 115 l 283 163 q 232 228 260 186 q 160 369 183 300 q 131 556 131 456 q 140 664 131 614 q 165 756 147 703 l 167 761 q 176 786 174 779 l 194 822 q 338 1000 243 919 q 621 1128 460 1104 q 681 1133 660 1133 l 719 1133 m 706 1018 q 679 1017 697 1018 l 665 1017 q 607 1008 639 1017 q 554 992 589 1004 l 538 986 q 425 921 492 971 q 315 800 367 878 q 281 731 292 765 l 275 718 q 268 699 269 704 q 253 632 257 661 q 246 556 246 594 q 253 479 246 517 q 268 413 257 451 q 275 393 269 407 l 281 381 q 318 306 293 343 q 368 243 333 283 l 369 240 q 425 190 388 218 q 547 121 478 150 q 569 114 553 118 l 582 111 q 642 99 599 106 l 649 97 q 694 93 674 93 q 760 96 736 93 q 817 106 790 99 l 851 115 q 871 122 857 117 l 883 128 q 958 165 921 140 q 1021 215 981 181 l 1024 217 q 1074 272 1046 235 q 1124 350 1101 310 q 1139 386 1129 361 l 1143 394 q 1150 417 1146 400 l 1153 429 q 1165 489 1158 446 l 1167 496 q 1171 542 1171 521 q 1165 628 1171 592 q 1147 700 1160 665 q 1115 774 1131 744 q 1075 838 1097 810 q 953 949 1024 901 q 883 983 918 972 l 871 989 q 851 996 857 994 q 706 1018 774 1018 m 593 729 q 540 694 558 729 l 539 690 q 535 675 535 682 q 537 658 535 664 q 543 642 539 651 l 543 642 q 586 596 546 636 l 625 556 l 586 515 q 543 469 546 475 l 543 469 q 537 453 539 460 q 535 436 535 447 q 551 399 535 415 q 589 382 568 382 q 606 384 600 382 q 622 390 613 386 l 622 390 q 668 433 628 393 l 708 472 l 749 433 q 794 390 789 393 l 794 390 q 810 384 804 386 q 828 382 817 382 q 865 399 849 382 q 882 436 882 415 q 880 453 882 447 q 874 469 878 460 l 874 469 q 831 515 871 475 l 792 556 l 831 596 q 874 642 871 636 l 874 642 q 880 658 878 651 q 882 675 882 664 q 865 713 882 696 q 828 729 849 729 q 810 727 817 729 q 794 721 804 725 l 794 721 q 749 678 789 718 l 708 639 l 653 693 q 631 715 636 710 q 608 726 621 722 q 593 729 600 729 z "},"":{"ha":1403,"x_min":0,"x_max":1288,"o":"m 719 1133 q 814 1125 768 1133 q 894 1104 842 1119 l 903 1101 q 1011 1049 954 1088 l 1044 1028 q 1153 926 1100 989 q 1279 651 1246 818 q 1285 608 1285 626 q 1286 563 1286 596 l 1286 556 q 1257 369 1286 456 q 1183 225 1232 299 q 1133 163 1158 188 l 1101 131 q 1007 60 1063 92 q 875 1 938 21 q 708 -22 797 -22 q 611 -14 657 -22 q 529 6 578 -8 q 431 47 481 19 q 347 103 399 67 q 296 150 329 115 l 283 163 q 232 228 260 186 q 160 369 183 300 q 131 556 131 456 q 140 664 131 614 q 165 756 147 703 l 167 761 q 176 786 174 779 l 194 822 q 338 1000 243 919 q 621 1128 460 1104 q 681 1133 660 1133 l 719 1133 m 706 1018 q 679 1017 697 1018 l 665 1017 q 607 1008 639 1017 q 554 992 589 1004 l 538 986 q 425 921 492 971 q 315 800 367 878 q 281 731 292 765 l 275 718 q 268 699 269 704 q 253 632 257 661 q 246 556 246 594 q 253 479 246 517 q 268 413 257 451 q 275 393 269 407 l 281 381 q 318 306 293 343 q 368 243 333 283 l 369 240 q 425 190 388 218 q 547 121 478 150 q 569 114 553 118 l 582 111 q 642 99 599 106 l 649 97 q 694 93 674 93 q 760 96 736 93 q 817 106 790 99 l 851 115 q 871 122 857 117 l 883 128 q 958 165 921 140 q 1021 215 981 181 l 1024 217 q 1074 272 1046 235 q 1124 350 1101 310 q 1139 386 1129 361 l 1143 394 q 1150 417 1146 400 l 1153 429 q 1165 489 1158 446 l 1167 496 q 1171 542 1171 521 q 1165 628 1171 592 q 1147 700 1160 665 q 1115 774 1131 744 q 1075 838 1097 810 q 953 949 1024 901 q 883 983 918 972 l 871 989 q 851 996 857 994 q 706 1018 774 1018 z "},"":{"ha":1403,"x_min":0,"x_max":1172,"o":"m 714 1135 q 780 1134 767 1135 q 800 1132 793 1133 q 929 1019 900 1107 l 972 1019 q 1033 1017 1017 1019 q 1075 1000 1049 1014 q 1136 950 1111 982 q 1169 875 1161 918 q 1172 808 1171 867 l 1172 185 q 1169 121 1171 131 q 1132 40 1160 74 q 1061 -11 1104 6 q 1033 -19 1046 -18 l 1019 -22 l 708 -22 l 499 -24 q 411 -23 426 -24 q 374 -17 396 -22 l 364 -14 q 288 35 319 -3 q 247 121 257 72 q 244 185 246 131 l 244 808 q 247 875 246 867 q 300 971 258 929 q 358 1009 328 999 q 444 1019 389 1019 l 488 1019 q 525 1082 494 1054 q 586 1122 547 1103 q 615 1131 594 1126 l 629 1133 q 714 1135 635 1135 m 708 1018 q 649 1017 660 1018 q 632 1015 638 1017 q 603 994 614 1010 q 593 957 593 979 q 602 929 593 943 q 622 911 611 915 l 631 908 q 651 903 643 904 q 693 903 658 903 l 724 903 q 766 903 758 903 q 786 908 774 904 l 794 911 q 815 929 806 915 q 824 957 824 943 q 813 995 824 979 q 783 1015 801 1011 q 767 1018 778 1017 l 708 1018 m 1056 858 q 1051 865 1054 861 q 1036 888 1042 882 q 1014 899 1028 896 q 971 903 1000 903 l 931 903 q 878 828 913 858 q 796 789 844 799 q 756 788 788 788 l 661 788 q 621 789 629 788 q 538 828 572 799 q 486 903 504 858 l 450 903 q 413 901 436 903 l 407 901 q 363 856 378 901 q 361 497 361 850 l 361 310 q 361 168 360 193 q 369 122 363 143 q 383 106 372 113 q 404 96 389 101 l 406 94 l 1011 94 q 1039 112 1029 101 q 1054 139 1049 122 q 1056 503 1056 144 l 1056 858 m 881 614 q 854 607 864 614 q 814 568 850 606 l 650 407 l 574 482 q 560 492 565 490 l 556 493 q 543 497 546 497 l 526 497 q 488 476 504 497 q 478 431 472 456 l 483 414 q 549 342 488 404 q 625 272 611 279 q 642 267 636 267 l 658 267 q 677 273 665 267 q 809 399 689 279 q 933 529 929 519 l 935 532 q 939 565 942 553 q 918 600 933 586 q 881 614 903 614 z "},"":{"ha":1403,"x_min":0,"x_max":1172,"o":"m 714 1135 q 800 1132 783 1135 q 929 1019 900 1107 l 972 1019 q 1033 1017 1017 1019 q 1075 1000 1049 1014 q 1136 950 1111 982 q 1169 875 1161 918 q 1172 808 1171 867 l 1172 185 q 1169 121 1171 131 q 1132 40 1160 74 q 1061 -11 1104 6 q 1033 -19 1046 -18 l 1019 -22 l 410 -22 q 386 -21 392 -22 q 321 6 350 -12 q 276 51 292 25 q 247 119 253 90 q 244 183 246 129 l 244 808 q 247 875 246 867 q 300 971 258 929 q 359 1009 328 999 q 444 1019 390 1019 l 488 1019 q 525 1082 494 1054 q 586 1122 547 1103 q 615 1131 594 1126 l 629 1133 q 714 1135 635 1135 m 708 1018 q 649 1017 660 1018 q 632 1015 638 1017 q 603 994 614 1010 q 593 957 593 979 q 602 929 593 943 q 622 911 611 915 l 631 908 q 651 903 643 904 q 693 903 658 903 l 724 903 q 766 903 758 903 q 786 908 774 904 l 794 911 q 815 929 806 915 q 824 957 824 943 q 813 995 824 979 q 783 1015 801 1011 q 767 1018 778 1017 l 708 1018 m 1056 858 q 1051 865 1054 861 q 1036 888 1042 882 q 1014 899 1028 896 q 971 903 1000 903 l 931 903 q 878 828 913 858 q 796 789 844 799 q 756 788 788 788 l 661 788 q 621 789 629 788 q 538 828 572 799 q 486 903 504 858 l 450 903 q 413 901 436 903 l 407 901 q 363 856 378 901 q 361 497 361 850 l 361 310 q 361 168 360 193 q 369 122 363 143 q 383 106 372 113 q 404 96 389 101 l 406 94 l 1011 94 q 1039 112 1029 101 q 1054 139 1049 122 q 1056 503 1056 144 l 1056 858 m 535 614 q 568 604 554 614 q 588 581 578 597 q 591 572 590 575 q 592 563 592 569 l 592 556 q 583 522 592 536 q 560 503 575 508 q 524 501 542 497 q 494 515 506 504 q 478 544 483 526 q 483 581 474 565 q 522 613 504 613 l 535 614 m 822 614 q 849 614 832 614 q 901 611 890 615 q 933 582 918 606 q 940 556 940 572 q 933 529 940 539 q 893 499 918 507 q 824 497 889 497 q 751 500 765 497 q 708 556 708 514 q 751 611 708 597 q 822 614 763 614 m 535 382 q 576 364 558 382 q 590 346 586 354 q 593 319 593 338 q 560 272 593 289 q 543 267 549 267 l 526 267 q 488 288 504 267 q 478 333 472 308 l 483 350 q 494 365 486 357 q 508 375 501 372 l 514 378 q 521 381 519 381 l 535 382 m 826 382 q 779 382 804 382 q 756 383 760 383 q 743 378 751 382 l 736 374 q 717 354 725 368 q 708 325 708 340 q 719 289 708 304 q 749 268 731 274 q 817 265 760 265 l 850 265 q 882 265 874 264 q 908 272 893 267 q 933 295 922 276 q 939 333 943 314 l 933 350 q 897 381 928 365 l 826 382 z "},"":{"ha":1403,"x_min":0,"x_max":1172,"o":"m 714 1135 q 729 1135 719 1135 q 783 1134 774 1135 q 807 1129 793 1133 l 819 1126 q 861 1106 836 1122 q 929 1019 911 1072 l 972 1019 q 1033 1017 1017 1019 q 1075 1000 1049 1014 q 1136 950 1111 982 q 1169 875 1161 918 q 1172 808 1171 867 l 1172 185 q 1169 121 1171 131 q 1142 53 1161 79 q 1033 -19 1096 -10 l 1019 -22 l 708 -22 l 499 -24 q 411 -23 426 -24 q 374 -17 396 -22 l 364 -14 q 288 35 319 -3 q 247 121 257 72 q 244 185 246 131 l 244 808 q 247 875 246 867 q 300 971 258 929 q 358 1009 328 999 q 444 1019 389 1019 l 488 1019 q 525 1082 494 1054 q 586 1122 547 1103 q 615 1131 594 1126 l 629 1133 q 714 1135 635 1135 m 708 1018 q 649 1017 660 1018 q 632 1015 638 1017 q 603 994 614 1010 q 593 957 593 979 q 602 929 593 943 q 622 911 611 915 l 631 908 q 651 903 643 904 q 693 903 658 903 l 724 903 q 766 903 758 903 q 786 908 774 904 l 794 911 q 815 929 806 915 q 824 957 824 943 q 813 995 824 979 q 783 1015 801 1011 q 767 1018 778 1017 l 708 1018 m 1056 858 q 1051 865 1054 861 q 1036 888 1042 882 q 1014 899 1028 896 q 971 903 1000 903 l 931 903 l 925 892 q 908 861 915 871 q 796 789 864 803 q 756 788 788 788 l 661 788 q 621 789 629 788 q 538 828 572 799 q 486 903 504 858 l 450 903 q 413 901 436 903 l 407 901 q 363 856 378 901 q 361 497 361 850 l 361 310 q 361 168 360 193 q 369 122 363 143 q 383 106 372 113 q 404 96 389 101 l 406 94 l 1011 94 q 1039 112 1029 101 q 1054 139 1049 122 q 1056 503 1056 144 l 1056 858 m 592 614 q 552 597 568 614 q 536 556 536 581 l 536 542 q 540 532 538 539 q 551 516 543 525 q 586 481 560 507 l 626 439 l 544 356 q 538 342 540 351 q 535 325 535 333 q 551 283 535 299 q 593 267 567 267 q 613 271 603 267 l 619 274 q 668 317 626 278 l 708 357 l 761 304 q 788 280 782 285 q 808 268 794 275 q 824 267 811 267 q 866 283 850 267 q 882 325 882 299 q 879 342 882 333 q 872 356 876 351 l 790 439 l 831 481 q 865 516 857 507 q 876 532 874 525 q 881 542 879 539 l 881 556 q 856 604 881 589 q 799 608 831 619 q 771 583 793 606 l 708 522 l 667 563 l 647 583 q 626 603 632 599 q 606 613 619 608 q 592 614 601 614 z "},"":{"ha":1403,"x_min":0,"x_max":1172,"o":"m 714 1135 q 800 1132 783 1135 q 876 1094 839 1122 q 908 1063 896 1081 q 929 1019 925 1042 l 972 1019 q 1033 1017 1017 1019 q 1075 1000 1049 1014 q 1136 950 1111 982 q 1169 875 1161 918 q 1172 808 1171 867 l 1172 183 q 1169 119 1171 129 q 1097 8 1156 53 q 1031 -21 1068 -14 q 1007 -22 1025 -22 l 410 -22 q 386 -21 392 -22 q 321 6 350 -12 q 276 51 292 25 q 247 119 253 90 q 244 183 246 129 l 244 808 q 247 875 246 867 q 300 971 258 929 q 359 1009 328 999 q 444 1019 390 1019 q 488 1021 488 1019 q 493 1033 488 1022 q 531 1085 508 1064 q 586 1122 553 1106 q 615 1131 594 1126 l 629 1133 q 714 1135 635 1135 m 708 1018 q 649 1017 660 1018 q 632 1015 639 1017 q 605 997 615 1011 q 594 961 594 982 q 602 929 594 943 q 622 911 610 915 l 631 908 q 651 903 643 904 q 693 903 658 903 l 724 903 q 766 903 758 903 q 786 908 774 904 l 794 911 q 815 929 806 915 q 824 957 824 943 q 813 995 824 979 q 783 1015 801 1011 q 767 1018 778 1017 l 708 1018 m 450 903 q 413 901 436 903 l 407 901 q 363 856 378 901 q 361 497 361 850 l 361 310 q 361 168 360 193 q 369 122 363 143 q 383 106 372 113 q 404 96 389 101 l 406 94 l 1011 94 q 1039 112 1029 101 q 1054 139 1049 122 q 1056 503 1056 144 l 1056 858 l 1051 865 q 1036 888 1042 882 q 1014 899 1028 896 q 971 903 1000 903 l 931 903 q 881 829 913 858 q 797 789 846 799 q 757 788 789 788 l 660 788 q 619 789 628 788 q 538 828 571 799 q 486 903 504 858 l 450 903 z "},"":{"ha":1403,"x_min":0,"x_max":1288,"o":"m 719 1133 q 814 1125 768 1133 q 894 1104 842 1119 l 903 1101 q 1011 1049 954 1088 l 1044 1028 q 1153 926 1100 989 q 1279 651 1246 818 q 1285 608 1285 626 q 1286 563 1286 596 l 1286 556 q 1224 293 1286 403 l 1215 278 q 1206 258 1208 263 l 1200 250 q 1133 163 1158 188 l 1101 131 q 1014 64 1076 106 l 1006 58 q 986 49 1001 56 l 971 40 q 875 1 929 17 q 761 -21 829 -11 q 708 -22 751 -22 q 458 32 571 -22 q 283 163 369 76 q 232 228 260 186 q 158 378 183 301 q 129 572 129 468 q 133 626 129 601 q 143 678 136 643 q 217 863 165 781 q 338 1000 264 936 q 440 1069 388 1043 q 636 1131 533 1115 q 671 1133 656 1133 l 719 1133 m 706 1018 q 682 1017 697 1018 l 667 1017 q 608 1008 640 1017 q 554 992 589 1004 l 538 986 q 425 921 492 971 q 315 800 367 878 q 281 731 292 765 l 275 718 q 268 699 269 704 q 246 556 246 621 q 269 411 246 474 q 296 344 286 367 q 332 286 313 310 l 369 240 q 425 190 388 218 q 547 121 478 150 q 569 114 553 118 l 582 111 q 642 99 599 106 l 649 97 q 694 93 674 93 q 760 96 736 93 q 817 106 790 99 l 851 115 q 871 122 857 117 l 883 128 q 978 179 935 144 q 1072 269 1044 233 q 1110 328 1090 293 q 1143 394 1129 364 q 1150 417 1146 400 l 1153 429 q 1167 485 1164 461 q 1169 556 1169 508 q 1167 626 1169 603 q 1153 682 1164 650 l 1150 694 q 1143 717 1146 711 q 1074 839 1114 786 q 953 949 1031 897 q 883 983 918 972 l 871 989 q 851 996 857 994 q 706 1018 774 1018 m 711 903 q 676 894 692 903 q 657 871 661 885 l 651 856 q 650 701 650 851 q 651 544 650 550 l 653 540 q 657 528 656 531 q 753 428 663 518 q 856 331 844 338 q 891 326 869 321 q 923 341 913 331 q 939 371 933 351 q 933 408 944 393 q 864 482 929 415 l 767 581 l 767 714 q 765 856 767 851 q 711 903 750 903 z "},"":{"ha":1403,"x_min":0,"x_max":1374,"o":"m 1056 208 q 1074 251 1056 235 q 1119 267 1092 267 q 1232 329 1185 267 q 1257 419 1257 363 q 1213 515 1257 471 q 1166 547 1188 540 q 1089 556 1144 554 l 1042 556 l 1036 558 q 1017 571 1024 565 q 1004 588 1007 578 l 999 604 q 1000 643 997 613 q 1003 672 1003 664 q 988 751 1003 715 q 951 810 976 776 q 897 858 931 838 q 828 892 871 875 q 736 906 793 906 q 617 881 679 906 q 594 868 604 876 q 582 861 592 865 l 575 857 q 518 803 543 835 l 511 793 q 490 761 496 775 l 488 753 q 475 717 475 725 q 438 674 475 692 q 393 669 432 672 q 361 667 367 668 q 335 658 353 665 l 332 657 q 215 549 244 622 q 203 510 207 528 q 200 467 200 493 q 207 422 200 447 l 211 410 q 251 343 219 375 q 315 299 278 317 q 342 280 333 289 q 354 253 350 271 q 344 208 360 226 q 307 186 331 192 q 278 189 293 183 q 253 201 268 192 l 239 208 q 179 254 211 222 q 153 283 158 275 l 143 296 q 133 308 136 304 q 97 388 110 349 q 83 488 83 435 q 93 550 83 518 q 113 603 99 569 l 115 608 q 151 665 124 629 q 256 750 190 718 q 307 774 289 767 q 369 785 340 785 q 378 790 375 786 q 383 803 381 794 q 389 817 386 811 q 522 961 435 908 q 586 993 563 985 l 615 1003 q 713 1021 669 1021 q 731 1022 719 1021 l 733 1022 q 888 993 800 1022 q 981 942 928 979 q 1030 897 1006 924 q 1071 842 1054 869 q 1115 725 1106 783 q 1119 690 1119 700 l 1119 672 l 1133 671 q 1215 651 1174 671 q 1278 613 1243 639 q 1321 568 1300 596 q 1374 411 1374 497 q 1368 361 1374 385 q 1356 318 1365 346 l 1353 310 q 1275 207 1335 254 q 1213 170 1246 183 q 1133 151 1179 157 q 1088 156 1104 149 q 1061 185 1071 164 l 1060 186 q 1056 196 1057 192 q 1056 208 1056 200 m 711 556 q 676 547 692 556 q 657 524 661 538 l 651 508 q 650 310 650 504 l 650 118 l 610 158 q 558 203 572 196 l 554 204 q 535 208 546 208 q 488 183 503 208 q 482 126 472 157 q 578 24 486 115 q 683 -75 669 -67 q 708 -82 693 -82 q 733 -75 724 -82 q 839 24 747 -67 q 935 126 931 115 q 939 160 942 147 l 933 176 q 914 199 929 189 q 882 208 899 208 q 863 204 871 208 l 858 203 q 807 158 844 196 l 767 118 l 767 310 q 765 508 767 504 q 711 556 750 556 z "}}}
